<?xml version="1.0" encoding="UTF-8" standalone="no"?>
<svg
   xmlns:dc="http://purl.org/dc/elements/1.1/"
   xmlns:cc="http://creativecommons.org/ns#"
   xmlns:rdf="http://www.w3.org/1999/02/22-rdf-syntax-ns#"
   xmlns:svg="http://www.w3.org/2000/svg"
   xmlns="http://www.w3.org/2000/svg"
   xmlns:sodipodi="http://sodipodi.sourceforge.net/DTD/sodipodi-0.dtd"
   xmlns:inkscape="http://www.inkscape.org/namespaces/inkscape"
   inkscape:version="1.0 (6e3e5246a0, 2020-05-07)"
   height="282.31198"
   width="276.51181"
   sodipodi:docname="feed.svg"
   id="svg909"
   version="1.1"
   viewBox="0 0 276.51181 282.31198">
  <metadata
     id="metadata915">
    <rdf:RDF>
      <cc:Work
         rdf:about="">
        <dc:format>image/svg+xml</dc:format>
        <dc:type
           rdf:resource="http://purl.org/dc/dcmitype/StillImage" />
        <dc:title></dc:title>
      </cc:Work>
    </rdf:RDF>
  </metadata>
  <defs
     id="defs913" />
  <sodipodi:namedview
     inkscape:current-layer="svg909"
     inkscape:window-maximized="1"
     inkscape:window-y="27"
     inkscape:window-x="57"
     inkscape:cy="533.45757"
     inkscape:cx="-1731.1091"
     inkscape:zoom="0.125"
     fit-margin-bottom="0"
     fit-margin-right="0"
     fit-margin-left="0"
     fit-margin-top="0"
     showgrid="false"
     id="namedview911"
     inkscape:window-height="1025"
     inkscape:window-width="1863"
     inkscape:pageshadow="2"
     inkscape:pageopacity="0"
     guidetolerance="10"
     gridtolerance="10"
     objecttolerance="10"
     borderopacity="1"
     bordercolor="#666666"
     pagecolor="#ffffff" />
  <path
     d="m 0.20613217,27.005312 c 0,-7.3 0.2,-14.700004 -0.1,-22.0000039 -0.2,-3.8 0.8,-5.10000004 4.90000003,-5.00000004 23.9999998,0.4 47.4999998,3.90000004 70.3999998,10.79999994 73.899998,22.200004 129.199998,67.800004 166.499998,135.000002 22.5,40.6 33.5,84.5 34.6,131 0.1,4.5 -1.1,5.6 -5.5,5.5 -14.3,-0.3 -28.7,-0.2 -43,0 -3.7,0.1 -4.7,-0.9 -4.8,-4.7 -1.6,-57.3 -21,-107.7 -59.5,-150.3 -32.9,-36.399998 -73.699998,-59.599998 -121.999998,-69.099998 -12.3,-2.4 -24.7,-4 -37.1999998,-3.9 -3.3,0 -4.30000003,-1 -4.20000003,-4.2 0,-7.8 -0.1,-15.5 -0.1,-23.1 z"
     fill="#f27025"
     id="path903" />
  <path
     d="m 155.50613,282.10531 c -7.3,0 -14.7,-0.2 -22,0.1 -3.6,0.1 -4.3,-1.2 -4.5,-4.5 -1.9,-42.4 -19.5,-76.9 -53.399998,-102.6 -20.8,-15.8 -44.4,-23.8 -70.3999998,-24.8 -4.1,-0.2 -5.20000003,-1.3 -5.20000003,-5.4 0.3,-14.7 0.2,-29.3 0,-44 -0.1,-3.899998 1.00000003,-5.099998 5.00000003,-4.899998 43.7999998,1.6 82.0999998,16.999998 114.7999978,45.999998 24,21.3 41.2,47.3 51.9,77.5 6.7,18.8 10.1,38.2 10.6,58.2 0.1,3.4 -0.8,4.7 -4.4,4.5 -7.4,-0.3 -14.9,-0.1 -22.4,-0.1 z"
     fill="#f27025"
     id="path905" />
  <path
     d="m 0.10613217,244.20531 c 0,-21 16.09999983,-37.2 36.79999983,-37.1 20.5,0.1 36.6,16.6 36.6,37.5 0,20.6 -16.7,37.5 -36.9,37.3 -20.5,-0.1 -36.49999983,-16.8 -36.49999983,-37.7 z"
     fill="#f27025"
     id="path907" />
</svg>
