<?xml version="1.0" encoding="UTF-8" standalone="no"?>
<!-- Generator: Adobe Illustrator 16.0.3, SVG Export Plug-In . SVG Version: 6.00 Build 0)  -->

<svg
   xmlns:dc="http://purl.org/dc/elements/1.1/"
   xmlns:cc="http://creativecommons.org/ns#"
   xmlns:rdf="http://www.w3.org/1999/02/22-rdf-syntax-ns#"
   xmlns:svg="http://www.w3.org/2000/svg"
   xmlns="http://www.w3.org/2000/svg"
   xmlns:sodipodi="http://sodipodi.sourceforge.net/DTD/sodipodi-0.dtd"
   xmlns:inkscape="http://www.inkscape.org/namespaces/inkscape"
   version="1.2"
   id="Layer_1"
   x="0px"
   y="0px"
   width="198.56442"
   height="17.406593"
   viewBox="0 0 198.56442 17.406593"
   xml:space="preserve"
   sodipodi:docname="logo.svg"
   inkscape:version="0.92.4 5da689c313, 2019-01-14"><metadata
   id="metadata1892"><rdf:RDF><cc:Work
       rdf:about=""><dc:format>image/svg+xml</dc:format><dc:type
         rdf:resource="http://purl.org/dc/dcmitype/StillImage" /><dc:title></dc:title></cc:Work></rdf:RDF></metadata><defs
   id="defs1890" /><sodipodi:namedview
   pagecolor="#ffffff"
   bordercolor="#666666"
   borderopacity="1"
   objecttolerance="10"
   gridtolerance="10"
   guidetolerance="10"
   inkscape:pageopacity="0"
   inkscape:pageshadow="2"
   inkscape:window-width="1920"
   inkscape:window-height="1034"
   id="namedview1888"
   showgrid="false"
   inkscape:zoom="5.6568542"
   inkscape:cx="83.006294"
   inkscape:cy="10.275801"
   inkscape:window-x="0"
   inkscape:window-y="22"
   inkscape:window-maximized="0"
   inkscape:current-layer="Layer_1"
   fit-margin-top="0"
   fit-margin-left="0"
   fit-margin-right="0"
   fit-margin-bottom="0" />
<g
   id="g1885"
   style="fill:#111111;fill-opacity:1"
   transform="matrix(0.24129575,0,0,0.24129575,-1.2064787,-0.94853359)">
	<g
   id="g1867"
   style="fill:#111111;fill-opacity:1">
		<g
   id="g1861"
   style="fill:#111111;fill-opacity:1">
			<path
   d="m 66.252,21.469 c 4.404,5.71 8.056,12.124 10.886,19.04 V 3.931 H 46.077 c 7.472,4.037 14.317,9.943 20.175,17.538 z"
   id="path1859"
   style="fill:#111111;fill-opacity:1;fill-rule:evenodd"
   inkscape:connector-curvature="0" />
		</g>
		<g
   id="g1865"
   style="fill:#111111;fill-opacity:1">
			<path
   d="M 21.473,7.828 C 15.719,7.828 10.184,9.058 5,11.334 V 76.069 H 73.963 C 73.429,38.315 50.088,7.828 21.473,7.828"
   id="path1863"
   style="fill:#111111;fill-opacity:1;fill-rule:evenodd"
   inkscape:connector-curvature="0" />
		</g>
	</g>
	<g
   id="g1883"
   style="fill:#111111;fill-opacity:1">
		<path
   d="m 118.349,64.918 38.533,-46.65 H 119.56 V 8.098 h 52.25 v 8.49 l -38.533,46.651 h 38.533 v 10.169 h -53.461 z"
   id="path1869"
   style="fill:#111111;fill-opacity:1"
   inkscape:connector-curvature="0" />
		<path
   d="m 186.177,8.098 h 48.331 V 18.454 H 197.56 v 16.794 h 32.751 V 45.605 H 197.56 v 17.446 h 37.413 v 10.356 h -48.796 z"
   id="path1871"
   style="fill:#111111;fill-opacity:1"
   inkscape:connector-curvature="0" />
		<path
   d="m 248.689,8.098 h 29.11 c 4.105,0 7.744,0.576 10.917,1.726 3.171,1.151 5.814,2.752 7.93,4.805 1.741,1.805 3.08,3.888 4.013,6.251 0.933,2.364 1.398,4.977 1.398,7.837 v 0.187 c 0,2.675 -0.388,5.085 -1.165,7.231 -0.779,2.146 -1.853,4.044 -3.22,5.691 -1.369,1.648 -3.001,3.049 -4.898,4.198 -1.897,1.152 -3.997,2.038 -6.297,2.659 L 304.11,73.408 H 290.581 L 274.484,50.643 h -0.186 -14.227 V 73.408 H 248.688 V 8.098 Z m 28.231,32.375 c 4.115,0 7.393,-0.982 9.824,-2.951 2.434,-1.968 3.652,-4.639 3.652,-8.012 v -0.187 c 0,-3.56 -1.188,-6.263 -3.559,-8.106 -2.369,-1.842 -5.709,-2.764 -10.014,-2.764 h -16.752 v 22.019 h 16.849 z"
   id="path1873"
   style="fill:#111111;fill-opacity:1"
   inkscape:connector-curvature="0" />
		<path
   d="m 347.309,74.528 c -5.039,0 -9.641,-0.886 -13.807,-2.658 -4.168,-1.772 -7.744,-4.182 -10.73,-7.232 -2.986,-3.047 -5.318,-6.607 -6.996,-10.682 -1.682,-4.073 -2.521,-8.413 -2.521,-13.016 v -0.187 c 0,-4.603 0.84,-8.941 2.521,-13.016 1.678,-4.073 4.041,-7.651 7.09,-10.73 3.045,-3.079 6.654,-5.52 10.824,-7.324 4.166,-1.803 8.768,-2.706 13.807,-2.706 5.037,0 9.641,0.886 13.809,2.659 4.166,1.772 7.744,4.184 10.73,7.231 2.984,3.048 5.316,6.609 6.996,10.683 1.682,4.074 2.521,8.413 2.521,13.015 v 0.187 c 0,4.604 -0.84,8.943 -2.521,13.015 -1.68,4.075 -4.043,7.651 -7.09,10.73 -3.049,3.078 -6.656,5.521 -10.824,7.324 -4.168,1.803 -8.77,2.707 -13.809,2.707 z m 0.187,-10.543 c 3.221,0 6.178,-0.606 8.871,-1.819 2.695,-1.214 5.002,-2.86 6.922,-4.944 1.918,-2.084 3.422,-4.526 4.506,-7.325 1.084,-2.799 1.625,-5.785 1.625,-8.956 v -0.187 c 0,-3.172 -0.541,-6.173 -1.625,-9.004 -1.084,-2.83 -2.604,-5.286 -4.553,-7.37 -1.951,-2.083 -4.289,-3.747 -7.016,-4.992 -2.725,-1.244 -5.697,-1.866 -8.918,-1.866 -3.221,0 -6.178,0.606 -8.871,1.819 -2.695,1.213 -5.002,2.862 -6.922,4.945 -1.92,2.085 -3.422,4.525 -4.508,7.324 -1.084,2.799 -1.625,5.785 -1.625,8.957 v 0.187 c 0,3.172 0.541,6.173 1.625,9.002 1.086,2.833 2.604,5.289 4.555,7.372 1.951,2.085 4.289,3.748 7.014,4.991 2.727,1.244 5.699,1.866 8.92,1.866 z"
   id="path1875"
   style="fill:#111111;fill-opacity:1"
   inkscape:connector-curvature="0" />
		<path
   d="m 395.451,8.098 h 24.354 c 5.1,0 9.779,0.825 14.043,2.473 4.26,1.648 7.928,3.934 11.008,6.857 3.08,2.924 5.457,6.361 7.139,10.311 1.68,3.95 2.52,8.227 2.52,12.829 v 0.187 c 0,4.604 -0.84,8.896 -2.52,12.875 -1.682,3.98 -4.059,7.435 -7.139,10.356 -3.08,2.926 -6.748,5.226 -11.008,6.904 -4.264,1.68 -8.943,2.519 -14.043,2.519 h -24.354 z m 24.26,54.954 c 3.42,0 6.531,-0.545 9.33,-1.639 2.799,-1.094 5.18,-2.622 7.137,-4.589 1.959,-1.969 3.482,-4.312 4.572,-7.03 1.088,-2.717 1.635,-5.667 1.635,-8.854 v -0.187 c 0,-3.186 -0.547,-6.152 -1.635,-8.9 -1.09,-2.749 -2.613,-5.106 -4.572,-7.074 -1.957,-1.969 -4.338,-3.514 -7.137,-4.639 -2.799,-1.124 -5.91,-1.687 -9.33,-1.687 h -12.877 v 44.598 h 12.877 z"
   id="path1877"
   style="fill:#111111;fill-opacity:1"
   inkscape:connector-curvature="0" />
		<path
   d="m 468.414,8.098 h 11.383 v 27.151 h 31.352 V 8.098 h 11.383 V 73.409 H 511.149 V 45.885 h -31.352 v 27.523 h -11.383 z"
   id="path1879"
   style="fill:#111111;fill-opacity:1"
   inkscape:connector-curvature="0" />
		<path
   d="M 562.463,7.631 H 573.1 l 28.736,65.777 H 589.707 L 583.082,57.64 h -30.883 l -6.719,15.768 h -11.756 z m 16.422,39.841 -11.291,-26.125 -11.197,26.125 z"
   id="path1881"
   style="fill:#111111;fill-opacity:1"
   inkscape:connector-curvature="0" />
	</g>
</g>
<g
   aria-label=" .tech"
   style="font-style:normal;font-weight:normal;font-size:22.72784805px;line-height:1.25;font-family:sans-serif;letter-spacing:0px;word-spacing:0px;fill:#111111;fill-opacity:1;stroke:none;stroke-width:0.56819618"
   id="text1896"><path
     d="m 148.69402,16.809566 c 0.87974,0 1.6142,-0.718316 1.6142,-1.614194 0,-0.879735 -0.73446,-1.606123 -1.6142,-1.606123 -0.8878,0 -1.61419,0.726388 -1.61419,1.606123 0,0.895878 0.72639,1.614194 1.61419,1.614194 z"
     style="font-style:normal;font-variant:normal;font-weight:500;font-stretch:normal;font-family:Inter;-inkscape-font-specification:'Inter Medium';fill:#111111;fill-opacity:1;stroke-width:0.56819618"
     id="path873" /><path
     d="m 159.32345,4.2592095 h -2.54236 V 1.289093 h -2.41322 v 2.9701165 h -1.81596 v 1.9370326 h 1.81596 v 7.3203689 c -0.008,2.2518 1.71105,3.341381 3.6158,3.301026 0.76674,-0.0081 1.28328,-0.153348 1.56577,-0.258271 l -0.43584,-1.993529 c -0.16142,0.03228 -0.46004,0.104922 -0.84745,0.104922 -0.78288,0 -1.48506,-0.258271 -1.48506,-1.654548 V 6.1962421 h 2.54236 z"
     style="font-style:normal;font-variant:normal;font-weight:500;font-stretch:normal;font-family:Inter;-inkscape-font-specification:'Inter Medium';fill:#111111;fill-opacity:1;stroke-width:0.56819618"
     id="path875" /><path
     d="m 167.20069,16.906418 c 2.70378,0 4.6166,-1.33171 5.16542,-3.349452 l -2.28408,-0.41162 c -0.43583,1.170291 -1.48506,1.767542 -2.85712,1.767542 -2.06617,0 -3.45438,-1.33978 -3.51895,-3.728787 h 8.8135 v -0.855523 c 0,-4.4793876 -2.67956,-6.2307878 -5.48826,-6.2307878 -3.45437,0 -5.73039,2.6311358 -5.73039,6.4406328 0,3.849852 2.24373,6.367995 5.89988,6.367995 z m -3.48666,-7.5302143 c 0.0969,-1.7594711 1.37207,-3.2848842 3.33331,-3.2848842 1.87247,0 3.09926,1.3882066 3.10733,3.2848842 z"
     style="font-style:normal;font-variant:normal;font-weight:500;font-stretch:normal;font-family:Inter;-inkscape-font-specification:'Inter Medium';fill:#111111;fill-opacity:1;stroke-width:0.56819618"
     id="path877" /><path
     d="m 180.42898,16.906418 c 2.92976,0 4.82644,-1.759472 5.09278,-4.172691 h -2.34865 c -0.3067,1.339781 -1.34785,2.130736 -2.72799,2.130736 -2.04195,0 -3.35752,-1.702975 -3.35752,-4.406749 0,-2.6553492 1.33978,-4.3260397 3.35752,-4.3260397 1.53349,0 2.46972,0.9685163 2.72799,2.1307358 h 2.34865 c -0.25827,-2.5020004 -2.30022,-4.1646199 -5.11699,-4.1646199 -3.49473,0 -5.7546,2.6311358 -5.7546,6.4164198 0,3.736859 2.17916,6.392208 5.77881,6.392208 z"
     style="font-style:normal;font-variant:normal;font-weight:500;font-stretch:normal;font-family:Inter;-inkscape-font-specification:'Inter Medium';fill:#111111;fill-opacity:1;stroke-width:0.56819618"
     id="path879" /><path
     d="m 190.52573,9.2954941 c 0,-1.9773874 1.251,-3.107323 2.97012,-3.107323 1.66262,0 2.65535,1.0572969 2.65535,2.8732649 v 7.594782 h 2.41322 V 8.7708811 c 0,-3.0911811 -1.69491,-4.6730909 -4.24533,-4.6730909 -1.92897,0 -3.09119,0.8393807 -3.6723,2.1791615 h -0.15334 V 0.12687354 h -2.38094 V 16.656218 h 2.41322 z"
     style="font-style:normal;font-variant:normal;font-weight:500;font-stretch:normal;font-family:Inter;-inkscape-font-specification:'Inter Medium';fill:#111111;fill-opacity:1;stroke-width:0.56819618"
     id="path881" /></g>
</svg>