<svg width="354" height="67" viewBox="-10 -10 354 67" fill="none" xmlns="http://www.w3.org/2000/svg">
    <!-- Background for better visibility on dark themes -->
    <rect x="-10" y="-10" width="354" height="67" rx="8" ry="8" fill="white" fill-opacity="0.95"
        stroke="#e0e0e0" stroke-width="0.5" />
    <path
        d="M13.1202 15.302C15.4762 12.7807 18.5349 11.52 22.2962 11.52C26.7189 11.52 30.1289 12.9667 32.5262 15.86C34.9236 18.712 36.1222 22.9487 36.1222 28.57C36.1222 34.2327 34.9236 38.5107 32.5262 41.404C30.1289 44.2973 26.7189 45.744 22.2962 45.744C17.7496 45.744 14.2776 43.946 11.8802 40.35L10.8262 45H0.782227V0.0499878H13.1202V15.302ZM18.4522 20.634C16.6336 20.634 15.2696 21.2953 14.3602 22.618C13.4509 23.8993 12.9962 25.5733 12.9962 27.64V29.686C12.9962 31.7527 13.4509 33.4267 14.3602 34.708C15.2696 35.9893 16.6336 36.63 18.4522 36.63C22.0069 36.63 23.7842 34.522 23.7842 30.306V27.02C23.7842 22.7627 22.0069 20.634 18.4522 20.634Z"
        fill="#424242" />
    <path d="M40.6477 45V0.0499878H52.9857V45H40.6477Z" fill="#424242" />
    <path
        d="M75.9262 11.52C81.6716 11.52 86.1769 12.9873 89.4422 15.922C92.7489 18.8153 94.4022 23.052 94.4022 28.632C94.4022 34.212 92.7489 38.4693 89.4422 41.404C86.1769 44.2973 81.6716 45.744 75.9262 45.744C70.1809 45.744 65.6756 44.2973 62.4102 41.404C59.1449 38.5107 57.5122 34.2533 57.5122 28.632C57.5122 23.0107 59.1449 18.7533 62.4102 15.86C65.6756 12.9667 70.1809 11.52 75.9262 11.52ZM75.9262 19.89C71.8756 19.89 69.8502 22.2253 69.8502 26.896V30.43C69.8502 35.0593 71.8756 37.374 75.9262 37.374C80.0182 37.374 82.0642 35.0593 82.0642 30.43V26.896C82.0642 22.2253 80.0182 19.89 75.9262 19.89Z"
        fill="#424242" />
    <path
        d="M110.894 15.302C113.25 12.7807 116.308 11.52 120.07 11.52C124.492 11.52 127.902 12.9667 130.3 15.86C132.697 18.712 133.896 22.9487 133.896 28.57C133.896 34.2327 132.697 38.5107 130.3 41.404C127.902 44.2973 124.492 45.744 120.07 45.744C115.523 45.744 112.051 43.946 109.654 40.35L108.6 45H98.5557V22.525V0.0499878H110.894V15.302ZM116.226 20.634C114.407 20.634 113.043 21.2953 112.134 22.618C111.224 23.8993 110.77 25.5733 110.77 27.64V29.686C110.77 31.7527 111.224 33.4267 112.134 34.708C113.043 35.9893 114.407 36.63 116.226 36.63C119.78 36.63 121.558 34.522 121.558 30.306V27.02C121.558 22.7627 119.78 20.634 116.226 20.634Z"
        fill="#424242" />
    <path
        d="M154.169 11.52C159.171 11.52 163.242 12.3673 166.383 14.062C169.525 15.7153 171.095 18.4227 171.095 22.184V34.956C171.095 35.6587 171.261 36.2373 171.591 36.692C171.922 37.1467 172.418 37.374 173.079 37.374H175.311V44.504C175.187 44.5867 174.857 44.7313 174.319 44.938C173.823 45.1033 173.1 45.2687 172.149 45.434C171.199 45.6407 170.103 45.744 168.863 45.744C166.466 45.744 164.482 45.3927 162.911 44.69C161.382 43.946 160.328 42.9333 159.749 41.652C158.179 42.892 156.422 43.884 154.479 44.628C152.537 45.372 150.263 45.744 147.659 45.744C139.971 45.744 136.127 42.6853 136.127 36.568C136.127 33.3853 136.975 30.9673 138.669 29.314C140.405 27.6193 142.885 26.462 146.109 25.842C149.333 25.222 153.549 24.912 158.757 24.912V23.3C158.757 22.0187 158.303 21.0473 157.393 20.386C156.525 19.7247 155.389 19.394 153.983 19.394C152.702 19.394 151.586 19.6213 150.635 20.076C149.726 20.5307 149.271 21.254 149.271 22.246V22.494H137.119C137.078 22.2873 137.057 21.998 137.057 21.626C137.057 18.526 138.525 16.0667 141.459 14.248C144.435 12.4293 148.672 11.52 154.169 11.52ZM158.757 30.74C155.244 30.74 152.64 31.1327 150.945 31.918C149.292 32.662 148.465 33.6747 148.465 34.956C148.465 37.0227 149.871 38.056 152.681 38.056C154.293 38.056 155.699 37.622 156.897 36.754C158.137 35.886 158.757 34.8113 158.757 33.53V30.74Z"
        fill="#424242" />
    <path
        d="M193.043 11.52C197.424 11.52 201.123 12.388 204.141 14.124C207.199 15.8187 208.729 18.464 208.729 22.06H197.259C197.259 20.8613 196.721 20.014 195.647 19.518C194.903 19.1047 193.973 18.898 192.857 18.898C189.881 18.898 188.393 19.6007 188.393 21.006C188.393 21.7913 188.909 22.3493 189.943 22.68C190.976 23.0107 192.671 23.362 195.027 23.734C197.92 24.1473 200.338 24.6433 202.281 25.222C204.223 25.7593 205.918 26.7513 207.365 28.198C208.811 29.6033 209.535 31.5873 209.535 34.15C209.535 38.3247 207.964 41.3007 204.823 43.078C201.723 44.8553 197.651 45.744 192.609 45.744C189.715 45.744 186.987 45.3513 184.425 44.566C181.862 43.7393 179.775 42.4787 178.163 40.784C176.551 39.0893 175.745 36.94 175.745 34.336H187.215V34.584C187.256 35.9893 187.835 36.9813 188.951 37.56C190.108 38.0973 191.327 38.366 192.609 38.366C196.039 38.366 197.755 37.56 197.755 35.948C197.755 35.1213 197.217 34.522 196.143 34.15C195.068 33.778 193.311 33.3853 190.873 32.972C187.938 32.476 185.52 31.9387 183.619 31.36C181.759 30.7813 180.126 29.81 178.721 28.446C177.315 27.0407 176.613 25.098 176.613 22.618C176.613 18.6087 178.121 15.7567 181.139 14.062C184.197 12.3673 188.165 11.52 193.043 11.52Z"
        fill="#424242" />
    <path
        d="M229.705 11.52C234.706 11.52 238.778 12.3673 241.919 14.062C245.06 15.7153 246.631 18.4227 246.631 22.184V34.956C246.631 35.6587 246.796 36.2373 247.127 36.692C247.458 37.1467 247.954 37.374 248.615 37.374H250.847V44.504C250.723 44.5867 250.392 44.7313 249.855 44.938C249.359 45.1033 248.636 45.2687 247.685 45.434C246.734 45.6407 245.639 45.744 244.399 45.744C242.002 45.744 240.018 45.3927 238.447 44.69C236.918 43.946 235.864 42.9333 235.285 41.652C233.714 42.892 231.958 43.884 230.015 44.628C228.072 45.372 225.799 45.744 223.195 45.744C215.507 45.744 211.663 42.6853 211.663 36.568C211.663 33.3853 212.51 30.9673 214.205 29.314C215.941 27.6193 218.421 26.462 221.645 25.842C224.869 25.222 229.085 24.912 234.293 24.912V23.3C234.293 22.0187 233.838 21.0473 232.929 20.386C232.061 19.7247 230.924 19.394 229.519 19.394C228.238 19.394 227.122 19.6213 226.171 20.076C225.262 20.5307 224.807 21.254 224.807 22.246V22.494H212.655C212.614 22.2873 212.593 21.998 212.593 21.626C212.593 18.526 214.06 16.0667 216.995 14.248C219.971 12.4293 224.208 11.52 229.705 11.52ZM234.293 30.74C230.78 30.74 228.176 31.1327 226.481 31.918C224.828 32.662 224.001 33.6747 224.001 34.956C224.001 37.0227 225.406 38.056 228.217 38.056C229.829 38.056 231.234 37.622 232.433 36.754C233.673 35.886 234.293 34.8113 234.293 33.53V30.74Z"
        fill="#424242" />
    <path
        d="M276.763 45L275.957 40.04C274.675 41.8173 272.981 43.2227 270.873 44.256C268.806 45.248 266.615 45.744 264.301 45.744C260.498 45.744 257.646 44.69 255.745 42.582C253.843 40.474 252.893 37.436 252.893 33.468V12.264H265.231V31.98C265.231 33.3853 265.582 34.522 266.285 35.39C267.029 36.2167 268.062 36.63 269.385 36.63C270.914 36.63 272.154 36.134 273.105 35.142C274.055 34.15 274.531 32.9307 274.531 31.484V12.264H286.869V45H276.763Z"
        fill="#424242" />
    <path
        d="M311 16C311 17.1046 310.105 18 309 18C307.895 18 307 17.1046 307 16C307 14.8954 307.895 14 309 14C310.105 14 311 14.8954 311 16Z"
        fill="#424242" />
    <path
        d="M310 16C310 15.4477 309.552 15 309 15C308.448 15 308 15.4477 308 16C308 16.5523 308.448 17 309 17V18C307.895 18 307 17.1046 307 16C307 14.8954 307.895 14 309 14C310.105 14 311 14.8954 311 16C311 17.1046 310.105 18 309 18V17C309.552 17 310 16.5523 310 16Z"
        fill="#424242" />
    <path
        d="M291 2.67258V45.0278H303.5V10.0278C308.333 9.19448 319.5 10.5206 320 18.0278C320.533 26.0257 311.333 26.5278 307.5 26.0278L317 46.0206H332.5L322.5 28.0206C328.9 25.2206 330.5 21.0278 330.5 16.0278C330.5 3.0278 314 2.67258 307.5 2.67258H291Z"
        fill="#219647" stroke="#219647" />
</svg>