<?xml version="1.0" encoding="UTF-8" standalone="no"?>
<svg
   width="262.38354"
   height="55.227802"
   viewBox="0 0 69.42243 14.612476"
   version="1.1"
   id="svg2009"
   sodipodi:docname="logo.svg"
   inkscape:version="1.2.2 (b0a8486541, 2022-12-01)"
   xmlns:inkscape="http://www.inkscape.org/namespaces/inkscape"
   xmlns:sodipodi="http://sodipodi.sourceforge.net/DTD/sodipodi-0.dtd"
   xmlns:xlink="http://www.w3.org/1999/xlink"
   xmlns="http://www.w3.org/2000/svg"
   xmlns:svg="http://www.w3.org/2000/svg">
  <sodipodi:namedview
     id="namedview2011"
     pagecolor="#ffffff"
     bordercolor="#666666"
     borderopacity="1.0"
     inkscape:showpageshadow="2"
     inkscape:pageopacity="0.0"
     inkscape:pagecheckerboard="0"
     inkscape:deskcolor="#d1d1d1"
     showgrid="false"
     inkscape:zoom="1"
     inkscape:cx="102"
     inkscape:cy="29.5"
     inkscape:window-width="2560"
     inkscape:window-height="1367"
     inkscape:window-x="0"
     inkscape:window-y="0"
     inkscape:window-maximized="1"
     inkscape:current-layer="svg2009" />
  <path
     d="m 20.942774,10.499476 c 2.003,0 3.393,-1.265 3.393,-3.192 0,-1.927 -1.39,-3.202 -3.393,-3.202 h -2.521 v 6.394 z m 0,-1.198 h -1.16 v -3.998 h 1.16 c 1.313,0 2.003,0.872 2.003,2.003 0,1.083 -0.738,1.994 -2.003,1.994 z m 8.675,1.198 v -4.63 h -1.217 v 3.135 c -0.211,0.268 -0.585,0.527 -1.054,0.527 -0.518,0 -0.853,-0.211 -0.853,-0.853 v -2.809 h -1.217 v 3.288 c 0,0.901 0.479,1.457 1.495,1.457 0.757,0 1.313,-0.345 1.63,-0.7 v 0.585 z m 5.551,0 v -3.269 c 0,-0.901 -0.489,-1.476 -1.505,-1.476 -0.757,0 -1.323,0.364 -1.62,0.719 v -0.604 h -1.217 v 4.63 h 1.217 v -3.116 a 1.32,1.32 0 0 1 1.054,-0.546 c 0.518,0 0.853,0.22 0.853,0.863 v 2.799 z m 3.106,1.879 c 1.141,0 2.502,-0.431 2.502,-2.195 v -4.314 h -1.227 v 0.594 a 1.78,1.78 0 0 0 -1.428,-0.709 c -1.169,0 -2.042,0.844 -2.042,2.358 0,1.543 0.882,2.358 2.042,2.358 0.566,0 1.064,-0.268 1.428,-0.729 v 0.47 c 0,0.911 -0.69,1.169 -1.275,1.169 -0.585,0 -1.074,-0.163 -1.447,-0.575 l -0.546,0.882 c 0.585,0.508 1.198,0.69 1.994,0.69 z m 0.23,-2.991 c -0.69,0 -1.169,-0.479 -1.169,-1.275 0,-0.796 0.479,-1.275 1.169,-1.275 0.403,0 0.844,0.22 1.045,0.527 v 1.495 a 1.35,1.35 0 0 1 -1.045,0.527 z m 6.978,1.112 c 1.217,0 1.86,-0.767 1.86,-1.725 0,-0.805 -0.546,-1.467 -1.227,-1.572 0.604,-0.125 1.102,-0.661 1.102,-1.467 0,-0.853 -0.623,-1.63 -1.841,-1.63 h -3.365 v 6.394 z m -0.403,-3.834 h -1.706 v -1.39 h 1.706 c 0.46,0 0.748,0.297 0.748,0.7 0,0.403 -0.288,0.69 -0.748,0.69 z m 0.048,2.655 h -1.754 v -1.486 h 1.754 c 0.537,0 0.824,0.345 0.824,0.748 0,0.46 -0.307,0.738 -0.824,0.738 z m 5.388,1.294 c 0.719,0 1.448,-0.22 1.908,-0.642 l -0.537,-0.786 c -0.297,0.288 -0.844,0.46 -1.237,0.46 -0.786,0 -1.256,-0.489 -1.332,-1.074 h 3.441 v -0.268 c 0,-1.515 -0.939,-2.55 -2.32,-2.55 -1.409,0 -2.397,1.083 -2.397,2.425 0,1.486 1.064,2.435 2.473,2.435 z m 1.064,-2.866 h -2.281 c 0.058,-0.46 0.383,-1.026 1.141,-1.026 a 1.07,1.07 0 0 1 1.141,1.026 z m 4.237,2.866 c 0.719,0 1.447,-0.22 1.908,-0.642 l -0.537,-0.786 c -0.297,0.288 -0.844,0.46 -1.237,0.46 -0.786,0 -1.256,-0.489 -1.332,-1.074 h 3.441 v -0.268 c 0,-1.515 -0.939,-2.55 -2.32,-2.55 -1.409,0 -2.397,1.083 -2.397,2.425 0,1.486 1.064,2.435 2.473,2.435 z m 1.064,-2.866 h -2.281 c 0.058,-0.46 0.383,-1.026 1.141,-1.026 a 1.07,1.07 0 0 1 1.141,1.026 z m 3.614,2.866 c 0.508,0 0.834,-0.134 1.016,-0.297 l -0.259,-0.92 c -0.067,0.067 -0.24,0.134 -0.422,0.134 -0.268,0 -0.422,-0.22 -0.422,-0.508 v -2.09 h 0.939 v -1.064 h -0.939 v -1.266 h -1.227 v 1.266 h -0.767 v 1.064 h 0.767 v 2.416 c 0,0.824 0.46,1.265 1.313,1.265 z m 2.905,-0.115 v -6.394 h -1.217 v 6.394 z m 3.383,0.115 c 0.719,0 1.447,-0.22 1.908,-0.642 l -0.537,-0.786 c -0.297,0.288 -0.844,0.46 -1.237,0.46 -0.786,0 -1.256,-0.489 -1.332,-1.074 h 3.441 v -0.268 c 0,-1.515 -0.939,-2.55 -2.32,-2.55 -1.409,0 -2.397,1.083 -2.397,2.425 0,1.486 1.064,2.435 2.473,2.435 z m 1.064,-2.866 h -2.281 c 0.058,-0.46 0.383,-1.026 1.141,-1.026 a 1.07,1.07 0 0 1 1.141,1.026 z"
     fill="#1a1a1a"
     id="path1974"
     style="stroke:#ffffff;stroke-width:0.793757;stroke-dasharray:none;paint-order:stroke fill markers" />
  <g
     stroke="null"
     stroke-linejoin="round"
     id="g2004"
     transform="translate(-2.2575021e-4,-5.2396957e-4)">
    <path
       d="m 13.958,7.547 c 10e-4,3.683 -3.035,6.669 -6.781,6.669 -3.746,0 -6.782,-2.987 -6.78,-6.669 0.002,-3.682 3.035,-6.669 6.78,-6.669 3.745,0 6.782,2.986 6.781,6.669 z"
       fill="#c87137"
       stroke="#000000"
       stroke-width="0.794"
       id="path1976" />
    <g
       stroke-width="0.529"
       id="g1988">
      <path
         d="m 13.548,5.259 0.008,0.31 c 0,3.68 -3.037,6.666 -6.78,6.666 -2.926,0 -5.422,-1.826 -6.372,-4.38 0.164,3.537 3.137,6.358 6.775,6.358 3.743,0 6.78,-2.986 6.78,-6.666 a 6.55,6.55 0 0 0 -0.41,-2.288 z"
         fill-opacity="0.314"
         id="path1978" />
      <g
         stroke="#000000"
         id="g1984">
        <path
           fill="#deaa87"
           d="M 0.491,6.569 13.841,6.311 C 13.572,4.927 12.903,0.787 6.867,0.908 1.358,1.03 0.615,6.021 0.491,6.569 Z"
           id="path1980" />
        <path
           fill="none"
           stroke-linecap="round"
           d="M 6.867,6.477 6.908,0.955"
           id="path1982" />
      </g>
      <path
         d="m 12.365,6.18 c 0,2.749 -3.412,4.981 -5.066,4.981 -1.592,0 -5.066,-2.231 -5.066,-4.981 0,-2.75 1.524,-4.981 5.066,-4.981 3.542,0 5.066,2.231 5.066,4.981 z"
         fill-opacity="0.314"
         id="path1986" />
    </g>
    <g
       stroke="#000000"
       id="g1998">
      <path
         d="M 6.961,0.398 C 5.096,0.435 3.808,1.107 3.022,2.148 A 3.06,3.06 0 0 0 2.554,2.977 C 2.43,3.19 2.362,3.461 2.279,3.679 2.13,4.209 2.058,4.781 2.058,5.377 c 0,2.749 3.474,4.981 5.066,4.981 1.654,0 5.066,-2.232 5.066,-4.981 0,-0.596 -0.072,-1.168 -0.221,-1.698 C 11.918,3.43 11.816,3.221 11.692,2.886 11.537,2.551 11.353,2.356 11.226,2.148 10.42,1.076 9.08,0.398 7.125,0.398 c -0.055,0 -0.11,-0.001 -0.164,0 z"
         fill="#c87137"
         stroke-width="0.794"
         id="path1990" />
      <g
         stroke-width="0.529"
         fill="#ffffff"
         id="g1996">
        <use
           xlink:href="#B"
           id="use1992" />
        <use
           xlink:href="#B"
           x="3.2639999"
           id="use1994" />
      </g>
    </g>
    <path
       d="m 8.918,4.891 c 0,0.254 -0.209,0.46 -0.468,0.46 -0.259,0 -0.468,-0.206 -0.468,-0.46 0,-0.254 0.209,-0.46 0.468,-0.46 0.259,0 0.468,0.206 0.468,0.46 z m -2.602,0 c 0,0.254 -0.209,0.46 -0.468,0.46 -0.259,0 -0.468,-0.206 -0.468,-0.46 0,-0.254 0.209,-0.46 0.468,-0.46 0.259,0 0.468,0.206 0.468,0.46 z"
       stroke-width="0.529"
       id="path2000" />
    <path
       d="m 11.989,3.745 -0.116,0.162 0.021,0.571 c 0,2.749 -3.413,4.981 -5.066,4.981 -1.282,0 -3.782,-1.446 -4.708,-3.444 0.471,2.449 3.539,4.344 5.006,4.344 1.654,0 5.066,-2.232 5.066,-4.981 A 6.33,6.33 0 0 0 11.989,3.746 Z"
       fill-opacity="0.314"
       stroke-width="0.529"
       id="path2002" />
  </g>
  <defs
     id="defs2007">
    <path
       id="B"
       d="m 6.901,4.647 c 0,0.762 -0.628,1.38 -1.403,1.38 -0.775,0 -1.403,-0.618 -1.403,-1.38 0,-0.762 0.628,-1.38 1.403,-1.38 0.775,0 1.403,0.618 1.403,1.38 z" />
  </defs>
</svg>
