<?xml version="1.0" encoding="UTF-8"?>
<svg version="1.1" xmlns="http://www.w3.org/2000/svg" width="206" height="272">
<path d="M0 0 C3.85498894 2.83639534 3.85498894 2.83639534 8.41015625 3.0625 C12.4530352 0.29631967 15.93418732 -2.40208783 18.84765625 -6.375 C20.78515625 -8.5625 20.78515625 -8.5625 23.41015625 -9 C25.78515625 -8.5625 25.78515625 -8.5625 27.78515625 -6.5625 C27.78515625 -0.99604464 26.13516786 1.88751772 22.4765625 5.79296875 C15.64263844 12.4375 15.64263844 12.4375 12.78515625 12.4375 C13.50832031 13.81421875 13.50832031 13.81421875 14.24609375 15.21875 C21.2203917 28.66800159 24.52806204 41.31668419 20.22265625 56.375 C19.56278535 58.9566081 19.56278535 58.9566081 19.78515625 61.4375 C21.62782877 64.02094539 23.72589992 65.86043205 26.12890625 67.9296875 C37.28068433 78.45827798 43.43717463 94.31304556 44.12109375 109.4453125 C44.49783462 130.62470165 39.85174609 146.34637645 25.08398438 162.17602539 C20.01755215 167.40319914 14.31696787 173.17159419 7.78515625 176.4375 C8.07519531 177.38109375 8.07519531 177.38109375 8.37109375 178.34375 C8.91411962 180.12874593 9.44743007 181.91671702 9.97265625 183.70703125 C10.46429744 185.3592293 10.97875551 187.00518951 11.53515625 188.63671875 C12.7096633 192.37311932 12.8136008 194.34426509 11.66015625 198.125 C8.09898871 204.416396 4.71249155 208.13672438 -2.21484375 210.4375 C-5.71978216 210.88022906 -8.98170178 211.05407099 -12.21484375 209.4375 C-12.15296875 210.406875 -12.09109375 211.37625 -12.02734375 212.375 C-12.08816998 219.91745281 -14.84110272 226.17238214 -19.9921875 231.640625 C-25.06326767 235.74026802 -31.72415076 238.56868581 -38.27734375 239 C-41.21484375 238.4375 -41.21484375 238.4375 -42.58984375 236.5 C-43.98447918 234.25154209 -43.98447918 234.25154209 -46.14453125 234.125 C-46.91023438 234.08375 -47.6759375 234.0425 -48.46484375 234 C-53.54116238 233.62030787 -56.68730292 232.12080237 -60.21484375 228.4375 C-64.24493306 222.92521979 -64.94092323 217.1211607 -65.21484375 210.4375 C-66.20484375 210.7675 -67.19484375 211.0975 -68.21484375 211.4375 C-73.876394 211.98187983 -77.76991737 210.93648095 -82.21484375 207.4375 C-86.50909596 203.19149782 -88.94059018 200.04290888 -89.58984375 193.875 C-89.57228636 189.13450493 -87.60114655 185.69326357 -85.30859375 181.63671875 C-83.99219168 179.39917473 -83.99219168 179.39917473 -84.21484375 176.4375 C-86.36538803 174.56169644 -86.36538803 174.56169644 -89.15234375 172.75 C-106.10019547 160.77149276 -117.03924082 146.01205026 -120.7109375 125.26171875 C-123.2202063 106.21850826 -118.98822031 88.98676014 -108.0546875 73.34765625 C-105.01555965 69.47915893 -101.84446848 65.76715574 -98.21484375 62.4375 C-97.55484375 62.4375 -96.89484375 62.4375 -96.21484375 62.4375 C-96.43140625 61.53128906 -96.64796875 60.62507813 -96.87109375 59.69140625 C-100.15367186 45.33012704 -100.0088274 31.99608422 -92.90234375 18.625 C-92.34546875 17.573125 -91.78859375 16.52125 -91.21484375 15.4375 C-92.3466452 12.04209566 -93.31841574 11.28392148 -96.02734375 9.0625 C-104.00366036 2.21747425 -104.00366036 2.21747425 -104.65234375 -3.25 C-104.50796875 -4.343125 -104.36359375 -5.43625 -104.21484375 -6.5625 C-101.21484375 -8.5625 -101.21484375 -8.5625 -99.33984375 -8.5625 C-96.71369593 -7.32666573 -95.46636492 -5.51471121 -93.703125 -3.265625 C-91.02546534 -0.20142655 -87.84653185 2.58194564 -84.21484375 4.4375 C-80.46042441 4.22512881 -78.09794053 2.00241936 -75.21484375 -0.25 C-51.29755226 -17.87991896 -24.21078625 -17.07991975 0 0 Z M-73.21484375 10.4375 C-71.78328413 13.9154255 -70.13742473 15.51405748 -67.06640625 17.64453125 C-66.23117432 18.228396 -65.39594238 18.81226074 -64.53540039 19.41381836 C-63.6458667 20.0197583 -62.75633301 20.62569824 -61.83984375 21.25 C-60.9367749 21.87076416 -60.03370605 22.49152832 -59.10327148 23.13110352 C-48.67629479 31.51093915 -48.67629479 31.51093915 -36.828125 35.16040039 C-34.08351052 34.40116987 -32.32163178 33.4320416 -29.9921875 31.8125 C-29.21141846 31.27455811 -28.43064941 30.73661621 -27.6262207 30.18237305 C-26.80984131 29.60656494 -25.99346191 29.03075684 -25.15234375 28.4375 C-23.89393677 27.56315308 -23.89393677 27.56315308 -22.61010742 26.67114258 C-16.03081188 22.07592867 -9.56583405 17.34335478 -3.21484375 12.4375 C-6.33617811 5.28764543 -12.93314591 2.35894836 -19.90234375 -0.375 C-38.84398468 -7.38454138 -58.5217867 -3.2973142 -73.21484375 10.4375 Z M-4.58984375 24.625 C-5.37101562 25.20314453 -6.1521875 25.78128906 -6.95703125 26.37695312 C-12.57689052 30.55661598 -12.57689052 30.55661598 -16.21484375 36.4375 C-15.66009802 39.20059357 -15.66009802 39.20059357 -14.21484375 41.4375 C-13.55484375 41.7675 -12.89484375 42.0975 -12.21484375 42.4375 C-10.6107016 41.25226003 -10.6107016 41.25226003 -9.21484375 39.4375 C-8.96414462 36.81179296 -8.96414462 36.81179296 -9.21484375 34.4375 C-6.05368599 35.80733503 -5.22213455 36.4265638 -3.21484375 39.4375 C-3.29189877 44.21491104 -3.56180065 46.48761913 -6.27734375 50.4375 C-9.57388558 52.68195401 -11.37362479 53.19451193 -15.28515625 52.9140625 C-18.78240911 52.05036847 -20.17452998 50.31794297 -22.21484375 47.4375 C-23.16045843 44.75908354 -23.69103925 42.24699684 -24.21484375 39.4375 C-27.27423184 40.31830585 -27.27423184 40.31830585 -30.21484375 42.4375 C-31.32970161 45.21546888 -31.55178951 48.03578041 -31.83984375 51 C-32.65244723 57.33893954 -33.73328495 62.83683383 -36.4453125 68.6875 C-37.34902148 70.42401492 -37.34902148 70.42401492 -37.21484375 72.4375 C-44.02793844 66.91336917 -44.964474 59.96340727 -45.88598633 51.52685547 C-46.08242014 49.57380937 -46.23926528 47.61690554 -46.39453125 45.66015625 C-46.90501626 42.25128395 -46.90501626 42.25128395 -49.78515625 40.49609375 C-50.58695313 40.14675781 -51.38875 39.79742187 -52.21484375 39.4375 C-52.4571875 40.04078125 -52.69953125 40.6440625 -52.94921875 41.265625 C-56.72427771 50.26768868 -56.72427771 50.26768868 -60.21484375 52.4375 C-64.50118785 53.19018519 -67.94032113 53.20221357 -71.71484375 50.9375 C-73.78272187 47.49103647 -74.41417329 44.44801042 -74.21484375 40.4375 C-72.8351722 36.91167272 -71.93302189 35.78823816 -68.52734375 34.125 C-67.76421875 33.898125 -67.00109375 33.67125 -66.21484375 33.4375 C-66.21484375 35.7475 -66.21484375 38.0575 -66.21484375 40.4375 C-64.89484375 41.0975 -63.57484375 41.7575 -62.21484375 42.4375 C-59.95682639 39.6980173 -59.95682639 39.6980173 -60.34375 36.9921875 C-63.00002409 29.20203837 -73.66342829 23.81422849 -80.21484375 19.4375 C-85.56051996 22.9301582 -86.88272818 27.35462535 -88.21484375 33.4375 C-89.57384486 45.49723089 -88.58071867 56.56464421 -81.40234375 66.6875 C-80.36391035 67.95756391 -79.30104266 69.20803744 -78.21484375 70.4375 C-77.66699219 71.0665625 -77.11914062 71.695625 -76.5546875 72.34375 C-69.99163493 79.40015277 -61.9499603 83.01296724 -52.29003906 83.72802734 C-50.8745138 83.75440579 -49.45873295 83.76904171 -48.04296875 83.7734375 C-46.89837189 83.7834227 -46.89837189 83.7834227 -45.73065186 83.79360962 C-44.12384428 83.80368011 -42.51699535 83.80842839 -40.91015625 83.80810547 C-38.48495444 83.81246386 -36.06159777 83.84879924 -33.63671875 83.88671875 C-20.27872094 83.98474447 -10.30979524 81.73742783 -0.21484375 72.4375 C0.50960937 71.77878906 1.2340625 71.12007812 1.98046875 70.44140625 C9.71747559 62.66157465 11.9322757 53.64888427 12.28515625 42.875 C12.03480824 33.90883241 9.7322446 25.94623135 4.78515625 18.4375 C1.74478279 18.4375 -2.24889645 22.85207668 -4.58984375 24.625 Z M12.78515625 71.4375 C11.14840117 73.05549502 11.14840117 73.05549502 9.47265625 75.125 C6.70016317 78.39050964 3.85914766 81.45665985 0.78515625 84.4375 C1.63078125 84.705625 2.47640625 84.97375 3.34765625 85.25 C4.48203125 85.641875 5.61640625 86.03375 6.78515625 86.4375 C8.00203125 86.85 9.21890625 87.2625 10.47265625 87.6875 C14.67860813 89.90951231 15.19989707 90.95650859 16.78515625 95.4375 C17.19047549 99.79234339 17.13378132 104.12189061 17.078125 108.4921875 C17.07388016 109.74887238 17.06963531 111.00555725 17.06526184 112.30032349 C17.05134747 115.62465735 17.02444249 118.9483623 16.9911499 122.27252197 C16.96033871 125.67120966 16.94673303 129.06996259 16.93164062 132.46875 C16.89860646 139.12517251 16.84843248 145.78129998 16.78515625 152.4375 C19.74862087 152.75119585 19.74862087 152.75119585 21.43359375 151.109375 C26.51818511 145.44960363 29.32793765 139.6075871 31.78515625 132.4375 C32.03265625 131.73238281 32.28015625 131.02726562 32.53515625 130.30078125 C35.70172618 119.10783616 34.8961433 105.20016996 30.78515625 94.4375 C30.35009766 93.25800781 30.35009766 93.25800781 29.90625 92.0546875 C26.59611182 83.88321667 21.27060287 77.33336056 14.78515625 71.4375 C14.12515625 71.4375 13.46515625 71.4375 12.78515625 71.4375 Z M-91.21484375 71.4375 C-104.66121216 82.71509931 -109.85930588 94.28452306 -111.43359375 111.8828125 C-111.9420806 124.72210546 -108.40948489 137.79209579 -101.21484375 148.4375 C-100.03468587 149.53617296 -98.8220314 150.60073725 -97.58300781 151.63256836 C-96.95235413 152.16128036 -96.32170044 152.68999237 -95.67193604 153.23472595 C-95.19109558 153.63164139 -94.71025513 154.02855682 -94.21484375 154.4375 C-94.20897751 153.70944656 -94.20311127 152.98139313 -94.19706726 152.23127747 C-94.13909291 145.36019442 -94.06698899 138.4893882 -93.97912884 131.61862659 C-93.93445711 128.08651334 -93.89519437 124.55451456 -93.8684082 121.0222168 C-93.83735295 116.95852678 -93.78256541 112.89545458 -93.7265625 108.83203125 C-93.72017258 107.5672847 -93.71378265 106.30253815 -93.7071991 104.99946594 C-93.68740494 103.81861923 -93.66761078 102.63777252 -93.6472168 101.42114258 C-93.63611374 100.38411697 -93.62501068 99.34709137 -93.61357117 98.27864075 C-93.01819587 94.03628129 -91.40453913 91.35526501 -88.02734375 88.75 C-84.46802574 87.08898493 -81.05017021 86.28257193 -77.21484375 85.4375 C-81.46838583 80.21171972 -85.754889 75.44300592 -91.21484375 71.4375 Z M-73.21484375 95.4375 C-70.36205643 101.38118974 -65.55182491 105.32589321 -60.58984375 109.5625 C-56.04746486 113.46234199 -51.87954014 117.71896691 -47.69482422 121.99462891 C-45.29673 124.43020461 -43.0690286 126.5347101 -40.21484375 128.4375 C-36.03013033 128.26975832 -33.7291895 125.39164751 -30.83984375 122.625 C-29.77666066 121.62165836 -28.71147433 120.62043614 -27.64453125 119.62109375 C-26.80873535 118.83774658 -26.80873535 118.83774658 -25.95605469 118.03857422 C-23.02553082 115.34390575 -19.9971649 112.7663632 -16.96484375 110.1875 C-16.08022461 109.43206909 -16.08022461 109.43206909 -15.17773438 108.66137695 C-12.64225394 106.4977337 -10.10095251 104.34164433 -7.55078125 102.1953125 C-6.82117188 101.57398438 -6.0915625 100.95265625 -5.33984375 100.3125 C-4.72367187 99.79429688 -4.1075 99.27609375 -3.47265625 98.7421875 C-1.98349182 97.4995703 -1.98349182 97.4995703 -2.21484375 95.4375 C-25.9263226 94.7087042 -49.51326916 94.08583902 -73.21484375 95.4375 Z M-83.21484375 102.4375 C-83.54484375 116.9575 -83.87484375 131.4775 -84.21484375 146.4375 C-80.12193108 144.39104366 -77.24491588 141.91005468 -73.96484375 138.8125 C-73.39290283 138.27850586 -72.82096191 137.74451172 -72.23168945 137.19433594 C-67.79805636 133.03635944 -63.45506587 128.79301517 -59.21484375 124.4375 C-62.88102055 119.94643342 -66.6344571 116.03256781 -71.05078125 112.28125 C-74.23621788 109.56730399 -77.32543145 106.74748333 -80.4296875 103.94140625 C-81.95327294 102.33011828 -81.95327294 102.33011828 -83.21484375 102.4375 Z M-0.33984375 107 C-4.35529446 110.72513733 -8.41032211 114.38783834 -12.55859375 117.96484375 C-13.3784375 118.69380859 -13.3784375 118.69380859 -14.21484375 119.4375 C-14.80265625 119.91316406 -15.39046875 120.38882813 -15.99609375 120.87890625 C-16.39828125 121.39324219 -16.80046875 121.90757812 -17.21484375 122.4375 C-16.5953732 127.07090482 -13.50306137 129.25812453 -10.15234375 132.1875 C-8.96611477 133.2485114 -7.78121824 134.31101438 -6.59765625 135.375 C-6.01918945 135.89320313 -5.44072266 136.41140625 -4.84472656 136.9453125 C-2.00586411 139.54434296 0.64820935 142.31891783 3.296875 145.109375 C4.70140716 146.65944039 4.70140716 146.65944039 6.78515625 146.4375 C6.78515625 131.9175 6.78515625 117.3975 6.78515625 102.4375 C3.50423831 102.4375 1.9939853 104.81894249 -0.33984375 107 Z M-56.21484375 133.4375 C-56.21484375 134.0975 -56.21484375 134.7575 -56.21484375 135.4375 C-56.80885986 135.70771973 -57.40287598 135.97793945 -58.01489258 136.25634766 C-61.55256178 138.15571993 -64.0898916 140.98447503 -66.90234375 143.8125 C-67.49595703 144.39 -68.08957031 144.9675 -68.70117188 145.5625 C-69.26642578 146.12710938 -69.83167969 146.69171875 -70.4140625 147.2734375 C-70.92799561 147.78438965 -71.44192871 148.2953418 -71.97143555 148.82177734 C-73.55152992 150.65243883 -73.55152992 150.65243883 -74.21484375 154.4375 C-50.12484375 154.4375 -26.03484375 154.4375 -1.21484375 154.4375 C-3.33500794 150.19717163 -5.88136431 147.71681139 -9.33984375 144.625 C-9.9222583 144.09672607 -10.50467285 143.56845215 -11.10473633 143.02416992 C-12.80216704 141.48851124 -14.50716831 139.96174888 -16.21484375 138.4375 C-17.06175781 137.67695313 -17.90867188 136.91640625 -18.78125 136.1328125 C-22.25824831 132.9388829 -22.25824831 132.9388829 -26.21484375 130.4375 C-27.17583984 131.32115234 -27.17583984 131.32115234 -28.15625 132.22265625 C-35.16308704 138.31056385 -35.16308704 138.31056385 -39.83984375 138.875 C-43.84005878 137.17120471 -46.49505199 134.92540831 -49.61328125 131.93359375 C-52.43482527 129.29785873 -53.52346468 131.18021433 -56.21484375 133.4375 Z M-84.21484375 164.4375 C-83.55484375 166.0875 -82.89484375 167.7375 -82.21484375 169.4375 C-81.22484375 169.4375 -80.23484375 169.4375 -79.21484375 169.4375 C-78.88484375 167.7875 -78.55484375 166.1375 -78.21484375 164.4375 C-80.19484375 164.4375 -82.17484375 164.4375 -84.21484375 164.4375 Z M-53.21484375 164.4375 C-54.85559783 166.07825408 -54.36719412 167.96683817 -54.3918457 170.22924805 C-54.40468094 171.25088547 -54.41751617 172.27252289 -54.43074036 173.32511902 C-54.43812729 174.43857193 -54.44551422 175.55202484 -54.453125 176.69921875 C-54.46119675 177.8377681 -54.46926849 178.97631744 -54.47758484 180.14936829 C-54.49144774 182.56627876 -54.50215997 184.983209 -54.51000977 187.40014648 C-54.52719025 191.09201447 -54.57105428 194.78297983 -54.61523438 198.47460938 C-54.62536358 200.8203059 -54.63387897 203.16601006 -54.640625 205.51171875 C-54.65813309 206.61505051 -54.67564117 207.71838226 -54.69367981 208.85514832 C-54.73795191 215.23842841 -54.73795191 215.23842841 -52.56323242 221.12036133 C-50.03556663 224.05914811 -50.03556663 224.05914811 -44.21484375 224.4375 C-44.21484375 204.9675 -44.21484375 185.4975 -44.21484375 165.4375 C-47.18484375 165.1075 -50.15484375 164.7775 -53.21484375 164.4375 Z M-32.21484375 164.4375 C-33.49066345 165.48952528 -33.49066345 165.48952528 -33.33509827 167.87355042 C-33.33287766 168.95498825 -33.33065704 170.03642609 -33.32836914 171.15063477 C-33.32829361 172.3718251 -33.32821808 173.59301544 -33.32814026 174.85121155 C-33.32303286 176.19377686 -33.31781686 177.53634175 -33.3125 178.87890625 C-33.31063574 180.24511158 -33.30921188 181.61131757 -33.30821228 182.9775238 C-33.30438769 186.57951695 -33.29455792 190.18147 -33.2835083 193.78344727 C-33.27329291 197.45653745 -33.26871439 201.12963409 -33.26367188 204.80273438 C-33.25293559 212.01434123 -33.23585989 219.225915 -33.21484375 226.4375 C-28.89983529 225.74452679 -27.07727702 224.81108206 -24.21484375 221.4375 C-22.94014968 218.88811185 -23.09468191 217.10709002 -23.10131836 214.25341797 C-23.10139389 213.17244843 -23.10146942 212.09147888 -23.10154724 210.97775269 C-23.10670853 209.80689117 -23.11186981 208.63602966 -23.1171875 207.4296875 C-23.11860245 206.23393097 -23.1200174 205.03817444 -23.12147522 203.80618286 C-23.12708712 199.97493013 -23.13964167 196.14373516 -23.15234375 192.3125 C-23.15735722 189.72005293 -23.16192039 187.12760494 -23.16601562 184.53515625 C-23.17706042 178.16925102 -23.19381016 171.80337963 -23.21484375 165.4375 C-24.69315596 165.24337819 -26.17253691 165.05737869 -27.65234375 164.875 C-28.47605469 164.77058594 -29.29976563 164.66617188 -30.1484375 164.55859375 C-30.83035156 164.51863281 -31.51226562 164.47867188 -32.21484375 164.4375 Z M-12.21484375 164.4375 C-12.23949473 169.40372349 -12.25768024 174.36991166 -12.26977539 179.33618164 C-12.27481565 181.02694316 -12.2816478 182.71770029 -12.2902832 184.40844727 C-12.30236232 186.83350707 -12.30807498 189.25850944 -12.3125 191.68359375 C-12.31766129 192.44401474 -12.32282257 193.20443573 -12.32814026 193.98789978 C-12.32833613 195.8048257 -12.27681652 197.62163127 -12.21484375 199.4375 C-11.00523031 200.8581927 -11.00523031 200.8581927 -7.46484375 200.8125 C-3.97343205 200.76226386 -3.23783701 200.4537869 -0.21484375 198.3125 C2.21285706 194.82268009 2.23940782 193.61957699 1.78515625 189.4375 C0.75683396 186.71027343 -0.58139201 184.18694767 -1.96484375 181.625 C-2.70069018 180.21300543 -3.43507576 178.80024855 -4.16796875 177.38671875 C-4.52181641 176.71044434 -4.87566406 176.03416992 -5.24023438 175.33740234 C-7.06725205 171.77581628 -8.63872878 168.11510161 -10.21484375 164.4375 C-10.87484375 164.4375 -11.53484375 164.4375 -12.21484375 164.4375 Z M1.78515625 164.4375 C2.44515625 166.4175 3.10515625 168.3975 3.78515625 170.4375 C7.21094574 167.26210444 7.21094574 167.26210444 9.78515625 163.4375 C7.05677945 163.4375 4.46861562 163.97081141 1.78515625 164.4375 Z M-67.21484375 165.4375 C-69.26156802 169.4665552 -71.27248883 173.51246906 -73.27734375 177.5625 C-73.85806641 178.70460937 -74.43878906 179.84671875 -75.03710938 181.0234375 C-75.58173828 182.13203125 -76.12636719 183.240625 -76.6875 184.3828125 C-77.19547119 185.39875488 -77.70344238 186.41469727 -78.22680664 187.46142578 C-79.38364701 190.94595362 -79.18872865 192.92680453 -78.21484375 196.4375 C-76.21039029 199.08624208 -74.8496984 200.21530087 -71.71484375 201.3125 C-68.74207138 201.46113862 -67.60397373 201.20960261 -65.21484375 199.4375 C-64.50005213 196.5416891 -64.50005213 196.5416891 -64.46484375 193.125 C-64.38363281 191.24167969 -64.38363281 191.24167969 -64.30078125 189.3203125 C-64.27242187 188.03898437 -64.2440625 186.75765625 -64.21484375 185.4375 C-64.18648437 184.25929687 -64.158125 183.08109375 -64.12890625 181.8671875 C-64.06412351 176.28291556 -64.19261965 170.93195454 -65.21484375 165.4375 C-65.87484375 165.4375 -66.53484375 165.4375 -67.21484375 165.4375 Z " fill="#000000" transform="translate(144.21484375,27.5625)"/>
</svg>