<svg width="160" height="29" viewBox="0 0 160 29" fill="none" xmlns="http://www.w3.org/2000/svg">
<path d="M147.206 16.1519C147.742 15.5646 148.29 14.9528 148.851 14.3165C149.436 13.6802 149.996 13.0561 150.532 12.4443C151.068 11.808 151.568 11.2084 152.031 10.6456C152.518 10.0827 152.933 9.59326 153.274 9.17722H159.744C158.452 10.67 157.185 12.1017 155.942 13.4722C154.724 14.8182 153.383 16.2131 151.921 17.657C152.652 18.3177 153.408 19.1131 154.188 20.0431C154.968 20.9485 155.723 21.8907 156.454 22.8696C157.185 23.8485 157.855 24.8274 158.465 25.8063C159.074 26.7852 159.586 27.6785 160 28.4861H153.749C153.359 27.8498 152.908 27.1523 152.396 26.3937C151.909 25.6106 151.385 24.8397 150.825 24.081C150.264 23.2979 149.667 22.5515 149.033 21.8418C148.424 21.1321 147.815 20.5325 147.206 20.0431V28.4861H141.759V0.881013L147.206 0V16.1519Z" fill="black"/>
<path d="M129.537 24.5582C130.536 24.5582 131.243 24.4603 131.657 24.2646C132.071 24.0688 132.278 23.6894 132.278 23.1266C132.278 22.6861 132.01 22.3067 131.474 21.9886C130.938 21.646 130.121 21.2667 129.025 20.8506C128.172 20.5325 127.392 20.2021 126.685 19.8595C126.003 19.5169 125.418 19.1131 124.931 18.6481C124.443 18.1586 124.065 17.5835 123.797 16.9228C123.529 16.262 123.395 15.4667 123.395 14.5367C123.395 12.7257 124.065 11.2941 125.406 10.2418C126.746 9.18944 128.586 8.66328 130.926 8.66328C132.095 8.66328 133.217 8.7734 134.289 8.99366C135.361 9.18944 136.214 9.40969 136.848 9.65442L135.897 13.9126C135.264 13.6924 134.569 13.4966 133.814 13.3253C133.082 13.154 132.254 13.0683 131.328 13.0683C129.622 13.0683 128.769 13.5456 128.769 14.5C128.769 14.7202 128.805 14.916 128.879 15.0873C128.952 15.2586 129.098 15.4299 129.317 15.6013C129.537 15.7481 129.829 15.9194 130.195 16.1152C130.585 16.2865 131.072 16.4823 131.657 16.7025C132.851 17.143 133.838 17.5835 134.618 18.024C135.398 18.4401 136.007 18.9051 136.446 19.419C136.909 19.9084 137.225 20.4591 137.396 21.0709C137.591 21.6827 137.688 22.3924 137.688 23.2C137.688 25.1089 136.97 26.5527 135.532 27.5316C134.118 28.5105 132.108 29 129.5 29C127.794 29 126.368 28.8532 125.223 28.5595C124.102 28.2658 123.322 28.0211 122.884 27.8253L123.797 23.3835C124.723 23.7506 125.674 24.0443 126.649 24.2646C127.624 24.4603 128.586 24.5582 129.537 24.5582Z" fill="black"/>
<path d="M101.755 18.9785C101.755 17.2654 102.011 15.7726 102.523 14.5C103.059 13.2029 103.753 12.1261 104.606 11.2696C105.459 10.4131 106.434 9.76454 107.531 9.32404C108.652 8.88353 109.797 8.66328 110.967 8.66328C113.697 8.66328 115.853 9.50758 117.437 11.1962C119.021 12.8603 119.813 15.3198 119.813 18.5747C119.813 18.8928 119.801 19.2477 119.777 19.6392C119.753 20.0063 119.728 20.3367 119.704 20.6304H107.348C107.47 21.7561 107.994 22.6494 108.92 23.3101C109.846 23.9709 111.089 24.3013 112.649 24.3013C113.648 24.3013 114.623 24.2156 115.573 24.0443C116.548 23.8485 117.34 23.616 117.949 23.3468L118.68 27.7886C118.388 27.9354 117.998 28.0823 117.51 28.2291C117.023 28.3759 116.475 28.4983 115.865 28.5962C115.281 28.7186 114.647 28.8165 113.965 28.8899C113.282 28.9633 112.6 29 111.917 29C110.187 29 108.676 28.743 107.385 28.2291C106.117 27.7152 105.057 27.0177 104.204 26.1367C103.376 25.2312 102.754 24.1667 102.34 22.943C101.95 21.7194 101.755 20.3979 101.755 18.9785ZM114.549 16.8861C114.525 16.4211 114.44 15.9683 114.294 15.5278C114.172 15.0873 113.965 14.6958 113.672 14.3532C113.404 14.0105 113.051 13.7291 112.612 13.5088C112.198 13.2886 111.674 13.1785 111.04 13.1785C110.431 13.1785 109.907 13.2886 109.468 13.5088C109.03 13.7046 108.664 13.9738 108.372 14.3164C108.079 14.6591 107.848 15.0629 107.677 15.5278C107.531 15.9683 107.421 16.4211 107.348 16.8861H114.549Z" fill="black"/>
<path d="M85.2498 18.6848C85.2498 20.3734 85.6276 21.7317 86.383 22.7595C87.1385 23.7874 88.2596 24.3013 89.7461 24.3013C90.2335 24.3013 90.6844 24.289 91.0987 24.2646C91.513 24.2156 91.8542 24.1667 92.1222 24.1177V14.1696C91.781 13.9494 91.3302 13.7658 90.7697 13.619C90.2335 13.4722 89.6852 13.3987 89.1247 13.3987C86.5415 13.3987 85.2498 15.1608 85.2498 18.6848ZM97.569 27.862C97.0816 28.0089 96.521 28.1557 95.8874 28.3025C95.2538 28.4249 94.5836 28.535 93.8769 28.6329C93.1945 28.7308 92.4878 28.8042 91.7567 28.8532C91.0499 28.9266 90.3676 28.9633 89.7096 28.9633C88.1255 28.9633 86.712 28.7308 85.4692 28.2658C84.2263 27.8009 83.1784 27.1401 82.3254 26.2836C81.4724 25.4025 80.8145 24.3502 80.3514 23.1266C79.9128 21.8785 79.6934 20.4836 79.6934 18.9418C79.6934 17.3755 79.8884 15.9684 80.2783 14.7203C80.6682 13.4477 81.2287 12.3709 81.9599 11.4899C82.691 10.6089 83.5805 9.93587 84.6284 9.47089C85.7007 9.00591 86.9192 8.77342 88.2839 8.77342C89.0394 8.77342 89.7096 8.84684 90.2945 8.99368C90.9037 9.14051 91.513 9.34853 92.1222 9.61773V0.881013L97.569 0V27.862Z" fill="black"/>
<path d="M58.3457 18.9785C58.3457 17.2654 58.6016 15.7726 59.1134 14.5C59.6495 13.2029 60.3441 12.1261 61.197 11.2696C62.05 10.4131 63.0248 9.76454 64.1214 9.32404C65.2425 8.88353 66.3879 8.66328 67.5576 8.66328C70.2871 8.66328 72.4439 9.50758 74.0279 11.1962C75.612 12.8603 76.404 15.3198 76.404 18.5747C76.404 18.8928 76.3918 19.2477 76.3675 19.6392C76.3431 20.0063 76.3187 20.3367 76.2944 20.6304H63.9387C64.0605 21.7561 64.5845 22.6494 65.5105 23.3101C66.4366 23.9709 67.6795 24.3013 69.2392 24.3013C70.2384 24.3013 71.2132 24.2156 72.1636 24.0443C73.1384 23.8485 73.9304 23.616 74.5397 23.3468L75.2708 27.7886C74.9784 27.9354 74.5884 28.0823 74.101 28.2291C73.6136 28.3759 73.0653 28.4983 72.456 28.5962C71.8712 28.7186 71.2375 28.8165 70.5552 28.8899C69.8728 28.9633 69.1904 29 68.5081 29C66.7778 29 65.2668 28.743 63.9752 28.2291C62.708 27.7152 61.6479 27.0177 60.7949 26.1367C59.9663 25.2312 59.3449 24.1667 58.9306 22.943C58.5407 21.7194 58.3457 20.3979 58.3457 18.9785ZM71.1401 16.8861C71.1157 16.4211 71.0304 15.9683 70.8842 15.5278C70.7623 15.0873 70.5552 14.6958 70.2627 14.3532C69.9947 14.0105 69.6413 13.7291 69.2026 13.5088C68.7883 13.2886 68.2644 13.1785 67.6307 13.1785C67.0215 13.1785 66.4975 13.2886 66.0589 13.5088C65.6202 13.7046 65.2546 13.9738 64.9622 14.3164C64.6698 14.6591 64.4383 15.0629 64.2677 15.5278C64.1214 15.9683 64.0118 16.4211 63.9387 16.8861H71.1401Z" fill="black"/>
<path d="M55.7828 14.0228C55.2954 13.9004 54.7227 13.7781 54.0647 13.6557C53.4067 13.5089 52.7 13.4354 51.9445 13.4354C51.6033 13.4354 51.189 13.4721 50.7016 13.5456C50.2386 13.5945 49.8852 13.6557 49.6415 13.7291V28.4861H44.1948V10.2051C45.1696 9.86244 46.315 9.5443 47.631 9.25063C48.9714 8.93248 50.4579 8.77341 52.0907 8.77341C52.3832 8.77341 52.7366 8.79789 53.1508 8.84683C53.5651 8.8713 53.9794 8.92025 54.3937 8.99367C54.808 9.04261 55.2223 9.11603 55.6366 9.21392C56.0509 9.28734 56.4043 9.38523 56.6967 9.50759L55.7828 14.0228Z" fill="black"/>
<path d="M34.4522 18.6848C34.4522 15.1608 33.1606 13.3987 30.5774 13.3987C30.0169 13.3987 29.4563 13.4722 28.8958 13.619C28.3597 13.7658 27.921 13.9494 27.5798 14.1696V24.1177C27.8479 24.1667 28.1891 24.2156 28.6034 24.2646C29.0177 24.289 29.4685 24.3013 29.9559 24.3013C31.4425 24.3013 32.5635 23.7874 33.319 22.7595C34.0745 21.7317 34.4522 20.3734 34.4522 18.6848ZM40.0086 18.8317C40.0086 20.3734 39.7771 21.7684 39.3141 23.0165C38.8754 24.2646 38.2296 25.3291 37.3767 26.2101C36.5237 27.0912 35.4758 27.7764 34.2329 28.2658C32.99 28.7308 31.5766 28.9633 29.9925 28.9633C29.3345 28.9633 28.6399 28.9266 27.9088 28.8532C27.2021 28.8042 26.4954 28.7308 25.7886 28.6329C25.1063 28.535 24.4483 28.4249 23.8146 28.3025C23.181 28.1557 22.6205 28.0089 22.1331 27.862V0.881013L27.5798 0V9.61773C28.1891 9.34853 28.8227 9.14051 29.4807 8.99368C30.1387 8.84684 30.8454 8.77342 31.6009 8.77342C32.9657 8.77342 34.172 9.01815 35.2199 9.5076C36.2678 9.97258 37.1451 10.6456 37.8519 11.5266C38.5586 12.4076 39.0948 13.4722 39.4603 14.7203C39.8259 15.9439 40.0086 17.3144 40.0086 18.8317Z" fill="black"/>
<path d="M17.0131 28.4861H11.5663V9.17721H17.0131V28.4861ZM17.5248 3.59746C17.5248 4.60083 17.1958 5.39619 16.5378 5.98353C15.9042 6.5464 15.1487 6.82784 14.2714 6.82784C13.3941 6.82784 12.6264 6.5464 11.9684 5.98353C11.3348 5.39619 11.018 4.60083 11.018 3.59746C11.018 2.59408 11.3348 1.81096 11.9684 1.24809C12.6264 0.660745 13.3941 0.367074 14.2714 0.367074C15.1487 0.367074 15.9042 0.660745 16.5378 1.24809C17.1958 1.81096 17.5248 2.59408 17.5248 3.59746Z" fill="black"/>
<path d="M7.67661 28.8532C6.09255 28.8287 4.80093 28.6574 3.80175 28.3393C2.82694 28.0211 2.0471 27.5806 1.46221 27.0177C0.901698 26.4304 0.511774 25.7329 0.292442 24.9253C0.0974807 24.0933 0 23.1633 0 22.1355V0.881013L5.44674 0V21.0342C5.44674 21.5236 5.4833 21.9642 5.55641 22.3557C5.62952 22.7473 5.76355 23.0777 5.95852 23.3469C6.17785 23.616 6.48247 23.8363 6.8724 24.0076C7.26232 24.1789 7.78628 24.289 8.44428 24.338L7.67661 28.8532Z" fill="black"/>
</svg>
