<?xml version="1.0" encoding="UTF-8"?>
<svg version="1.1" xmlns="http://www.w3.org/2000/svg" width="512" height="512">
<path d="M0 0 C0.69948761 0.00054382 1.39897522 0.00108765 2.11965942 0.00164795 C14.27088496 0.04488274 25.82196804 1.107959 37.5625 4.375 C38.28324707 4.57335449 39.00399414 4.77170898 39.74658203 4.97607422 C57.5529006 10.10145605 74.57484851 19.25985875 88.5625 31.375 C89.07603027 31.81312012 89.58956055 32.25124023 90.11865234 32.70263672 C100.55114167 41.65259744 108.98286499 51.92296066 116.5625 63.375 C117.06394531 64.1175 117.56539063 64.86 118.08203125 65.625 C125.33793005 76.95875222 130.2432382 90.3899249 133.5625 103.375 C134.01109375 105.08623047 134.01109375 105.08623047 134.46875 106.83203125 C139.04204768 127.72946092 138.4277394 151.83308517 132.5625 172.375 C132.35882813 173.12313965 132.15515625 173.8712793 131.9453125 174.64208984 C125.75421582 196.90806333 113.7161896 215.87459452 97.94506836 232.57788086 C97.30427054 233.25853324 96.66347273 233.93918562 96.0032568 234.64046383 C87.22088185 243.91322381 78.16468565 252.91688654 69.12890625 261.94140625 C67.19615686 263.87437978 65.26400691 265.80795218 63.33177185 267.74143982 C59.31387195 271.76114115 55.29390849 275.77876962 51.27270508 279.79516602 C46.64511775 284.41728481 42.02118339 289.04303462 37.39907032 293.67062718 C33.39458036 297.67967112 29.38812541 301.6867435 25.38005298 305.69220585 C23.00137063 308.06934177 20.62354434 310.44731525 18.24710274 312.82669258 C15.60408403 315.47226308 12.95786033 318.11458673 10.31079102 320.75610352 C9.54025391 321.52866486 8.7697168 322.3012262 7.97583008 323.09719849 C-21.94320106 352.90062206 -56.39075251 368.69166813 -98.88916016 368.6237793 C-130.79721719 368.43339709 -161.41699788 356.29351675 -185.4375 335.375 C-186.09234375 334.84132813 -186.7471875 334.30765625 -187.421875 333.7578125 C-196.41616449 326.39523039 -202.92903083 316.89875646 -209.4375 307.375 C-210.38882813 306.05048828 -210.38882813 306.05048828 -211.359375 304.69921875 C-212.4375 302.375 -212.4375 302.375 -211.77427673 300.51431274 C-210.15688269 297.92591365 -208.28878707 295.97944784 -206.12719727 293.82177734 C-205.23609756 292.92760101 -204.34499786 292.03342468 -203.42689514 291.1121521 C-202.45274494 290.14489982 -201.47841085 289.17783272 -200.50390625 288.2109375 C-199.50467565 287.21289973 -198.50581522 286.21449121 -197.50730896 285.21572876 C-195.41639923 283.12638106 -193.32217919 281.04042966 -191.2253418 278.95703125 C-188.53908645 276.28777623 -185.85947168 273.61197495 -183.18208408 270.93382835 C-181.12089737 268.87291368 -179.05711375 266.81461649 -176.99244499 264.7571907 C-176.00348208 263.77140723 -175.01512124 262.78501934 -174.02737617 261.79801559 C-172.64649313 260.41930313 -171.26192613 259.0442834 -169.87719727 257.66943359 C-169.09047134 256.88651947 -168.30374542 256.10360535 -167.49317932 255.29696655 C-164.74170089 252.72445952 -163.28674973 251.375 -159.4375 251.375 C-159.01339844 252.42558594 -158.58929688 253.47617188 -158.15234375 254.55859375 C-153.78150387 265.12082771 -148.92409686 273.50937364 -140.4375 281.375 C-139.92316406 281.90609375 -139.40882813 282.4371875 -138.87890625 282.984375 C-126.71899577 294.80433099 -109.46196008 298.9054695 -93.00878906 298.79492188 C-63.10962931 297.91718967 -44.36931628 276.62939713 -24.63635731 256.87543988 C-22.61298394 254.85098251 -20.58660965 252.82954126 -18.56031775 250.80800575 C-13.77470697 246.03341138 -8.99434428 241.25360825 -4.21728516 236.47045898 C0.67908202 231.56804506 5.58457792 226.67490318 10.49458766 221.78615624 C14.74330898 217.55514554 18.98609852 213.31824832 23.22435308 209.07675308 C25.74125706 206.5580527 28.26023477 204.04152858 30.78505707 201.53076363 C49.38559022 183.46221947 49.38559022 183.46221947 62.5625 161.375 C62.85769531 160.70726562 63.15289062 160.03953125 63.45703125 159.3515625 C69.70645358 143.28161936 68.12578291 125.44647496 62.0390625 109.66015625 C54.22367163 92.27194535 40.99609203 80.66299463 23.5625 73.375 C5.02436167 67.25908016 -14.00159476 68.68812316 -31.4375 77.375 C-42.65451148 83.98941838 -52.08037593 93.81785653 -61.05078125 103.171875 C-62.16471032 104.32552394 -63.27864262 105.47916977 -64.39257812 106.6328125 C-66.09221255 108.39466192 -67.78444992 110.16168757 -69.46020508 111.94628906 C-71.11797157 113.70679105 -72.79999738 115.44068537 -74.48828125 117.171875 C-74.98322586 117.71124695 -75.47817047 118.2506189 -75.9881134 118.80633545 C-77.4465332 120.27636719 -77.4465332 120.27636719 -80.4375 122.375 C-84.05786133 122.26806641 -84.05786133 122.26806641 -87.4375 121.375 C-88.15599121 121.20178223 -88.87448242 121.02856445 -89.61474609 120.85009766 C-90.22398926 120.66495605 -90.83323242 120.47981445 -91.4609375 120.2890625 C-92.51462524 119.9782373 -92.51462524 119.9782373 -93.58959961 119.66113281 C-94.6899353 119.33387207 -94.6899353 119.33387207 -95.8125 119 C-119.92244875 112.07934369 -143.59492452 111.74788394 -168.4375 113.375 C-167.14701266 110.53928869 -165.79432416 108.48220686 -163.59335327 106.28361511 C-163.01317444 105.69924179 -162.43299561 105.11486847 -161.8352356 104.51278687 C-161.20044281 103.88361359 -160.56565002 103.25444031 -159.91162109 102.60620117 C-159.24142944 101.93411118 -158.57123779 101.26202118 -157.8807373 100.56956482 C-155.66232808 98.34744943 -153.43679456 96.1326218 -151.2109375 93.91796875 C-149.66317889 92.37140281 -148.11579038 90.8244664 -146.5687561 89.2771759 C-143.32187093 86.03185566 -140.07165248 82.78992383 -136.81884766 79.55053711 C-132.6646126 75.41322791 -128.51692585 71.26943136 -124.37152672 67.12327099 C-121.17350571 63.92552308 -117.97287553 60.73039747 -114.77138138 57.53612709 C-113.24229498 56.01020783 -111.71380025 54.48369543 -110.18592453 52.95656395 C-108.03969122 50.8125187 -105.89018375 48.67180978 -103.73974609 46.53198242 C-103.11709869 45.90888184 -102.49445129 45.28578125 -101.85293579 44.64379883 C-89.08228993 31.96437187 -75.37019959 21.67826227 -59.4375 13.375 C-58.53902344 12.89289062 -57.64054688 12.41078125 -56.71484375 11.9140625 C-50.71539617 8.92860047 -44.41496146 7.05446097 -38 5.1875 C-37.14188721 4.93718018 -36.28377441 4.68686035 -35.3996582 4.42895508 C-23.60955214 1.13405444 -12.23251137 -0.03595181 0 0 Z " fill="#000000" transform="translate(375.4375,-0.37499999999999994)"/>
<path d="M0 0 C2.66672587 2.16466834 5.27329725 4.38120288 7.86328125 6.63671875 C8.518125 7.17039063 9.17296875 7.7040625 9.84765625 8.25390625 C18.84194574 15.61648836 25.35481208 25.11296229 31.86328125 34.63671875 C32.4975 35.51972656 33.13171875 36.40273437 33.78515625 37.3125 C34.86328125 39.63671875 34.86328125 39.63671875 34.20005798 41.49740601 C32.58266394 44.0858051 30.71456832 46.03227091 28.55297852 48.18994141 C27.66187881 49.08411774 26.77077911 49.97829407 25.85267639 50.89956665 C24.87852619 51.86681893 23.9041921 52.83388603 22.9296875 53.80078125 C21.9304569 54.79881902 20.93159647 55.79722754 19.93309021 56.79598999 C17.84218048 58.88533769 15.74796044 60.97128909 13.65112305 63.0546875 C10.9648677 65.72394252 8.28525293 68.3997438 5.60786533 71.0778904 C3.54667862 73.13880507 1.482895 75.19710226 -0.58177376 77.25452805 C-1.57073667 78.24031152 -2.55909751 79.22669941 -3.54684258 80.21370316 C-4.92772562 81.59241562 -6.31229262 82.96743535 -7.69702148 84.34228516 C-8.48374741 85.12519928 -9.27047333 85.9081134 -10.08103943 86.7147522 C-12.83251786 89.28725923 -14.28746902 90.63671875 -18.13671875 90.63671875 C-18.56082031 89.58613281 -18.98492187 88.53554688 -19.421875 87.453125 C-23.79271488 76.89089104 -28.65012189 68.50234511 -37.13671875 60.63671875 C-37.90822266 59.84007812 -37.90822266 59.84007812 -38.6953125 59.02734375 C-50.85522298 47.20738776 -68.11225867 43.10624925 -84.56542969 43.21679688 C-114.46458944 44.09452908 -133.20490247 65.38232162 -152.93786144 85.13627887 C-154.96123481 87.16073624 -156.9876091 89.18217749 -159.013901 91.203713 C-163.79951178 95.97830737 -168.57987447 100.7581105 -173.35693359 105.54125977 C-178.25330077 110.44367369 -183.15879667 115.33681557 -188.06880641 120.22556251 C-192.31752773 124.45657321 -196.56031727 128.69347043 -200.79857183 132.93496567 C-203.31547581 135.45366605 -205.83445352 137.97019017 -208.35927582 140.48095512 C-226.95980897 158.54949928 -226.95980897 158.54949928 -240.13671875 180.63671875 C-240.43191406 181.30445313 -240.72710937 181.9721875 -241.03125 182.66015625 C-247.27986281 198.72801776 -245.70535766 216.57344949 -239.609375 232.35546875 C-231.86960231 249.60058561 -218.73341105 261.76085642 -201.26171875 268.57421875 C-182.51108823 274.60120713 -163.80525793 273.48304055 -146.13671875 264.63671875 C-135.59011162 258.31939418 -126.75749474 249.41074995 -118.28125 240.59765625 C-117.06974514 239.34627315 -115.85815569 238.09497193 -114.64648438 236.84375 C-112.77999261 234.91518199 -110.92068131 232.98148687 -109.07836914 231.02978516 C-107.26845821 229.11709502 -105.43417338 227.2309425 -103.59375 225.34765625 C-102.77630058 224.46356583 -102.77630058 224.46356583 -101.94233704 223.56161499 C-100.34301758 221.95068359 -100.34301758 221.95068359 -97.13671875 219.63671875 C-93.48461914 219.71191406 -93.48461914 219.71191406 -90.13671875 220.63671875 C-89.41822754 220.80993652 -88.69973633 220.9831543 -87.95947266 221.16162109 C-87.35022949 221.3467627 -86.74098633 221.5319043 -86.11328125 221.72265625 C-85.05959351 222.03348145 -85.05959351 222.03348145 -83.98461914 222.35058594 C-82.88428345 222.67784668 -82.88428345 222.67784668 -81.76171875 223.01171875 C-57.65177 229.93237506 -33.97929423 230.26383481 -9.13671875 228.63671875 C-10.4341914 231.49227571 -11.80323164 233.55283022 -14.01882935 235.7660675 C-14.60742233 236.35885498 -15.19601532 236.95164246 -15.80244446 237.56239319 C-16.44658798 238.20091721 -17.09073151 238.83944122 -17.75439453 239.49731445 C-18.43433975 240.17915802 -19.11428497 240.86100159 -19.81483459 241.56350708 C-22.06570886 243.81808779 -24.32370906 246.0653815 -26.58203125 248.3125 C-28.1522101 249.8814862 -29.72201887 251.45084284 -31.29147339 253.02055359 C-34.58543687 256.31295209 -37.8827342 259.60196241 -41.18261719 262.88842773 C-45.39738676 267.08627052 -49.60560752 271.29060204 -53.8115406 275.49729633 C-57.0558847 278.74136736 -60.30283784 281.98281639 -63.55065536 285.22340965 C-65.10207067 286.7716574 -66.65289394 288.32049865 -68.2030983 289.86995888 C-70.3804642 292.04513723 -72.56110441 294.21697994 -74.74267578 296.38793945 C-75.37467392 297.02039078 -76.00667206 297.6528421 -76.65782166 298.30445862 C-95.67085282 317.18356959 -117.66892745 331.61280725 -143.89501953 338.08300781 C-145.87925121 338.57312298 -147.85104093 339.11302035 -149.8203125 339.66015625 C-182.41288705 347.44239201 -219.52722852 340.48673138 -248.13671875 323.63671875 C-263.27025601 314.19162529 -276.3753256 302.89983507 -287.13671875 288.63671875 C-287.70390625 287.92 -288.27109375 287.20328125 -288.85546875 286.46484375 C-299.50029807 272.3052123 -306.81622047 255.73202366 -311.13671875 238.63671875 C-311.47445313 237.36957031 -311.8121875 236.10242188 -312.16015625 234.796875 C-316.73644469 214.11960842 -315.93530486 189.94519279 -310.13671875 169.63671875 C-309.83121094 168.51450928 -309.83121094 168.51450928 -309.51953125 167.36962891 C-303.24863962 144.81667685 -291.00525186 125.79420339 -275.0078125 108.92236328 C-274.32024368 108.1949399 -273.63267487 107.46751652 -272.92427063 106.71805 C-264.0535688 97.3821053 -254.93564393 88.29130581 -245.82421875 79.19140625 C-243.91531892 77.28228214 -242.00701858 75.3725591 -240.09863281 73.46292114 C-236.13378683 69.49627546 -232.16688122 65.53169884 -228.19873047 61.56835938 C-223.63303635 57.00813765 -219.07100094 52.44427947 -214.51078129 47.87858379 C-210.55722617 43.92047465 -206.60170611 39.9643371 -202.64456844 36.00980961 C-200.29720123 33.66398827 -197.95068603 31.31732749 -195.6055603 28.96926498 C-192.99857332 26.35972601 -190.38838138 23.7534344 -187.77734375 21.14794922 C-187.01772842 20.38630966 -186.2581131 19.6246701 -185.47547913 18.83995056 C-135.85248965 -30.58866899 -58.21173013 -43.85815283 0 0 Z " fill="#000000" transform="translate(314.13671875,170.36328125)"/>
</svg>
