<?xml version="1.0" encoding="UTF-8"?>
<svg version="1.1" xmlns="http://www.w3.org/2000/svg" width="249" height="122">
<path d="M0 0 C2.375 -0.125 2.375 -0.125 5 0 C5.66 0.66 6.32 1.32 7 2 C9.57061311 2.64767793 9.57061311 2.64767793 12 3 C12.33 2.01 12.66 1.02 13 0 C17.75 0.75 17.75 0.75 20 3 C23.08347826 3.16681109 23.08347826 3.16681109 26 3 C26.33 2.01 26.66 1.02 27 0 C29.375 -0.125 29.375 -0.125 32 0 C32.66 0.66 33.32 1.32 34 2 C36.65537372 2.56520003 39.29144713 2.73788198 42 3 C44.63463787 8.84560277 46.56131481 13.54487966 46 20 C45.34 20 44.68 20 44 20 C44 21.65 44 23.3 44 25 C45.32 25.66 46.64 26.32 48 27 C48 28.32 48 29.64 48 31 C47.01 31.495 47.01 31.495 46 32 C46.14262412 33.5627962 46.28925511 35.12522696 46.4375 36.6875 C46.52 37.6053125 46.6025 38.523125 46.6875 39.46875 C46.91811625 42.0694544 46.91811625 42.0694544 47.9375 44.6875 C48.03312437 48.22560167 46.10555011 49.91354989 43.75390625 52.41796875 C39.98639528 55.81628042 37.03752663 57 32 57 C32 56.34 32 55.68 32 55 C31.030625 55.144375 30.06125 55.28875 29.0625 55.4375 C3.25449621 59.09512269 3.25449621 59.09512269 -4.4375 55.4375 C-8.30760905 51.75617675 -7.93138002 47.79111093 -8.12939453 42.62255859 C-8.13052246 41.47609863 -8.13165039 40.32963867 -8.1328125 39.1484375 C-8.13474609 37.25351563 -8.13474609 37.25351563 -8.13671875 35.3203125 C-8.13285156 34.01835938 -8.12898437 32.71640625 -8.125 31.375 C-8.12886719 30.0653125 -8.13273438 28.755625 -8.13671875 27.40625 C-8.13542969 26.14554688 -8.13414062 24.88484375 -8.1328125 23.5859375 C-8.13168457 22.4417334 -8.13055664 21.2975293 -8.12939453 20.11865234 C-8.01210025 17.29163895 -7.64706097 14.74824208 -7 12 C-7.99 11.67 -8.98 11.34 -10 11 C-8.375 8.0625 -8.375 8.0625 -6 5 C-2.75 4.125 -2.75 4.125 0 4 C0 2.68 0 1.36 0 0 Z M12 7 C17.38640924 13.55377097 23.35885127 19.47246635 29.375 25.4375 C30.40778595 26.46525983 31.44033991 27.49325285 32.47265625 28.52148438 C34.97910287 31.01701598 37.4886708 33.50938082 40 36 C40 31.74183245 37.53869605 29.92770314 34.75 27 C33.9465918 26.14474731 33.9465918 26.14474731 33.12695312 25.2722168 C23.56788475 14.80095705 23.56788475 14.80095705 12 7 Z M24 7 C28.54799625 12.59753384 33.52331848 17.3143947 39 22 C39.78768436 20.18676826 39.78768436 20.18676826 40 18 C38.76560198 16.11937591 38.76560198 16.11937591 36.875 14.5 C36.22660156 13.90058594 35.57820313 13.30117187 34.91015625 12.68359375 C33.96462891 11.85021484 33.96462891 11.85021484 33 11 C32.113125 10.195625 31.22625 9.39125 30.3125 8.5625 C27.91275555 6.62676173 27.91275555 6.62676173 24 7 Z M2 8 C1.66910111 11.11408112 1.66910111 11.11408112 3.94140625 13.19921875 C5.23884766 14.43091797 5.23884766 14.43091797 6.5625 15.6875 C9.58970144 18.6218166 12.53790921 21.52198448 15.25 24.75 C18.6913405 28.76764155 22.39223557 32.50567306 26.125 36.25 C26.72344727 36.85295898 27.32189453 37.45591797 27.93847656 38.07714844 C33.2131114 44.13660736 33.2131114 44.13660736 40 47 C39.47945984 42.98183469 37.6444663 41.48126369 34.6171875 38.921875 C28.87372011 33.92880011 23.49325621 28.64132894 18.125 23.25 C16.74054688 21.87134766 16.74054688 21.87134766 15.328125 20.46484375 C14.43867188 19.57410156 13.54921875 18.68335938 12.6328125 17.765625 C11.83762207 16.96930664 11.04243164 16.17298828 10.22314453 15.35253906 C8 13 8 13 5.83544922 10.20214844 C4.92690186 9.11208496 4.92690186 9.11208496 4 8 C3.34 8 2.68 8 2 8 Z M-3 16 C-3.41725678 19.37400578 -3.41725678 19.37400578 -3 23 C-1.36824656 24.05601065 0.30621442 25.04665421 2 26 C3.7334636 27.575876 5.41997678 29.20455134 7.0625 30.875 C8.31740234 32.13957031 8.31740234 32.13957031 9.59765625 33.4296875 C12 36 12 36 14.04296875 38.64453125 C15.98299898 40.9795377 17.64680663 42.29397054 20.25 43.8125 C20.95640625 44.23144531 21.6628125 44.65039062 22.390625 45.08203125 C23.18726563 45.53642578 23.18726563 45.53642578 24 46 C23.49396008 48.16874252 23.00016187 49.99967627 22 52 C27.32170494 52.29562367 27.32170494 52.29562367 32 50 C31.55197021 49.55720703 31.10394043 49.11441406 30.64233398 48.65820312 C28.57129904 46.60823317 26.50439303 44.55414567 24.4375 42.5 C23.73302734 41.80390625 23.02855469 41.1078125 22.30273438 40.390625 C18.85640375 36.96017608 15.51312746 33.49839108 12.33984375 29.8125 C9.44562388 26.45280517 6.42552714 23.46224596 3.125 20.5 C2.17882812 19.6440625 1.23265625 18.788125 0.2578125 17.90625 C-1.6348626 15.8924813 -1.6348626 15.8924813 -3 16 Z M-4 29 C-3.67 31.97 -3.34 34.94 -3 38 C-2.319375 38.185625 -1.63875 38.37125 -0.9375 38.5625 C3.18431059 40.57955625 6.22461553 43.34652779 9 47 C9.4375 49.9375 9.4375 49.9375 9 52 C11.64 52 14.28 52 17 52 C14.81865416 47.98173134 12.25974187 45.18448087 9 42 C4.66666667 37.66666667 0.33333333 33.33333333 -4 29 Z M-2 45 C-2 46.65 -2 48.3 -2 50 C-0.21771064 51.14209817 -0.21771064 51.14209817 2 52 C3.32 51.67 4.64 51.34 6 51 C3.36 49.02 0.72 47.04 -2 45 Z " fill="#060B0C" transform="translate(138,0)"/>
<path d="M0 0 C4.19469571 0.59924224 8.00999834 1.57499941 12 3 C12.33 2.01 12.66 1.02 13 0 C15.375 -0.125 15.375 -0.125 18 0 C18.66 0.66 19.32 1.32 20 2 C24.23963281 2.31404687 27.36534398 2.32617985 31 0 C31.99 0.66 32.98 1.32 34 2 C36.01304448 2.62585032 36.01304448 2.62585032 38.125 3.0625 C42 4 42 4 43 5 C43.04092937 7.33297433 43.04241723 9.66705225 43 12 C43.99 12 44.98 12 46 12 C46.38063221 14.3260857 46.71269945 16.66055264 47 19 C46.505 19.495 46.505 19.495 46 20 C45.74996036 23.45821402 45.74996036 23.45821402 46 27 C46.66 27.66 47.32 28.32 48 29 C48.125 31.625 48.125 31.625 48 34 C47.01 34.33 46.02 34.66 45 35 C46.07401108 37.91517292 46.77810176 39.77810176 49 42 C48.52932559 46.69972867 45.60670384 50.33587894 42.69238281 53.87451172 C37.44682428 58.01559193 31.22438783 56.99011183 24.875 56.5625 C23.51712766 56.50363833 22.15903891 56.44956498 20.80078125 56.40039062 C18.3021493 56.30734326 15.80417998 56.19156084 13.30810547 56.04516602 C10.06308251 56.00086127 7.18595273 56.43827445 4 57 C1.33203125 56.46875 1.33203125 56.46875 -1.1875 55.5 C-2.02667969 55.2009375 -2.86585937 54.901875 -3.73046875 54.59375 C-6.88120374 52.38118567 -7.90708361 49.576488 -9 46 C-9.40503907 43.20931899 -9.44488299 40.46925099 -9.43359375 37.65234375 C-9.4388356 36.87742081 -9.44407745 36.10249786 -9.44947815 35.30409241 C-9.45586393 33.67629183 -9.45460629 32.04844489 -9.44604492 30.4206543 C-9.43751 27.94040573 -9.46638074 25.46244502 -9.49804688 22.98242188 C-9.49965866 21.39322985 -9.49908178 19.80403378 -9.49609375 18.21484375 C-9.50732773 17.48031479 -9.51856171 16.74578583 -9.53013611 15.98899841 C-9.46139 10.87606673 -8.26077559 7.91708938 -5 4 C-2.8125 3.3125 -2.8125 3.3125 -1 3 C-0.67 2.01 -0.34 1.02 0 0 Z M25 7 C29.3690343 12.24284116 33.83277764 17.51941304 39 22 C39.66 22 40.32 22 41 22 C40.49393362 16.26458101 37.12768948 12.99041919 33.0625 9.1875 C30.4242014 7.66847959 28.00239085 7.34118078 25 7 Z M0 8 C4.54065206 13.44305294 9.35078389 18.50260354 14.375 23.5 C15.09171875 24.22058594 15.8084375 24.94117187 16.546875 25.68359375 C20.63649604 29.7658328 24.82890103 33.65627789 29.20556641 37.42822266 C31.57199758 39.50102318 33.79336716 41.69638852 36 43.9375 C36.763125 44.70964844 37.52625 45.48179688 38.3125 46.27734375 C38.869375 46.84582031 39.42625 47.41429687 40 48 C40.33 47.01 40.66 46.02 41 45 C39.50341097 43.47580995 38.00251195 41.95585169 36.5 40.4375 C35.24703125 39.16712891 35.24703125 39.16712891 33.96875 37.87109375 C31.81318646 35.73793732 29.56906823 33.74941445 27.265625 31.77734375 C21.40704774 26.70300184 16.09533319 21.07116934 10.71484375 15.5 C9.50248047 14.26636719 9.50248047 14.26636719 8.265625 13.0078125 C7.54149414 12.26160645 6.81736328 11.51540039 6.07128906 10.74658203 C3.96978558 8.97452216 2.68670696 8.38673444 0 8 Z M13 8 C20.07061822 19.20471518 31.02619004 28.6841267 42 36 C41.44686621 32.11050366 39.71871007 30.37329977 36.9375 27.6875 C36.12410156 26.89859375 35.31070313 26.1096875 34.47265625 25.296875 C31.68490123 22.70730162 28.81463328 20.23487804 25.9140625 17.7734375 C23.19479558 15.25395346 20.92088159 12.42064223 18.640625 9.50390625 C16.87950057 7.54951691 16.87950057 7.54951691 13 8 Z M-2 17 C-2 19.31 -2 21.62 -2 24 C-1.29617187 23.87625 -0.59234375 23.7525 0.1328125 23.625 C4.37252653 24.17951301 6.23174004 26.90362187 8.875 30 C9.39803711 30.59433838 9.92107422 31.18867676 10.45996094 31.80102539 C11.50214213 32.98677235 12.53937466 34.17688954 13.57128906 35.37158203 C14.78880427 36.75928307 16.0575487 38.1017606 17.3359375 39.43359375 C21.90170972 44.21367772 21.90170972 44.21367772 22.4375 48.5 C22.293125 49.325 22.14875 50.15 22 51 C25.3 51 28.6 51 32 51 C30.22938688 47.45877376 29.22267537 46.01753156 26.4375 43.4609375 C25.72754883 42.80254883 25.01759766 42.14416016 24.28613281 41.46582031 C23.53170898 40.77584961 22.77728516 40.08587891 22 39.375 C20.45194618 37.94137603 18.90506697 36.50648264 17.359375 35.0703125 C16.60978516 34.37454102 15.86019531 33.67876953 15.08789062 32.96191406 C11.65664647 29.73770008 8.35983958 26.39177741 5.078125 23.015625 C2.83502224 20.83998398 0.46726722 18.91515148 -2 17 Z M-3 25 C-3 29.62 -3 34.24 -3 39 C-1.35 39 0.3 39 2 39 C4.23828125 40.57421875 4.23828125 40.57421875 6.3125 42.6875 C7.00988281 43.37199219 7.70726562 44.05648437 8.42578125 44.76171875 C10.28730647 47.40850274 10.32722507 48.83312684 10 52 C13.465 51.505 13.465 51.505 17 51 C14.81250698 44.57060036 11.34191719 40.91068111 6.4375 36.3125 C5.07754843 35.02163346 3.72190038 33.72621432 2.37109375 32.42578125 C1.77224365 31.86286377 1.17339355 31.29994629 0.55639648 30.7199707 C-1 29 -1 29 -3 25 Z M-3 43 C-3.33 44.65 -3.66 46.3 -4 48 C-2.16715557 49.12516085 -2.16715557 49.12516085 0 50 C0.99 49.67 1.98 49.34 3 49 C1.35830472 46.97945196 -0.30911778 44.97956942 -2 43 C-2.33 43 -2.66 43 -3 43 Z " fill="#060704" transform="translate(74,0)"/>
<path d="M0 0 C3.875 0.875 3.875 0.875 5 2 C8.34173582 1.9584643 11.67244973 1.8722893 15.00976562 1.69726562 C18.62351043 1.60799654 20.53840454 1.63042438 23.41015625 3.9296875 C23.93480469 4.61289063 24.45945313 5.29609375 25 6 C25.53625 6.433125 26.0725 6.86625 26.625 7.3125 C29.75159179 11.14968084 30.29140554 16.19180862 30 21 C29.01 21 28.02 21 27 21 C27.309375 22.051875 27.61875 23.10375 27.9375 24.1875 C28.75685094 27.12752396 29.45483931 30.00161623 30 33 C29.01 33.33 28.02 33.66 27 34 C28.12697043 38.96911366 28.12697043 38.96911366 31 43 C30.625 45.625 30.625 45.625 30 48 C29.34 48 28.68 48 28 48 C27.896875 48.598125 27.79375 49.19625 27.6875 49.8125 C26.89363064 52.33844795 26.04427591 53.34885407 24 55 C20.92320873 56.02559709 18.80478728 56.12907163 15.58203125 56.1328125 C14.49929932 56.13498779 13.41656738 56.13716309 12.30102539 56.1394043 C11.14981201 56.13465088 9.99859863 56.12989746 8.8125 56.125 C7.64388428 56.12089111 6.47526855 56.11678223 5.27124023 56.11254883 C-1.30144863 56.07035513 -7.87172457 56.00655504 -14.4375 55.6875 C-16.26087891 55.60048828 -16.26087891 55.60048828 -18.12109375 55.51171875 C-21.21028315 54.96262267 -22.18203793 54.49584624 -24 52 C-25.41365465 49.17269071 -25.09382076 46.82267403 -25.0625 43.6640625 C-25.05476562 42.37113281 -25.04703125 41.07820313 -25.0390625 39.74609375 C-25.02060465 37.70164396 -25.00032837 35.65721979 -24.97949219 33.61279297 C-24.90703417 25.83499719 -24.99809359 18.27755393 -26.07421875 10.56396484 C-25.97823992 7.24827499 -25.00430895 5.61024964 -23 3 C-18.61465619 1.26241094 -14.70093958 0.6642186 -10 1 C-9.67 1.33 -9.34 1.66 -9 2 C-7.65252916 2.23075082 -6.29622435 2.41153063 -4.9375 2.5625 C-3.638125 2.706875 -2.33875 2.85125 -1 3 C-0.67 2.01 -0.34 1.02 0 0 Z M-19 6 C-19.33 6.99 -19.66 7.98 -20 9 C-19.29617187 9.38671875 -18.59234375 9.7734375 -17.8671875 10.171875 C-14.6368716 12.23153146 -11.90624993 14.63893067 -9.125 17.25 C-8.33283081 17.98633667 -8.33283081 17.98633667 -7.5246582 18.73754883 C-2.37017894 23.54876524 2.65339646 28.39630881 7.25 33.75 C10.32044728 37.31115803 13.5582285 40.67038109 16.875 44 C17.36387695 44.49338867 17.85275391 44.98677734 18.35644531 45.49511719 C20.33527585 47.93329542 20.33527585 47.93329542 23 49 C23.38238563 46.68204842 23.38238563 46.68204842 23 44 C21.06004792 41.71075989 21.06004792 41.71075989 18.4375 39.6875 C15.31112355 37.0313863 12.41341462 34.48534348 9.8125 31.3125 C5.79325949 26.53545519 1.18410934 22.40168487 -3.40698242 18.18676758 C-4.02549072 17.61853271 -4.64399902 17.05029785 -5.28125 16.46484375 C-5.89484375 15.90265137 -6.5084375 15.34045898 -7.140625 14.76123047 C-9.67203061 12.36344159 -12.0624326 9.83761096 -14.43945312 7.28735352 C-16.04852949 5.68182288 -16.04852949 5.68182288 -19 6 Z M-4 6 C0.13153818 11.86140986 4.75404461 17.13558384 9.6328125 22.38671875 C12 25 12 25 14.0703125 27.65625 C15.85340041 29.82194382 17.43937857 31.25727404 19.75 32.8125 C20.8225 33.534375 21.895 34.25625 23 35 C22.60707304 30.05543418 20.12360512 27.56749374 16.72265625 24.26171875 C16.19610947 23.73608841 15.66956268 23.21045807 15.12705994 22.66889954 C14.01626686 21.56413136 12.90063389 20.46421079 11.78051758 19.36889648 C10.06135991 17.68638421 8.35888131 15.98827845 6.65820312 14.28710938 C5.57646234 13.21519486 4.49381096 12.14419834 3.41015625 11.07421875 C2.64288963 10.3102906 2.64288963 10.3102906 1.86012268 9.53092957 C-0.61858901 6.80916627 -0.61858901 6.80916627 -4 6 Z M14 11 C14.93137592 12.29608947 15.8703566 13.58671632 16.8125 14.875 C17.59560547 15.95394531 17.59560547 15.95394531 18.39453125 17.0546875 C20.03272777 19.23028655 20.03272777 19.23028655 23 21 C21.60846256 16.57238086 19.47928514 14.0443745 16 11 C15.34 11 14.68 11 14 11 Z M-20 16 C-20.33 18.97 -20.66 21.94 -21 25 C-20.278125 25.103125 -19.55625 25.20625 -18.8125 25.3125 C-12.84986069 26.77003405 -9.13315461 30.60547227 -5 34.875 C-4.49210937 35.39191406 -3.98421875 35.90882812 -3.4609375 36.44140625 C-2.45536154 37.46503101 -1.45292646 38.49175196 -0.45385742 39.52172852 C0.94499637 40.94407272 2.38400744 42.32657975 3.82421875 43.70703125 C6.19909363 46.2098168 6.7096064 47.6120747 7 51 C1.28186993 49.6520324 -1.50320605 46.95281411 -5.375 42.8125 C-6.51116312 41.63622363 -7.6491786 40.46173356 -8.7890625 39.2890625 C-9.33594727 38.72348633 -9.88283203 38.15791016 -10.44628906 37.57519531 C-13.44889762 34.53106734 -16.61430093 31.61535743 -20 29 C-20.33 29 -20.66 29 -21 29 C-21 32.3 -21 35.6 -21 39 C-19.35 39 -17.7 39 -16 39 C-13.54296875 40.609375 -13.54296875 40.609375 -11.1875 42.75 C-10.39730469 43.44609375 -9.60710937 44.1421875 -8.79296875 44.859375 C-7 47 -7 47 -7 51 C0.16165702 52.1936095 6.81042579 52.43791484 14 51 C8.84843922 43.46572464 2.52787904 37.25666628 -3.93334961 30.86083984 C-5.83060687 28.98206956 -7.71950963 27.09518751 -9.60742188 25.20703125 C-10.80681691 24.01254394 -12.00666977 22.81851612 -13.20703125 21.625 C-13.77363968 21.05950439 -14.34024811 20.49400879 -14.92402649 19.91137695 C-17.10567166 17.22694721 -17.10567166 17.22694721 -20 16 Z M-20 44 C-20 45.65 -20 47.3 -20 49 C-17.525 49.99 -17.525 49.99 -15 51 C-14.58811897 47.15328527 -14.58811897 47.15328527 -16.375 45.25 C-17.92251592 43.79676308 -17.92251592 43.79676308 -20 44 Z " fill="#050507" transform="translate(218,0)"/>
<path d="M0 0 C4.875 0.875 4.875 0.875 6 2 C9.45821402 2.25003964 9.45821402 2.25003964 13 2 C13.66 1.34 14.32 0.68 15 0 C19.55555556 0.55555556 19.55555556 0.55555556 21 2 C22.99958364 2.04080783 25.00045254 2.04254356 27 2 C27.33 1.34 27.66 0.68 28 0 C32.98707699 0.64349381 37.76650886 2.28664275 42 5 C44.46176077 9.1542213 45.54285609 13.19998899 46 18 C45.505 18.495 45.505 18.495 45 19 C44.7501088 23.41474453 44.99461646 26.12292516 47 30 C46.625 32.25 46.625 32.25 46 34 C45.34 34 44.68 34 44 34 C44.32960216 39.01535052 44.32960216 39.01535052 47 43 C47.125 45.625 47.125 45.625 47 48 C45.02 48.495 45.02 48.495 43 49 C42.896875 49.61875 42.79375 50.2375 42.6875 50.875 C42 53 42 53 39 55 C36.18513123 55.26544205 33.460856 55.42104164 30.640625 55.484375 C29.81802185 55.5084845 28.9954187 55.53259399 28.14788818 55.55743408 C26.4063351 55.60572464 24.66464035 55.64911767 22.92285156 55.68798828 C20.27342833 55.74945645 17.62531162 55.83263661 14.9765625 55.91796875 C13.28128397 55.96225754 11.58597144 56.0052671 9.890625 56.046875 C9.10496155 56.07279724 8.3192981 56.09871948 7.50982666 56.12542725 C2.5982585 56.2151838 -1.35557307 55.63663632 -6 54 C-8.37161966 51.62838034 -7.78350656 46.13039617 -8.0625 42.9375 C-8.15192871 41.92357178 -8.24135742 40.90964355 -8.33349609 39.86499023 C-9.24176252 28.57913108 -9.19534132 17.31326747 -9 6 C-3.25 4 -3.25 4 -1 4 C-0.67 2.68 -0.34 1.36 0 0 Z M25 6 C26.61010527 10.07376031 29.53822271 12.76507069 32.625 15.75 C33.3984375 16.50990234 33.3984375 16.50990234 34.1875 17.28515625 C35.45383339 18.52803902 36.7263144 19.76465276 38 21 C38.93819998 19.3065103 38.93819998 19.3065103 39 17 C37.50355903 14.85280214 36.09656753 13.1251165 34.3125 11.25 C33.86455078 10.74339844 33.41660156 10.23679687 32.95507812 9.71484375 C31.47036471 8.05826817 31.47036471 8.05826817 29 6 C27.68 6 26.36 6 25 6 Z M0 7 C-0.30496112 9.94545137 -0.30496112 9.94545137 1.25039673 11.62461853 C1.83630585 12.20989822 2.42221497 12.79517792 3.02587891 13.39819336 C4.01788803 14.39954567 4.01788803 14.39954567 5.02993774 15.42112732 C5.75482391 16.13680374 6.47971008 16.85248016 7.2265625 17.58984375 C7.96699799 18.33077774 8.70743347 19.07171173 9.4703064 19.83509827 C11.04220722 21.40465494 12.61781101 22.97051038 14.19677734 24.53295898 C16.60292481 26.9156401 18.99561452 29.31121763 21.38671875 31.70898438 C22.9158781 33.2325627 24.44580203 34.7553741 25.9765625 36.27734375 C26.68930328 36.99099594 27.40204407 37.70464813 28.13638306 38.43992615 C31.87763327 42.12875222 35.50532635 45.27043221 40 48 C39.4234559 44.59986814 38.39002339 43.07329515 35.875 40.75 C33.39004239 38.43681365 31.13457759 36.02227159 28.92578125 33.44921875 C24.28068226 28.09795589 19.30745374 23.08530017 14.3125 18.0625 C13.36650609 17.09573284 12.42054237 16.12893614 11.47460938 15.16210938 C10.57162109 14.25396484 9.66863281 13.34582031 8.73828125 12.41015625 C7.51685425 11.17471069 7.51685425 11.17471069 6.27075195 9.91430664 C4.06194965 8.05222527 2.8214254 7.37152743 0 7 Z M12 7 C15.80014774 11.554787 19.65665546 15.95279259 24 20 C24.66 20 25.32 20 26 20 C26.21398438 20.54140625 26.42796875 21.0828125 26.6484375 21.640625 C28.48077943 24.8392797 30.99796606 27.20964484 33.625 29.75 C34.140625 30.25660156 34.65625 30.76320313 35.1875 31.28515625 C36.45383339 32.52803902 37.7263144 33.76465276 39 35 C39.92499268 33.27706479 39.92499268 33.27706479 40 31 C38.11878943 28.40535529 38.11878943 28.40535529 35.390625 25.8671875 C34.66670563 25.15032272 34.66670563 25.15032272 33.92816162 24.41897583 C32.38008965 22.89227745 30.81526058 21.38404957 29.25 19.875 C28.20985455 18.85135966 27.17077814 17.82663183 26.1328125 16.80078125 C20.05120395 9.88940614 20.05120395 9.88940614 12 7 Z M-3 17 C-3 19.31 -3 21.62 -3 24 C-1.95005859 24.05414063 -1.95005859 24.05414063 -0.87890625 24.109375 C3.27541275 25.3945646 5.26183466 28.03011558 8.0625 31.25 C8.57876953 31.82363281 9.09503906 32.39726563 9.62695312 32.98828125 C11.92333771 35.55672159 14.11561258 38.14881829 16.23046875 40.87109375 C18.14265393 43.17162559 19.0734724 43.68644347 22 44 C22 46.31 22 48.62 22 51 C25.41656024 51.16677282 25.41656024 51.16677282 29 51 C29.66 50.34 30.32 49.68 31 49 C26.6202848 44.51545119 22.16479465 40.21327946 17.4140625 36.125 C14.14039836 33.24332801 10.94520362 30.28065213 7.75 27.3125 C7.14720215 26.75344971 6.5444043 26.19439941 5.92333984 25.6184082 C2.89294661 22.79795439 -0.09725141 19.95304374 -3 17 Z M-4 24 C-4 28.29 -4 32.58 -4 37 C-3.113125 37.391875 -2.22625 37.78375 -1.3125 38.1875 C2.12099103 40.06620264 4.29000698 42.2147294 7 45 C7.66 45 8.32 45 9 45 C8.67 46.98 8.34 48.96 8 51 C10.97 51 13.94 51 17 51 C13.95535522 47.36127819 10.91179338 43.86031365 7.5 40.5625 C-2.58836047 30.58623242 -2.58836047 30.58623242 -3 24 C-3.33 24 -3.66 24 -4 24 Z M-2 45 C-2 46.32 -2 47.64 -2 49 C-0.35 49.33 1.3 49.66 3 50 C1.35 48.35 -0.3 46.7 -2 45 Z " fill="#120A06" transform="translate(9,0)"/>
<path d="M0 0 C3.43601665 0.75534715 3.43601665 0.75534715 10.5625 0.5 C10.5625 12.38 10.5625 24.26 10.5625 36.5 C7.5925 36.5 4.6225 36.5 1.5625 36.5 C1.5625 33.2 1.5625 29.9 1.5625 26.5 C0.9025 26.83 0.2425 27.16 -0.4375 27.5 C-5.35936834 28.03998915 -9.33162318 28.00267128 -13.875 25.9375 C-17.49969063 22.48962355 -19.27470383 19.33166666 -19.56640625 14.2578125 C-19.24431105 8.4600989 -17.61591203 5.48406729 -13.4375 1.5 C-9.44219994 -1.42988671 -4.69213141 -0.96248849 0 0 Z M-8.3125 8.5 C-10.79273982 11.38878833 -10.79273982 11.38878833 -10.4375 15.1875 C-9.74366669 18.75539113 -9.74366669 18.75539113 -6.4375 20.5 C-3.64226326 20.84940459 -2.0726646 20.87233787 0.375 19.4375 C2.21400018 16.43702602 1.86921285 13.93518387 1.5625 10.5 C-0.11886031 7.3891283 -0.11886031 7.3891283 -2.75 6.5 C-5.65350812 6.2442107 -5.65350812 6.2442107 -8.3125 8.5 Z " fill="#191919" transform="translate(107.4375,85.5)"/>
<path d="M0 0 C3.19703003 2.06030824 4.88118647 3.52211399 6.8125 6.8125 C7.1425 9.7825 7.4725 12.7525 7.8125 15.8125 C1.5425 16.1425 -4.7275 16.4725 -11.1875 16.8125 C-9.26714439 19.17686613 -9.26714439 19.17686613 -5.875 19 C-2.84000325 18.84567813 -0.13028081 18.52590141 2.8125 17.8125 C3.8025 19.4625 4.7925 21.1125 5.8125 22.8125 C3.20175144 25.67189128 1.26742997 26.69373021 -2.67578125 27.015625 C-12.58511969 27.18009535 -12.58511969 27.18009535 -17.1875 23.8125 C-20.27597593 20.39892134 -21.45181338 17.77544163 -21.625 13.25 C-21.42854984 9.34719024 -20.73300172 6.88465725 -18.1875 3.8125 C-12.57212826 -1.24133457 -7.28559605 -2.71424167 0 0 Z M-9.1875 5.8125 C-10.6725 7.7925 -10.6725 7.7925 -12.1875 9.8125 C-8.5575 9.8125 -4.9275 9.8125 -1.1875 9.8125 C-1.5175 8.8225 -1.8475 7.8325 -2.1875 6.8125 C-4.4975 6.4825 -6.8075 6.1525 -9.1875 5.8125 Z " fill="#191919" transform="translate(177.1875,86.1875)"/>
<path d="M0 0 C3.20887887 2.06794416 4.92612398 3.4750655 6.8125 6.8125 C6.8125 9.7825 6.8125 12.7525 6.8125 15.8125 C0.8725 16.1425 -5.0675 16.4725 -11.1875 16.8125 C-11.1875 17.4725 -11.1875 18.1325 -11.1875 18.8125 C-9.77094207 18.8397415 -8.35422955 18.85900467 -6.9375 18.875 C-6.14859375 18.88660156 -5.3596875 18.89820312 -4.546875 18.91015625 C-2.28058998 18.81635306 -0.3586105 18.44491063 1.8125 17.8125 C3.1325 19.4625 4.4525 21.1125 5.8125 22.8125 C3.12696345 25.75380194 1.14548357 26.69516667 -2.89453125 27.05078125 C-13.45411361 27.30314863 -13.45411361 27.30314863 -18.1875 22.8125 C-21.57198332 18.97675223 -21.70724499 15.17785971 -21.53125 10.25 C-21.00530954 6.52060402 -19.76866456 4.52603197 -17.1875 1.8125 C-11.33537335 -1.50002452 -6.36004118 -2.3694271 0 0 Z M-12.1875 7.8125 C-12.1875 8.4725 -12.1875 9.1325 -12.1875 9.8125 C-8.5575 9.8125 -4.9275 9.8125 -1.1875 9.8125 C-3.61618323 5.59905457 -3.61618323 5.59905457 -6.6875 5.4375 C-9.43121063 5.66793074 -9.43121063 5.66793074 -12.1875 7.8125 Z " fill="#191919" transform="translate(242.1875,86.1875)"/>
<path d="M0 0 C2.7315471 1.77868183 4.0011314 2.99985631 5.6875 5.75 C6.02807617 8.13183594 6.02807617 8.13183594 5.98046875 10.734375 C5.97080078 11.66894531 5.96113281 12.60351562 5.95117188 13.56640625 C5.92603516 14.53449219 5.90089844 15.50257812 5.875 16.5 C5.85469727 17.97533203 5.85469727 17.97533203 5.83398438 19.48046875 C5.79868726 21.90420415 5.74938054 24.32682145 5.6875 26.75 C2.35416667 26.75 -0.97916667 26.75 -4.3125 26.75 C-5.11300781 26.80800781 -5.91351563 26.86601563 -6.73828125 26.92578125 C-14.4975916 27.29327227 -14.4975916 27.29327227 -18.5 24.625 C-20.65913968 21.20015775 -21.13880866 19.71628159 -20.3125 15.75 C-18.5625 12.9375 -18.5625 12.9375 -15.3125 10.75 C-11.31363205 10.04278798 -7.36878669 9.82116292 -3.3125 9.75 C-4.58777175 8.16151742 -4.58777175 8.16151742 -6.3125 6.75 C-9.88693924 7.00531709 -12.91615077 7.61788359 -16.3125 8.75 C-19.3125 4 -19.3125 4 -19.3125 1.75 C-12.50060523 -1.16938347 -7.23893915 -2.73167515 0 0 Z M-10.3125 15.75 C-10.90320014 17.69603274 -10.90320014 17.69603274 -11.3125 19.75 C-10.26546435 21.00676839 -10.26546435 21.00676839 -7.9375 21 C-5.2851652 20.97966657 -5.2851652 20.97966657 -3.5 19.375 C-2.1158278 17.81631217 -2.1158278 17.81631217 -2.3125 15.75 C-4.9525 15.75 -7.5925 15.75 -10.3125 15.75 Z " fill="#191919" transform="translate(52.3125,86.25)"/>
<path d="M0 0 C2.97 0 5.94 0 9 0 C9.33 6.27 9.66 12.54 10 19 C13.465 18.505 13.465 18.505 17 18 C18.585869 14.828262 18.37866445 11.36486178 18.5625 7.875 C18.60568359 7.12089844 18.64886719 6.36679688 18.69335938 5.58984375 C18.7994832 3.72678112 18.90025001 1.86341476 19 0 C21.97 0 24.94 0 28 0 C28 8.91 28 17.82 28 27 C24.33333333 27 20.66666667 27 17 27 C15.90751953 27.05220703 15.90751953 27.05220703 14.79296875 27.10546875 C5.7411941 27.39045716 5.7411941 27.39045716 2 24 C-0.6425609 19.2692616 -0.22687685 14.44199441 -0.125 9.1875 C-0.11597656 8.30384766 -0.10695313 7.42019531 -0.09765625 6.50976562 C-0.07419637 4.33972641 -0.03832865 2.16982753 0 0 Z " fill="#1A1A1A" transform="translate(124,86)"/>
<path d="M0 0 C2.64 0 5.28 0 8 0 C8.06058594 1.04800781 8.12117187 2.09601563 8.18359375 3.17578125 C8.26801738 4.55470048 8.35266447 5.93360605 8.4375 7.3125 C8.47681641 8.00279297 8.51613281 8.69308594 8.55664062 9.40429688 C8.74927415 12.47161535 9.02322717 15.06968152 10 18 C13.58327753 19.00217064 13.58327753 19.00217064 17 18 C18.18695553 14.43913342 18.35095418 11.02668976 18.5625 7.3125 C18.60568359 6.61060547 18.64886719 5.90871094 18.69335938 5.18554688 C18.7991736 3.45724794 18.90006581 1.7286489 19 0 C21.64 0 24.28 0 27 0 C27 8.91 27 17.82 27 27 C23.33333333 27 19.66666667 27 16 27 C14.85917969 27.06960937 14.85917969 27.06960937 13.6953125 27.140625 C6.73785079 27.4366872 6.73785079 27.4366872 2.9375 25.1875 C0.10204739 21.98618254 -0.12387207 19.44791471 -0.09765625 15.33203125 C-0.09443359 14.43935547 -0.09121094 13.54667969 -0.08789062 12.62695312 C-0.07951172 11.69818359 -0.07113281 10.76941406 -0.0625 9.8125 C-0.05798828 8.87212891 -0.05347656 7.93175781 -0.04882812 6.96289062 C-0.03704626 4.64186288 -0.02059558 2.32096356 0 0 Z " fill="#191919" transform="translate(189,86)"/>
<path d="M0 0 C-0.8125 2.9375 -0.8125 2.9375 -2 6 C-2.99 6.33 -3.98 6.66 -5 7 C-5.66 6.67 -6.32 6.34 -7 6 C-9.3329866 5.95977609 -11.66706666 5.95679753 -14 6 C-14.33 6.66 -14.66 7.32 -15 8 C-14.25234375 8.10957031 -13.5046875 8.21914062 -12.734375 8.33203125 C-11.74953125 8.49058594 -10.7646875 8.64914063 -9.75 8.8125 C-8.77546875 8.96332031 -7.8009375 9.11414063 -6.796875 9.26953125 C-3.83815453 10.0422697 -2.23215511 10.93718079 0 13 C1.36847827 16.37557974 1.09444082 17.74650095 -0.1875 21.1875 C-2.12504303 24.19403229 -2.74927302 24.80732713 -6 26 C-9.05859375 26.265625 -9.05859375 26.265625 -12.4375 26.25 C-13.54996094 26.25515625 -14.66242188 26.2603125 -15.80859375 26.265625 C-18.947009 26.00441051 -21.16835425 25.33378454 -24 24 C-23.67 22.02 -23.34 20.04 -23 18 C-19.72445926 16.90815309 -18.73940625 17.11145141 -15.5 17.9375 C-12.82210164 18.61143775 -10.78655709 19 -8 19 C-8.33 18.34 -8.66 17.68 -9 17 C-12.01592512 16.1807487 -15.05313187 15.58937363 -18.1171875 14.9765625 C-21.3961269 13.86581067 -22.40418175 13.03485436 -24 10 C-23.92944302 6.04880893 -23.60164569 3.78836332 -21.1875 0.625 C-14.94549722 -4.01191635 -6.89049943 -2.29683314 0 0 Z " fill="#191919" transform="translate(86,87)"/>
<path d="M0 0 C10.23 0 20.46 0 31 0 C31 2.31 31 4.62 31 7 C27.37 7 23.74 7 20 7 C20 16.24 20 25.48 20 35 C17.03 35 14.06 35 11 35 C11 25.76 11 16.52 11 7 C7.37 7 3.74 7 0 7 C0 4.69 0 2.38 0 0 Z " fill="#1A1A1A" transform="translate(1,78)"/>
<path d="M0 0 C3.69382354 1.31844875 5.99591605 3.77933711 8.703125 6.54296875 C9.60160156 7.45240234 10.50007813 8.36183594 11.42578125 9.29882812 C12.36756931 10.26134531 13.30897355 11.22423819 14.25 12.1875 C19.76842764 17.81070792 25.25978439 23.36332287 31.24902344 28.48706055 C33.77092627 30.66612244 36.13396187 32.96471834 38.5 35.3125 C39.3559375 36.15425781 40.211875 36.99601562 41.09375 37.86328125 C43 40 43 40 43 42 C39.86729194 42.52211801 37.12449352 42.62879823 34 42 C30.89361597 39.72661281 28.54401616 36.87095799 26 34 C24.79054048 32.91512 23.56108248 31.8521147 22.3125 30.8125 C16.74183673 26.02659287 11.64678147 20.7378868 6.49731445 15.50830078 C5.07707542 14.07764095 3.63289249 12.6708677 2.1875 11.265625 C-0.92789551 8.03896537 -2 5.46218042 -2 1 C-1.34 0.67 -0.68 0.34 0 0 Z " fill="#A9DC87" transform="translate(72,8)"/>
<path d="M0 0 C3.0134134 1.34960292 5.08946105 2.84758125 7.40405273 5.19287109 C8.04829697 5.84049408 8.6925412 6.48811707 9.35630798 7.15536499 C10.38456444 8.20381088 10.38456444 8.20381088 11.43359375 9.2734375 C12.14854507 9.99359039 12.8634964 10.71374329 13.60011292 11.45571899 C15.88404231 13.75744889 18.16118386 16.06574256 20.4375 18.375 C22.71107893 20.67626147 24.98611821 22.97602898 27.26417542 25.27285767 C28.68050749 26.70137313 30.09415798 28.13255372 31.50474548 29.56674194 C34.24370775 32.33333477 36.84687914 34.88559632 39.97290039 37.22119141 C40.64184326 37.80819824 41.31078613 38.39520508 42 39 C42 40.32 42 41.64 42 43 C37.90520595 43 35.24106204 42.97852969 31.96875 40.3984375 C30.61403501 39.00609153 29.28306278 37.59037507 27.97265625 36.15625 C26.21077925 34.23039633 24.42626792 32.55879487 22.4375 30.875 C18.29025092 27.29892894 14.26516342 23.59782755 10.25 19.875 C9.5995874 19.27671387 8.9491748 18.67842773 8.27905273 18.06201172 C-0.8710724 9.54713121 -0.8710724 9.54713121 -1.3125 4.25 C-1 1 -1 1 0 0 Z " fill="#FD9853" transform="translate(6,8)"/>
<path d="M0 0 C2.375 -0.125 2.375 -0.125 5 0 C5.66 0.66 6.32 1.32 7 2 C9.57061311 2.64767793 9.57061311 2.64767793 12 3 C12.33 2.01 12.66 1.02 13 0 C17.75 0.75 17.75 0.75 20 3 C23.08347826 3.16681109 23.08347826 3.16681109 26 3 C26.33 2.01 26.66 1.02 27 0 C28.65 0 30.3 0 32 0 C32.66 1.32 33.32 2.64 34 4 C29.84409264 6.07795368 27.25324317 7.13333227 22.546875 7.24609375 C21.45246094 7.27896484 20.35804688 7.31183594 19.23046875 7.34570312 C16.9258707 7.40648658 14.62117903 7.46382631 12.31640625 7.51757812 C11.21683594 7.55173828 10.11726563 7.58589844 8.984375 7.62109375 C7.47955566 7.65867798 7.47955566 7.65867798 5.94433594 7.69702148 C2.73390727 8.02738152 0.01737276 8.87816347 -3 10 C-3.19206929 27.81516191 -3.19206929 27.81516191 -2.12109375 45.5859375 C-2 48 -2 48 -3 50 C-3.66 50 -4.32 50 -5 50 C-4.67 51.32 -4.34 52.64 -4 54 C-4.99 53.67 -5.98 53.34 -7 53 C-7.74610047 48.33890956 -8.12817 43.86721005 -8.1328125 39.1484375 C-8.13474609 37.25351563 -8.13474609 37.25351563 -8.13671875 35.3203125 C-8.13285156 34.01835938 -8.12898437 32.71640625 -8.125 31.375 C-8.12886719 30.0653125 -8.13273438 28.755625 -8.13671875 27.40625 C-8.13542969 26.14554688 -8.13414062 24.88484375 -8.1328125 23.5859375 C-8.13168457 22.4417334 -8.13055664 21.2975293 -8.12939453 20.11865234 C-8.01210025 17.29163895 -7.64706097 14.74824208 -7 12 C-7.99 11.67 -8.98 11.34 -10 11 C-8.375 8.0625 -8.375 8.0625 -6 5 C-2.75 4.125 -2.75 4.125 0 4 C0 2.68 0 1.36 0 0 Z " fill="#080E10" transform="translate(138,0)"/>
<path d="M0 0 C5.09512633 0.36866406 7.81991549 3.15946894 11.3125 6.5625 C11.88500488 7.10680664 12.45750977 7.65111328 13.04736328 8.21191406 C14.70857434 9.79763684 16.35594921 11.39651738 18 13 C18.78503906 13.75667969 19.57007813 14.51335938 20.37890625 15.29296875 C24.14420935 18.98458686 27.63669878 22.83824335 31.05859375 26.84765625 C34.2128062 30.34457991 37.64444665 33.55963118 41.05859375 36.80078125 C43 39 43 39 43 42 C36.12593657 42.73571057 36.12593657 42.73571057 33.36572266 40.93212891 C31.73757111 39.29965435 30.27269408 37.59700514 28.8125 35.8125 C27.62382101 34.44067465 26.42942602 33.07378893 25.23046875 31.7109375 C24.57353027 30.96166992 23.9165918 30.21240234 23.23974609 29.44042969 C20.72912821 26.70485781 18.09952914 24.11289124 15.42578125 21.5390625 C14.94693985 21.07519638 14.46809845 20.61133026 13.9747467 20.13340759 C11.58305787 17.81814788 9.18007161 15.51832723 6.75708008 13.2355957 C5.88075928 12.38312256 5.00443848 11.53064941 4.1015625 10.65234375 C3.31088379 9.89945068 2.52020508 9.14655762 1.70556641 8.37084961 C-0.43080467 5.40115315 -0.33859678 3.57848428 0 0 Z " fill="#A9A9FE" transform="translate(197,9)"/>
<path d="M0 0 C3.91209308 1.59415503 6.37218086 4.13893332 9.3125 7.125 C9.80250488 7.6214502 10.29250977 8.11790039 10.79736328 8.62939453 C13.41619539 11.30352366 15.94707138 14.02720402 18.375 16.875 C21.60319607 20.65034794 25.05788647 24.17106984 28.5625 27.6875 C29.10503418 28.2345459 29.64756836 28.7815918 30.20654297 29.34521484 C33.65199173 32.7781233 37.22131233 35.93727421 41 39 C40.34 40.65 39.68 42.3 39 44 C34.86043905 43.48715389 32.94017677 42.431909 30.0390625 39.46484375 C29.31976563 38.73716797 28.60046875 38.00949219 27.859375 37.25976562 C27.12203125 36.49341797 26.3846875 35.72707031 25.625 34.9375 C24.89539063 34.19822266 24.16578125 33.45894531 23.4140625 32.69726562 C19.94518912 29.15715645 16.5877004 25.56115124 13.36328125 21.796875 C9.88221921 17.76209842 6.02512395 14.34658629 1.92382812 10.95898438 C-0.53792859 8.8146729 -1.90080592 7.56811154 -2.47265625 4.29296875 C-2 2 -2 2 0 0 Z " fill="#7DE4FD" transform="translate(136,8)"/>
<path d="M0 0 C4.21543735 -0.79453269 7.79688574 -0.94106851 12 0 C16.39589883 3.42880109 19.6243366 7.59556299 23 12 C24.5784219 13.96229411 26.16145028 15.92089569 27.75 17.875 C28.82507813 19.21498047 28.82507813 19.21498047 29.921875 20.58203125 C32.68142347 23.79285926 35.71946098 26.33456205 39 29 C40.60725635 32.21451269 40.05748185 35.43612536 40 39 C34.3176646 35.02882242 29.60986852 30.72479617 25 25.5625 C20.83857455 21.00025893 16.70569164 16.64843456 11.953125 12.69140625 C7.7449828 9.0471551 3.8006502 5.0654496 0 1 C0 0.67 0 0.34 0 0 Z " fill="#A9A9FD" transform="translate(202,6)"/>
<path d="M0 0 C3.84811065 -0.47516283 7.4417117 -0.86199868 10.92333984 1.06393433 C12.79720292 2.62709302 14.49314601 4.27111187 16.1875 6.02734375 C16.8160791 6.64968399 17.4446582 7.27202423 18.09228516 7.91322327 C19.41059217 9.22979448 20.71776201 10.55760211 22.01416016 11.89575195 C23.99320641 13.93051515 26.01355907 15.91599695 28.04296875 17.90039062 C29.3230406 19.19000614 30.6004779 20.48224317 31.875 21.77734375 C32.47594482 22.36523178 33.07688965 22.95311981 33.69604492 23.55882263 C37.9941284 28.07859962 38.98763945 31.7985896 39 38 C30.25108473 33.75741535 23.60008189 25.78647361 16.78955078 18.97485352 C15.24398677 17.43149535 13.69055796 15.89634922 12.13671875 14.36132812 C11.13753213 13.36507323 10.13881741 12.36834478 9.140625 11.37109375 C8.24891602 10.48349365 7.35720703 9.59589355 6.43847656 8.68139648 C3.91599667 5.90762829 1.99335177 3.16367771 0 0 Z " fill="#80E4FE" transform="translate(141,7)"/>
<path d="M0 0 C7.18887135 -0.65840568 7.18887135 -0.65840568 10.80078125 2.2734375 C11.62964844 3.29695312 12.45851563 4.32046875 13.3125 5.375 C14.24689103 6.48290198 15.18580623 7.58700206 16.12890625 8.6875 C16.60086426 9.244375 17.07282227 9.80125 17.55908203 10.375 C19.80032738 12.90257185 22.23791505 15.11446814 24.75 17.375 C25.64847656 18.18710937 26.54695313 18.99921875 27.47265625 19.8359375 C29.89771967 21.97708575 29.89771967 21.97708575 32.24609375 23.6015625 C36.81992251 26.89619167 36.81992251 26.89619167 37.421875 30.5859375 C37.43595895 33.09992284 37.31040822 35.50688003 37 38 C32.24915725 33.98345212 27.60912586 29.87114997 23.0625 25.625 C22.43077881 25.0357373 21.79905762 24.44647461 21.14819336 23.83935547 C13.58781485 16.73951233 6.28580771 9.37975286 -1 2 C-0.67 1.34 -0.34 0.68 0 0 Z " fill="#AADE88" transform="translate(79,8)"/>
<path d="M0 0 C3.69126436 -0.73825287 5.43365923 -0.99677221 9 0 C12.93268858 3.17296465 16.26843828 6.72298101 19.63012695 10.48266602 C22.54171408 13.70767297 25.63185172 16.67656608 28.89453125 19.54296875 C36.65553098 26.57669943 36.65553098 26.57669943 37.7109375 30.9375 C37.69004979 33.38832501 37.51395958 35.60671346 37 38 C32.16618314 34.13294651 28.04435486 29.93400634 23.91748047 25.32397461 C18.24980212 19.06095189 12.21218578 13.16360977 6.19824219 7.2355957 C5.39676758 6.44241943 4.59529297 5.64924316 3.76953125 4.83203125 C3.04354736 4.11764893 2.31756348 3.4032666 1.56958008 2.66723633 C0 1 0 1 0 0 Z " fill="#FE9954" transform="translate(12,7)"/>
<path d="M0 0 C2.87525669 -0.05425013 5.74947646 -0.09379277 8.625 -0.125 C9.43324219 -0.14175781 10.24148437 -0.15851562 11.07421875 -0.17578125 C15.80093815 -0.21420986 19.55387702 0.17262906 24 2 C24 3.65 24 5.3 24 7 C24.66 7 25.32 7 26 7 C26 13.27 26 19.54 26 26 C21.87194537 22.46166746 17.97413195 19.10127913 14.16015625 15.29296875 C13.32548828 14.45958984 12.49082031 13.62621094 11.63085938 12.76757812 C10.78330078 11.91615234 9.93574219 11.06472656 9.0625 10.1875 C8.18787109 9.31673828 7.31324219 8.44597656 6.41210938 7.54882812 C5.58646484 6.72189453 4.76082031 5.89496094 3.91015625 5.04296875 C3.15871338 4.29039795 2.40727051 3.53782715 1.63305664 2.76245117 C0 1 0 1 0 0 Z M16 5 C16.93137592 6.29608947 17.8703566 7.58671632 18.8125 8.875 C19.59560547 9.95394531 19.59560547 9.95394531 20.39453125 11.0546875 C22.03272777 13.23028655 22.03272777 13.23028655 25 15 C23.60846256 10.57238086 21.47928514 8.0443745 18 5 C17.34 5 16.68 5 16 5 Z " fill="#A7A7FA" transform="translate(216,6)"/>
<path d="M0 0 C4.54317298 0.67079617 6.89515273 3.55952346 9.9375 6.75 C10.44990234 7.2759375 10.96230469 7.801875 11.49023438 8.34375 C12.99788863 9.89163391 14.499222 11.44545228 16 13 C18.80463172 15.88346012 21.49436028 18.53534529 24.8125 20.8125 C25.864375 21.534375 26.91625 22.25625 28 23 C27.42655063 25.86724686 27.1385485 26.8614515 25 29 C22.75 29.5625 22.75 29.5625 20 29 C17.67514927 26.90489922 15.72095991 24.6139666 14 22 C14 21.34 14 20.68 14 20 C13.15308594 19.64228516 13.15308594 19.64228516 12.2890625 19.27734375 C9.50714848 17.72497876 7.60516668 15.83368981 5.375 13.5625 C4.59898437 12.78003906 3.82296875 11.99757813 3.0234375 11.19140625 C-0.93543566 6.90390076 -0.93543566 6.90390076 -1.1875 3.375 C-1 1 -1 1 0 0 Z " fill="#7EE5FF" transform="translate(135,23)"/>
<path d="M0 0 C6.4687393 0.92410561 10.6939984 5.45117093 15 9.9375 C17.8340256 12.86863054 20.59074603 15.6750042 23.7890625 18.21484375 C26.35759827 20.28873217 27.16595867 21.83064295 28 25 C27.67 25.66 27.34 26.32 27 27 C24.92578125 27.41015625 24.92578125 27.41015625 22 27 C19.45091728 25.08409414 17.35216289 22.77014379 15.1875 20.4375 C13.95012085 19.14372164 12.71055281 17.85203302 11.46875 16.5625 C10.87449219 15.94246094 10.28023437 15.32242188 9.66796875 14.68359375 C7.07897309 12.0703452 4.26733979 9.76867732 1.35546875 7.52734375 C-0.47584655 5.46381556 -0.72880807 3.7074735 -1 1 C-0.67 0.67 -0.34 0.34 0 0 Z " fill="#AAAAFF" transform="translate(198,24)"/>
<path d="M0 0 C3.4608784 0.43852972 5.01173533 1.69213372 7.3125 4.23828125 C7.91320313 4.89376953 8.51390625 5.54925781 9.1328125 6.22460938 C9.74898437 6.91361328 10.36515625 7.60261719 11 8.3125 C12.22864337 9.6632366 13.45779629 11.01350991 14.6875 12.36328125 C15.26242188 12.9970166 15.83734375 13.63075195 16.4296875 14.28369141 C19.82147866 18.1430979 19.82147866 18.1430979 24 21 C24 23.31 24 25.62 24 28 C22.21630859 28.68139648 22.21630859 28.68139648 20 29 C18.26416016 27.86352539 18.26416016 27.86352539 16.5390625 26.09765625 C15.90226562 25.45376953 15.26546875 24.80988281 14.609375 24.14648438 C13.95453125 23.45876953 13.2996875 22.77105469 12.625 22.0625 C11.97789063 21.40958984 11.33078125 20.75667969 10.6640625 20.08398438 C-0.80889251 8.32189239 -0.80889251 8.32189239 -1.22021484 3.32446289 C-1 1 -1 1 0 0 Z " fill="#FE9953" transform="translate(7,23)"/>
<path d="M0 0 C3.7955557 0.10130487 5.04553852 1.04225031 7.8671875 3.66015625 C8.88181969 4.78352285 9.88396371 5.9182631 10.875 7.0625 C11.39803711 7.65160156 11.92107422 8.24070312 12.45996094 8.84765625 C13.50138274 10.0223955 14.53860116 11.20087642 15.57128906 12.38330078 C16.79693295 13.7702136 18.06277345 15.12142148 19.3359375 16.46484375 C19.96757813 17.13644531 20.59921875 17.80804688 21.25 18.5 C21.79140625 19.0671875 22.3328125 19.634375 22.890625 20.21875 C24.36606114 22.58776014 24.27380374 24.26196258 24 27 C23 28 23 28 20.59375 28.29296875 C18 28 18 28 16.65625 26.48828125 C16.2746875 25.77027344 15.893125 25.05226563 15.5 24.3125 C12.23905011 18.86895667 7.97808043 14.84514654 3.31835938 10.60668945 C-0.90190492 6.6229898 -0.90190492 6.6229898 -1.4453125 3.171875 C-1 1 -1 1 0 0 Z " fill="#ABDE88" transform="translate(73,23)"/>
<path d="M0 0 C3.875 0.875 3.875 0.875 5 2 C8.34173582 1.9584643 11.67244973 1.8722893 15.00976562 1.69726562 C18.62351043 1.60799654 20.53840454 1.63042438 23.41015625 3.9296875 C23.93480469 4.61289063 24.45945313 5.29609375 25 6 C25.53625 6.433125 26.0725 6.86625 26.625 7.3125 C29.75159179 11.14968084 30.29140554 16.19180862 30 21 C28.68 21 27.36 21 26 21 C24.23537317 17.91190305 24 16.76687864 24 13 C23.34 13 22.68 13 22 13 C22 11.35 22 9.7 22 8 C9.36223088 6.81913489 -3.3202066 6.46094866 -16 6 C-15.67 5.34 -15.34 4.68 -15 4 C-15.66 3.34 -16.32 2.68 -17 2 C-16 1 -16 1 -13 0.875 C-10 1 -10 1 -9 2 C-7.65252916 2.23075082 -6.29622435 2.41153063 -4.9375 2.5625 C-3.638125 2.706875 -2.33875 2.85125 -1 3 C-0.67 2.01 -0.34 1.02 0 0 Z " fill="#191926" transform="translate(218,0)"/>
<path d="M0 0 C3.58230016 -0.85594783 6.42098209 -0.9308239 10 0 C14.09145643 2.89975774 17.33809655 6.81483853 20.62475586 10.56738281 C22.13354291 12.22668951 22.13354291 12.22668951 24.8359375 14.03125 C27 16 27 16 27.48828125 18.796875 C27.43027344 19.77140625 27.37226563 20.7459375 27.3125 21.75 C27.24482422 23.22726563 27.24482422 23.22726563 27.17578125 24.734375 C27.11777344 25.48203125 27.05976563 26.2296875 27 27 C23.92765535 24.76556753 21.4222351 22.39943353 19 19.5 C15.16385506 14.9833859 10.84920418 11.07200542 6.44335938 7.125 C3.92508499 4.85408274 1.89169574 2.83754361 0 0 Z " fill="#7FE4FE" transform="translate(152,7)"/>
<path d="M0 0 C3.97504467 -0.556915 7.50764708 -0.94007341 11.00683594 1.26416016 C12.91479916 3.03001934 14.65247936 4.86555295 16.375 6.8125 C16.97699219 7.45509766 17.57898438 8.09769531 18.19921875 8.75976562 C19.31601254 9.95456164 20.42325437 11.15841814 21.51708984 12.37426758 C22.98999692 14.03131602 22.98999692 14.03131602 24.67163086 15.56835938 C26 17 26 17 26.29296875 19.26171875 C26.25816406 20.06222656 26.22335938 20.86273437 26.1875 21.6875 C26.16042969 22.49574219 26.13335937 23.30398437 26.10546875 24.13671875 C26.07066406 24.75160156 26.03585938 25.36648437 26 26 C7.20740741 10.26666667 7.20740741 10.26666667 0 1 C0 0.67 0 0.34 0 0 Z " fill="#ABDE89" transform="translate(90,7)"/>
<path d="M0 0 C3.45209579 -0.50010241 6.55983194 -0.64661015 10 0 C12.19689992 1.69740356 13.61750935 3.48982774 15.26171875 5.72265625 C17.1106116 8.14491362 19.14325302 9.940581 21.4375 11.9375 C23.73787757 14.16696034 24.86792026 15.34369678 25.50390625 18.50390625 C25.50042336 20.72947458 25.29801297 22.7997146 25 25 C19.7994284 20.66169934 14.98927083 16.0842462 10.25 11.25 C8.94508065 9.91954406 7.63788029 8.59132052 6.328125 7.265625 C5.7599707 6.68586914 5.19181641 6.10611328 4.60644531 5.50878906 C2.86760047 3.7923534 2.86760047 3.7923534 0 2 C0 1.34 0 0.68 0 0 Z " fill="#FD9854" transform="translate(24,6)"/>
<path d="M0 0 C6.15234375 -0.09765625 6.15234375 -0.09765625 8 0 C9 1 9 1 9.0625 4.0625 C9.041875 5.031875 9.02125 6.00125 9 7 C9.66 7 10.32 7 11 7 C11 6.34 11 5.68 11 5 C12.32 5 13.64 5 15 5 C15.38063221 7.3260857 15.71269945 9.66055264 16 12 C15.67 12.33 15.34 12.66 15 13 C14.74996036 16.45821402 14.74996036 16.45821402 15 20 C15.66 20.66 16.32 21.32 17 22 C17.125 24.625 17.125 24.625 17 27 C13.25 28.125 13.25 28.125 11 27 C10.65182148 24.61334039 10.3975585 22.2738795 10.1875 19.875 C9.49554705 13.55665111 8.43747164 9.64877981 4 5 C2.68824014 3.97186389 1.3630107 2.95915568 0 2 C0 1.34 0 0.68 0 0 Z " fill="#192014" transform="translate(105,7)"/>
<path d="M0 0 C4.26377576 0.50866097 6.33650972 1.74539623 9.375 4.75 C10.08398438 5.42546875 10.79296875 6.1009375 11.5234375 6.796875 C13 9 13 9 12.7265625 11.765625 C12.36691406 12.87164062 12.36691406 12.87164062 12 14 C8.67935642 14.39032126 7.40075228 14.31605721 4.7265625 12.20703125 C4.03304687 11.41683594 3.33953125 10.62664063 2.625 9.8125 C1.91601562 9.03519531 1.20703125 8.25789063 0.4765625 7.45703125 C-1 5 -1 5 -0.7265625 2.19921875 C-0.48679687 1.47347656 -0.24703125 0.74773438 0 0 Z " fill="#A9DD87" transform="translate(72,38)"/>
<path d="M0 0 C4.875 0.875 4.875 0.875 6 2 C9.45821402 2.25003964 9.45821402 2.25003964 13 2 C13.66 1.34 14.32 0.68 15 0 C17.87687481 0.22129806 19.53951144 0.63478494 21.8125 2.4375 C23 4 23 4 23 6 C16.62641289 6.96205088 10.44070471 7.10655578 4 7 C3.67 6.34 3.34 5.68 3 5 C0.97536745 4.34786708 0.97536745 4.34786708 -1 4 C-0.67 2.68 -0.34 1.36 0 0 Z " fill="#120B06" transform="translate(9,0)"/>
<path d="M0 0 C4.04311253 0.40568646 6.24373332 1.63325088 9.25 4.3125 C9.93578125 4.90675781 10.6215625 5.50101563 11.328125 6.11328125 C13.10450969 8.11793968 13.60727845 9.38378142 14 12 C12.3125 12.6875 12.3125 12.6875 10 13 C7.5625 11.8125 7.5625 11.8125 5 10 C4.0925 9.38125 3.185 8.7625 2.25 8.125 C-0.29684273 5.71964854 -0.81319166 4.45595431 -1 1 C-0.67 0.67 -0.34 0.34 0 0 Z " fill="#A8A8FC" transform="translate(198,38)"/>
<path d="M0 0 C4.01297627 0.53412644 6.25905505 1.60483112 9.3125 4.25 C10.00988281 4.83265625 10.70726562 5.4153125 11.42578125 6.015625 C13.39455938 8.49736021 13.31431892 9.91008519 13 13 C11.26171875 13.6875 11.26171875 13.6875 9 14 C5.32296974 11.92612765 1.73313087 9.01320065 0.26171875 4.97265625 C0 3.0625 0 3.0625 0 0 Z " fill="#FD9853" transform="translate(5,37)"/>
<path d="M0 0 C4.26377576 0.50866097 6.33650972 1.74539623 9.375 4.75 C10.08398438 5.42546875 10.79296875 6.1009375 11.5234375 6.796875 C13 9 13 9 12.7265625 11.765625 C12.36691406 12.87164062 12.36691406 12.87164062 12 14 C6.86223062 13.10899045 3.31918581 9.88818909 0 6 C-0.5 2.5625 -0.5 2.5625 0 0 Z " fill="#7FE5FF" transform="translate(135,38)"/>
<path d="M0 0 C1.6254308 0.14095064 3.25034051 0.28792087 4.875 0.4375 C5.77992188 0.51871094 6.68484375 0.59992187 7.6171875 0.68359375 C10 1 10 1 12 2 C12 3.65 12 5.3 12 7 C12.66 7 13.32 7 14 7 C14 9.64 14 12.28 14 15 C13.505 14.319375 13.01 13.63875 12.5 12.9375 C9.78575553 9.74826274 6.83499049 7.20543925 3.609375 4.55078125 C3.07828125 4.03902344 2.5471875 3.52726563 2 3 C2 2.34 2 1.68 2 1 C1.34 0.67 0.68 0.34 0 0 Z " fill="#A0A0F0" transform="translate(228,6)"/>
<path d="M0 0 C1.6026782 -0.10824843 3.20745748 -0.18570645 4.8125 -0.25 C5.70582031 -0.29640625 6.59914062 -0.3428125 7.51953125 -0.390625 C10 0 10 0 11.8125 1.75 C13.68391993 5.29584829 13.19806715 8.038657 13 12 C12.56429687 11.62488281 12.12859375 11.24976563 11.6796875 10.86328125 C11.08414063 10.35152344 10.48859375 9.83976562 9.875 9.3125 C8.92560547 8.49652344 8.92560547 8.49652344 7.95703125 7.6640625 C6.17588663 6.14955629 4.37365561 4.66581794 2.5625 3.1875 C1.716875 2.465625 0.87125 1.74375 0 1 C0 0.67 0 0.34 0 0 Z " fill="#79DAF2" transform="translate(166,7)"/>
<path d="M0 0 C6.0546875 -0.1953125 6.0546875 -0.1953125 8 0 C10 2 10 2 10.1953125 4.1640625 C10.17210937 4.97617188 10.14890625 5.78828125 10.125 6.625 C10.10695313 7.44226563 10.08890625 8.25953125 10.0703125 9.1015625 C10.03550781 10.04128906 10.03550781 10.04128906 10 11 C5.86062408 7.69984002 2.41337795 4.82675589 0 0 Z " fill="#FA9851" transform="translate(38,6)"/>
<path d="M0 0 C2.64 0 5.28 0 8 0 C9.29243536 4.1196377 10.26252625 7.66831683 10 12 C8.66666667 10.66666667 7.33333333 9.33333333 6 8 C5.113125 7.154375 4.22625 6.30875 3.3125 5.4375 C1 3 1 3 0 0 Z " fill="#A9DA89" transform="translate(105,7)"/>
<path d="M0 0 C1.22589844 0.15275391 1.22589844 0.15275391 2.4765625 0.30859375 C3.41628906 0.43427734 3.41628906 0.43427734 4.375 0.5625 C1.3913065 3.98686208 -1.1498384 4.14031494 -5.625 4.5625 C-5.955 3.2425 -6.285 1.9225 -6.625 0.5625 C-4.10446405 -0.69776798 -2.7707902 -0.35624445 0 0 Z " fill="#020100" transform="translate(10.625,4.4375)"/>
<path d="M0 0 C3.1875 0.375 3.1875 0.375 5.5625 2.875 C6.09875 3.7 6.635 4.525 7.1875 5.375 C3.8875 5.375 0.5875 5.375 -2.8125 5.375 C-2.4825 4.715 -2.1525 4.055 -1.8125 3.375 C-2.4725 2.715 -3.1325 2.055 -3.8125 1.375 C-2.8125 0.375 -2.8125 0.375 0 0 Z " fill="#5E5E8E" transform="translate(204.8125,0.625)"/>
<path d="M0 0 C1.9375 0.6875 1.9375 0.6875 4 2 C4.75 4.625 4.75 4.625 5 7 C4.01 7.33 3.02 7.66 2 8 C-0.1519437 4.77208445 -0.20086443 3.71599191 0 0 Z " fill="#9A9AEA" transform="translate(244,40)"/>
<path d="M0 0 C2.875 0.3125 2.875 0.3125 6 1 C6.66 1.99 7.32 2.98 8 4 C5.36 4 2.72 4 0 4 C0 2.68 0 1.36 0 0 Z " fill="#99C87A" transform="translate(74,0)"/>
<path d="M0 0 C0.99 0.33 1.98 0.66 3 1 C3.33 2.98 3.66 4.96 4 7 C2.68 7.33 1.36 7.66 0 8 C0 5.36 0 2.72 0 0 Z " fill="#E58C4A" transform="translate(52,26)"/>
<path d="M0 0 C1.65 0 3.3 0 5 0 C5.66 1.32 6.32 2.64 7 4 C4.69 4 2.38 4 0 4 C-0.33 3.34 -0.66 2.68 -1 2 C-0.67 1.34 -0.34 0.68 0 0 Z " fill="#76E8FE" transform="translate(165,0)"/>
<path d="M0 0 C2.3125 -0.25 2.3125 -0.25 5 0 C6.8125 2 6.8125 2 8 4 C5.36 4 2.72 4 0 4 C0 2.68 0 1.36 0 0 Z " fill="#73CBE3" transform="translate(138,0)"/>
<path d="M0 0 C2.375 0.3125 2.375 0.3125 5 1 C5.66 1.99 6.32 2.98 7 4 C4.36 4 1.72 4 -1 4 C-0.67 2.68 -0.34 1.36 0 0 Z " fill="#FC9754" transform="translate(9,0)"/>
<path d="M0 0 C1.98 0.99 1.98 0.99 4 2 C3.67 3.65 3.34 5.3 3 7 C2.01 7 1.02 7 0 7 C0 4.69 0 2.38 0 0 Z " fill="#9696E1" transform="translate(244,27)"/>
<path d="M0 0 C2.375 0.3125 2.375 0.3125 5 1 C5.66 1.99 6.32 2.98 7 4 C4.69 4 2.38 4 0 4 C0 2.68 0 1.36 0 0 Z " fill="#7FE3FD" transform="translate(151,0)"/>
<path d="M0 0 C3.5625 0.1875 3.5625 0.1875 5.5625 2.1875 C2.79999964 3.56875018 0.61518901 3.37829306 -2.4375 3.1875 C-3.0975 2.5275 -3.7575 1.8675 -4.4375 1.1875 C-3.4375 0.1875 -3.4375 0.1875 0 0 Z " fill="#010202" transform="translate(162.4375,3.8125)"/>
<path d="M0 0 C1.98 0.99 1.98 0.99 4 2 C4 3.32 4 4.64 4 6 C3.01 6.33 2.02 6.66 1 7 C0 6 0 6 -0.0625 2.9375 C-0.041875 1.968125 -0.02125 0.99875 0 0 Z " fill="#76D2EA" transform="translate(182,25)"/>
<path d="M0 0 C1.32 0.99 2.64 1.98 4 3 C3.625 4.9375 3.625 4.9375 3 7 C2.01 7.495 2.01 7.495 1 8 C0.67 5.36 0.34 2.72 0 0 Z " fill="#ADE08C" transform="translate(119,39)"/>
<path d="M0 0 C0.33 0 0.66 0 1 0 C1.22151549 1.79008467 1.42682213 3.58218162 1.625 5.375 C1.74101563 6.37273438 1.85703125 7.37046875 1.9765625 8.3984375 C1.98429687 9.25695313 1.99203125 10.11546875 2 11 C1.34 11.66 0.68 12.32 0 13 C-0.83796731 8.34462607 -1.0161692 4.62921525 0 0 Z " fill="#000000" transform="translate(117,28)"/>
<path d="M0 0 C1.485 0.99 1.485 0.99 3 2 C3.1875 4.625 3.1875 4.625 3 7 C2.01 7.33 1.02 7.66 0 8 C0 5.36 0 2.72 0 0 Z " fill="#A9DE86" transform="translate(119,27)"/>
<path d="M0 0 C0.66 0.33 1.32 0.66 2 1 C2 3.31 2 5.62 2 8 C1.01 8 0.02 8 -1 8 C-0.67 5.36 -0.34 2.72 0 0 Z " fill="#74CDE5" transform="translate(182,12)"/>
<path d="M0 0 C2.64 0.33 5.28 0.66 8 1 C6 3 6 3 2.875 3.125 C1.451875 3.063125 1.451875 3.063125 0 3 C0 2.01 0 1.02 0 0 Z " fill="#000000" transform="translate(32,3)"/>
<path d="M0 0 C2.475 0.99 2.475 0.99 5 2 C4.67 2.66 4.34 3.32 4 4 C2.02 4 0.04 4 -2 4 C-1.34 2.68 -0.68 1.36 0 0 Z " fill="#A7DA84" transform="translate(103,0)"/>
<path d="M0 0 C2.375 -0.1875 2.375 -0.1875 5 0 C5.66 0.99 6.32 1.98 7 3 C4.36 3 1.72 3 -1 3 C-0.67 2.01 -0.34 1.02 0 0 Z " fill="#AAE088" transform="translate(87,0)"/>
<path d="M0 0 C1.485 0.99 1.485 0.99 3 2 C3.1875 4.625 3.1875 4.625 3 7 C2.01 7 1.02 7 0 7 C0 4.69 0 2.38 0 0 Z " fill="#AAAAF8" transform="translate(245,14)"/>
<path d="M0 0 C0.99 0 1.98 0 3 0 C2.49396008 2.16874252 2.00016187 3.99967627 1 6 C0.34 6 -0.32 6 -1 6 C-1.042721 4.33388095 -1.04063832 2.66617115 -1 1 C-0.67 0.67 -0.34 0.34 0 0 Z " fill="#F19151" transform="translate(1,5)"/>
<path d="M0 0 C2.4375 0.375 2.4375 0.375 5 1 C5.33 1.66 5.66 2.32 6 3 C3.36 3 0.72 3 -2 3 C-1.34 2.01 -0.68 1.02 0 0 Z " fill="#FF9854" transform="translate(24,0)"/>
<path d="M0 0 C1.485 0.99 1.485 0.99 3 2 C3.1875 4.625 3.1875 4.625 3 7 C2.01 7.33 1.02 7.66 0 8 C0 5.36 0 2.72 0 0 Z " fill="#FD9854" transform="translate(53,41)"/>
</svg>
