<svg width="265" height="80" viewBox="0 0 265 80" fill="none" xmlns="http://www.w3.org/2000/svg" role="img" aria-label="checkpost">
  <rect x="8" y="16" width="48" height="48" rx="7" fill="#1A2E2A"/>
  <circle cx="32" cy="40" r="13.5" fill="none" stroke="#A0C461" stroke-width="4"/>
  <path d="M84.438 33.858Q87.94 33.858 90.235 35.608999999999995Q92.53 37.36 93.312 40.522H88.178Q87.77 39.298 86.80099999999999 38.601Q85.832 37.903999999999996 84.404 37.903999999999996Q82.364 37.903999999999996 81.174 39.382999999999996Q79.984 40.861999999999995 79.984 43.582Q79.984 46.268 81.174 47.747Q82.364 49.226 84.404 49.226Q87.294 49.226 88.178 46.641999999999996H93.312Q92.53 49.702 90.218 51.504Q87.906 53.306 84.438 53.306Q81.718 53.306 79.61 52.099000000000004Q77.502 50.892 76.312 48.699Q75.122 46.506 75.122 43.582Q75.122 40.658 76.312 38.465Q77.502 36.272 79.61 35.065Q81.718 33.858 84.438 33.858ZM114.766 41.95V53.0H110.006V42.596000000000004Q110.006 40.352 108.884 39.144999999999996Q107.762 37.938 105.82400000000001 37.938Q103.852 37.938 102.713 39.144999999999996Q101.574 40.352 101.574 42.596000000000004V53.0H96.81400000000001V27.84H101.574V36.51Q102.492 35.286 104.022 34.589Q105.552 33.891999999999996 107.422 33.891999999999996Q109.56400000000001 33.891999999999996 111.23 34.827Q112.896 35.762 113.831 37.581Q114.766 39.4 114.766 41.95ZM136.662 45.01H122.89200000000001Q123.06200000000001 47.05 124.32000000000001 48.206Q125.578 49.362 127.41400000000002 49.362Q130.066 49.362 131.18800000000002 47.084H136.322Q135.506 49.804 133.19400000000002 51.555Q130.882 53.306 127.516 53.306Q124.796 53.306 122.637 52.099000000000004Q120.47800000000001 50.892 119.27100000000002 48.682Q118.06400000000001 46.472 118.06400000000001 43.582Q118.06400000000001 40.658 119.254 38.448Q120.444 36.238 122.58600000000001 35.048Q124.72800000000001 33.858 127.516 33.858Q130.202 33.858 132.327 35.013999999999996Q134.452 36.17 135.625 38.295Q136.798 40.42 136.798 43.174Q136.798 44.194 136.662 45.01ZM131.868 41.814Q131.834 39.978 130.542 38.873000000000005Q129.25 37.768 127.38000000000001 37.768Q125.61200000000001 37.768 124.405 38.839Q123.19800000000001 39.91 122.926 41.814ZM148.358 33.858Q151.86 33.858 154.15500000000003 35.608999999999995Q156.45000000000002 37.36 157.23200000000003 40.522H152.098Q151.69000000000003 39.298 150.721 38.601Q149.752 37.903999999999996 148.324 37.903999999999996Q146.28400000000002 37.903999999999996 145.09400000000002 39.382999999999996Q143.90400000000002 40.861999999999995 143.90400000000002 43.582Q143.90400000000002 46.268 145.09400000000002 47.747Q146.28400000000002 49.226 148.324 49.226Q151.21400000000003 49.226 152.098 46.641999999999996H157.23200000000003Q156.45000000000002 49.702 154.13800000000003 51.504Q151.82600000000002 53.306 148.358 53.306Q145.638 53.306 143.53000000000003 52.099000000000004Q141.42200000000003 50.892 140.23200000000003 48.699Q139.04200000000003 46.506 139.04200000000003 43.582Q139.04200000000003 40.658 140.23200000000003 38.465Q141.42200000000003 36.272 143.53000000000003 35.065Q145.638 33.858 148.358 33.858ZM171.886 53.0 165.494 44.976V53.0H160.734V27.84H165.494V42.153999999999996L171.818 34.164H178.006L169.71 43.616L178.074 53.0ZM191.57200000000003 33.858Q193.98600000000002 33.858 195.94100000000003 35.048Q197.89600000000002 36.238 199.03500000000003 38.431Q200.17400000000004 40.623999999999995 200.17400000000004 43.513999999999996Q200.17400000000004 46.403999999999996 199.03500000000003 48.631Q197.89600000000002 50.858 195.94100000000003 52.081999999999994Q193.98600000000002 53.306 191.57200000000003 53.306Q189.49800000000002 53.306 187.91700000000003 52.456Q186.33600000000004 51.606 185.35000000000002 50.314V61.976H180.59000000000003V34.164H185.35000000000002V36.884Q186.26800000000003 35.592 187.88300000000004 34.724999999999994Q189.49800000000002 33.858 191.57200000000003 33.858ZM190.31400000000002 38.04Q189.02200000000002 38.04 187.88300000000004 38.703Q186.74400000000003 39.366 186.04700000000003 40.623999999999995Q185.35000000000002 41.882 185.35000000000002 43.582Q185.35000000000002 45.282 186.04700000000003 46.54Q186.74400000000003 47.798 187.88300000000004 48.461Q189.02200000000002 49.124 190.31400000000002 49.124Q191.64000000000004 49.124 192.77900000000005 48.444Q193.91800000000003 47.763999999999996 194.61500000000004 46.506Q195.31200000000004 45.248 195.31200000000004 43.513999999999996Q195.31200000000004 41.814 194.61500000000004 40.573Q193.91800000000003 39.332 192.77900000000005 38.686Q191.64000000000004 38.04 190.31400000000002 38.04ZM202.452 43.582Q202.452 40.692 203.72699999999998 38.482Q205.00199999999998 36.272 207.212 35.065Q209.422 33.858 212.142 33.858Q214.862 33.858 217.072 35.065Q219.28199999999998 36.272 220.557 38.482Q221.832 40.692 221.832 43.582Q221.832 46.472 220.523 48.682Q219.214 50.892 216.987 52.099000000000004Q214.76 53.306 212.006 53.306Q209.286 53.306 207.11 52.099000000000004Q204.934 50.892 203.69299999999998 48.682Q202.452 46.472 202.452 43.582ZM216.93599999999998 43.582Q216.93599999999998 40.896 215.52499999999998 39.451Q214.114 38.006 212.07399999999998 38.006Q210.034 38.006 208.65699999999998 39.451Q207.28 40.896 207.28 43.582Q207.28 46.268 208.623 47.713Q209.96599999999998 49.158 212.006 49.158Q213.298 49.158 214.437 48.528999999999996Q215.576 47.9 216.25599999999997 46.641999999999996Q216.93599999999998 45.384 216.93599999999998 43.582ZM224.314 47.05H229.108Q229.244 48.138 230.179 48.852000000000004Q231.114 49.566 232.508 49.566Q233.868 49.566 234.63299999999998 49.022000000000006Q235.398 48.478 235.398 47.628Q235.398 46.71 234.463 46.251000000000005Q233.528 45.792 231.488 45.248Q229.38 44.738 228.03699999999998 44.194Q226.694 43.65 225.725 42.528Q224.756 41.406 224.756 39.501999999999995Q224.756 37.938 225.65699999999998 36.646Q226.558 35.354 228.24099999999999 34.605999999999995Q229.924 33.858 232.202 33.858Q235.568 33.858 237.574 35.541Q239.58 37.224 239.784 40.08H235.228Q235.126 38.958 234.293 38.295Q233.46 37.632 232.066 37.632Q230.774 37.632 230.077 38.108000000000004Q229.38 38.584 229.38 39.434Q229.38 40.385999999999996 230.332 40.879Q231.284 41.372 233.29 41.882Q235.33 42.391999999999996 236.656 42.93599999999999Q237.982 43.48 238.95100000000002 44.619Q239.92000000000002 45.757999999999996 239.954 47.628Q239.954 49.26 239.053 50.552Q238.152 51.844 236.469 52.575Q234.786 53.306 232.542 53.306Q230.23 53.306 228.394 52.473Q226.558 51.64 225.487 50.212Q224.416 48.784 224.314 47.05ZM249.406 38.074V47.186Q249.406 48.138 249.865 48.563Q250.324 48.988 251.412 48.988H253.622V53.0H250.63Q244.612 53.0 244.612 47.152V38.074H242.368V34.164H244.612V29.505999999999997H249.406V34.164H253.622V38.074Z" fill="#15201D"/>
</svg>
