<svg width="350" height="90" viewBox="0 0 350 90" fill="none" xmlns="http://www.w3.org/2000/svg">
<g clip-path="url(#clip0_20_13)">
<mask id="mask0_20_13" style="mask-type:luminance" maskUnits="userSpaceOnUse" x="0" y="0" width="113" height="90">
<path d="M0 0V90H113V0H0Z" fill="white"/>
</mask>
<g mask="url(#mask0_20_13)">
<path d="M97.5805 40.125C97.9725 40.5 98.2862 40.8906 98.5222 41.2968C98.7574 41.7032 98.875 42.1562 98.875 42.6562C98.875 43.1562 98.7374 43.6562 98.463 44.1562C98.1885 44.6562 97.8157 45.0938 97.3445 45.4688C93.8922 48.0312 90.3608 49.9218 86.7509 51.1406C83.1411 52.3594 79.3352 52.9688 75.3333 52.9688C72.4298 52.9688 69.3695 52.625 66.1521 51.9375C62.9347 51.25 58.7757 50.0625 53.675 48.375C49.2021 46.9375 45.7689 45.9375 43.3755 45.375C40.9821 44.8125 38.7653 44.5312 36.725 44.5312C34.057 44.5312 31.5654 45 29.2506 45.9375C26.9356 46.875 24.601 48.3438 22.2469 50.3438C21.776 50.7188 21.2267 51.0156 20.599 51.2344C19.9712 51.4532 19.3434 51.5625 18.7156 51.5625C18.0878 51.5625 17.5189 51.4688 17.0089 51.2812C16.4988 51.0938 16.0083 50.8438 15.5375 50.5312C15.0667 50.1562 14.7135 49.7344 14.4781 49.2656C14.2427 48.7968 14.125 48.3125 14.125 47.8125C14.125 47.3125 14.2427 46.8438 14.4781 46.4062C14.7135 45.9688 15.0275 45.5625 15.4198 45.1875C18.6372 42.4375 22.0115 40.3906 25.5427 39.0468C29.074 37.7032 32.8014 37.0312 36.725 37.0312C39.4715 37.0312 42.3554 37.3594 45.3766 38.0156C48.3977 38.6718 52.341 39.8125 57.2063 41.4375C61.9146 43 65.5243 44.0625 68.0354 44.625C70.5465 45.1875 72.94 45.4688 75.2156 45.4688C77.9623 45.4688 80.6105 45.0156 83.1611 44.1094C85.7116 43.2032 88.2814 41.8125 90.8712 39.9375C91.3417 39.625 91.8521 39.375 92.4009 39.1875C92.9506 39 93.5386 38.9062 94.1667 38.9062C94.7947 38.9062 95.4027 39 95.9908 39.1875C96.5796 39.375 97.1093 39.6875 97.5805 40.125ZM97.5805 21.8438C97.9725 22.2188 98.2862 22.6094 98.5222 23.0156C98.7574 23.4218 98.875 23.875 98.875 24.375C98.875 24.875 98.7374 25.375 98.463 25.875C98.1885 26.375 97.8157 26.8125 97.3445 27.1875C93.8922 29.75 90.38 31.6406 86.8101 32.8594C83.2395 34.0782 79.4528 34.6875 75.451 34.6875C72.5475 34.6875 69.448 34.3438 66.1521 33.6562C62.8563 32.9688 58.6972 31.7812 53.675 30.0938C49.2021 28.6562 45.7885 27.6562 43.4344 27.0938C41.0802 26.5312 38.883 26.25 36.8427 26.25C34.1747 26.25 31.6439 26.7188 29.2506 27.6562C26.8571 28.5938 24.5225 30.0625 22.2469 32.0625C21.776 32.4375 21.2464 32.7188 20.6578 32.9062C20.0693 33.0938 19.4611 33.1875 18.8333 33.1875C18.2055 33.1875 17.6366 33.1094 17.1266 32.9532C16.6165 32.7968 16.126 32.5625 15.6552 32.25C15.1844 31.875 14.8116 31.4375 14.537 30.9375C14.2623 30.4375 14.125 29.9375 14.125 29.4375C14.125 28.9375 14.2427 28.4844 14.4781 28.0782C14.7135 27.6718 15.0275 27.2812 15.4198 26.9062C18.6372 24.1562 22.0115 22.1094 25.5427 20.7656C29.074 19.4218 32.8014 18.75 36.725 18.75C39.4715 18.75 42.3554 19.0782 45.3766 19.7344C48.3977 20.3906 52.3802 21.5312 57.324 23.1562C62.0323 24.7188 65.642 25.7812 68.1531 26.3438C70.6642 26.9062 73.0184 27.1875 75.2156 27.1875C77.9623 27.1875 80.6497 26.7188 83.2787 25.7812C85.9077 24.8438 88.4775 23.4375 90.9888 21.5625C91.4593 21.25 91.9697 21.0156 92.5186 20.8594C93.0682 20.7032 93.617 20.625 94.1667 20.625C94.7947 20.625 95.422 20.7188 96.05 20.9062C96.678 21.0938 97.1877 21.4062 97.5805 21.8438ZM97.5805 58.4062C97.9725 58.7812 98.2862 59.1718 98.5222 59.5782C98.7574 59.9844 98.875 60.4375 98.875 60.9375C98.875 61.4375 98.7374 61.9375 98.463 62.4375C98.1885 62.9375 97.8157 63.375 97.3445 63.75C93.8922 66.3125 90.38 68.2032 86.8101 69.4218C83.2395 70.6406 79.4528 71.25 75.451 71.25C72.5475 71.25 69.448 70.9062 66.1521 70.2188C62.8563 69.5312 58.6972 68.3438 53.675 66.6562C49.2021 65.2188 45.7885 64.2188 43.4344 63.6562C41.0802 63.0938 38.883 62.8125 36.8427 62.8125C34.1747 62.8125 31.6439 63.2812 29.2506 64.2188C26.8571 65.1562 24.5225 66.625 22.2469 68.625C21.776 69.0625 21.2464 69.375 20.6578 69.5625C20.0693 69.75 19.4611 69.8438 18.8333 69.8438C18.2055 69.8438 17.617 69.75 17.0677 69.5625C16.5184 69.375 16.0083 69.125 15.5375 68.8125C15.0667 68.4375 14.7135 68.0156 14.4781 67.5468C14.2427 67.0782 14.125 66.5938 14.125 66.0938C14.125 65.5938 14.2427 65.125 14.4781 64.6875C14.7135 64.25 15.0275 63.8438 15.4198 63.4688C18.6372 60.7188 21.9919 58.6718 25.4839 57.3282C28.9759 55.9844 32.723 55.3125 36.725 55.3125C39.4715 55.3125 42.3554 55.625 45.3766 56.25C48.3977 56.875 52.341 58 57.2063 59.625C61.9146 61.1875 65.5243 62.25 68.0354 62.8125C70.5465 63.375 72.94 63.6562 75.2156 63.6562C77.9623 63.6562 80.6497 63.2032 83.2787 62.2968C85.9077 61.3906 88.4775 60 90.9888 58.125C91.4593 57.8125 91.9697 57.5782 92.5186 57.4218C93.0682 57.2656 93.617 57.1875 94.1667 57.1875C94.7947 57.1875 95.422 57.2812 96.05 57.4688C96.678 57.6562 97.1877 57.9688 97.5805 58.4062Z" fill="#155DFC"/>
</g>
</g>
<path d="M115.497 68V63.66L121.377 62.05L120.397 63.45V35.59L121.377 36.71H115.287V32.23L121.237 30.9L120.397 32.16V27.47C120.397 24.11 121.121 21.38 122.567 19.28C124.014 17.18 125.997 15.64 128.517 14.66C131.084 13.68 134.001 13.19 137.267 13.19C139.041 13.19 140.907 13.33 142.867 13.61C144.874 13.89 146.927 14.3333 149.027 14.94L141.537 14.59L153.647 13.89V63.45L152.667 62.05L158.617 63.66V68H140.207V63.66L146.227 62.05L145.247 63.45V19L146.927 20.12C145.294 19.84 143.731 19.6067 142.237 19.42C140.744 19.2333 139.414 19.14 138.247 19.14C135.914 19.14 134.094 19.4433 132.787 20.05C131.527 20.6567 130.594 21.4267 129.987 22.36C129.427 23.2467 129.077 24.1333 128.937 25.02C128.844 25.9067 128.797 26.6533 128.797 27.26V32.16L127.817 31.11H137.827L137.687 36.71H127.817L128.797 35.59V63.45L127.887 62.05L134.747 63.66V68H115.497ZM180.525 29.99C185.938 29.99 190.138 31.6233 193.125 34.89C196.158 38.11 197.675 42.7067 197.675 48.68C197.675 52.8333 196.928 56.4033 195.435 59.39C193.988 62.3767 191.888 64.6867 189.135 66.32C186.428 67.9533 183.162 68.77 179.335 68.77C173.968 68.77 169.792 67.16 166.805 63.94C163.865 60.72 162.395 56.1 162.395 50.08C162.395 45.9267 163.118 42.3567 164.565 39.37C166.012 36.3833 168.088 34.0733 170.795 32.44C173.502 30.8067 176.745 29.99 180.525 29.99ZM180.105 36.01C177.165 36.01 174.925 37.1533 173.385 39.44C171.892 41.7267 171.145 45.1333 171.145 49.66C171.145 54.1867 171.868 57.5 173.315 59.6C174.762 61.7 176.908 62.75 179.755 62.75C181.808 62.75 183.512 62.2367 184.865 61.21C186.218 60.1367 187.245 58.5967 187.945 56.59C188.645 54.5367 188.995 52.04 188.995 49.1C188.995 44.7133 188.225 41.4467 186.685 39.3C185.192 37.1067 182.998 36.01 180.105 36.01ZM242.165 31.04L256.795 30.48V34.82L252.315 36.15L253.435 35.17L244.335 68.14H235.235L227.185 37.06L228.795 37.13L219.905 68.14H210.805L202.195 35.52L203.175 36.36L198.765 35.38V31.04L214.795 30.48V34.82L209.265 36.15L210.175 35.38L216.685 63.1H215.285L223.965 30.97L232.715 30.41L240.835 63.38H239.575L246.575 35.59L247.415 36.43L242.165 35.38V31.04ZM274.483 68.77C271.31 68.77 268.463 68.0233 265.943 66.53C263.423 65.0367 261.44 62.8667 259.993 60.02C258.546 57.1733 257.823 53.7433 257.823 49.73C257.823 46.1367 258.336 43.1033 259.363 40.63C260.39 38.11 261.766 36.08 263.493 34.54C265.266 32.9533 267.25 31.81 269.443 31.11C271.683 30.3633 273.97 29.99 276.303 29.99C278.403 29.99 280.573 30.27 282.813 30.83C285.053 31.3433 286.92 31.9967 288.413 32.79L288.133 42.52H282.673L281.693 36.5L282.393 37.13C281.506 36.7567 280.503 36.4767 279.383 36.29C278.31 36.1033 277.33 36.01 276.443 36.01C274.296 36.01 272.476 36.57 270.983 37.69C269.536 38.7633 268.44 40.28 267.693 42.24C266.946 44.2 266.573 46.5333 266.573 49.24C266.573 52.1333 266.97 54.56 267.763 56.52C268.603 58.48 269.77 59.9733 271.263 61C272.756 62.0267 274.46 62.54 276.373 62.54C277.913 62.54 279.57 62.2133 281.343 61.56C283.116 60.9067 284.96 59.95 286.873 58.69L289.673 63.03C287.153 64.99 284.61 66.4367 282.043 67.37C279.476 68.3033 276.956 68.77 274.483 68.77ZM306.048 68.77C303.108 68.77 300.845 67.8833 299.258 66.11C297.671 64.29 296.878 61.5833 296.878 57.99V35.24L298.068 36.43H291.138V31.88L298.138 30.48L296.878 31.95V22.5L305.348 21.03V31.95L304.368 30.76H315.148L315.008 36.43H304.368L305.348 35.24V56.87C305.348 58.8767 305.698 60.3233 306.398 61.21C307.098 62.0967 308.101 62.54 309.408 62.54C310.201 62.54 311.065 62.4 311.998 62.12C312.931 61.84 313.935 61.49 315.008 61.07L316.618 65.69C312.931 67.7433 309.408 68.77 306.048 68.77ZM331.663 62.96L330.963 62.19L336.633 63.66V68H318.363V63.66L323.963 62.19L323.263 62.96V19.28L323.893 19.98L318.363 18.58V14.24L331.663 13.68V62.96Z" fill="black"/>
<defs>
<clipPath id="clip0_20_13">
<rect width="113" height="90" fill="white"/>
</clipPath>
</defs>
</svg>
