<svg width="207" height="40" viewBox="0 0 114 22" fill="none" xmlns="http://www.w3.org/2000/svg">
<path d="M30.872 20.2211C30.124 20.2211 29.508 19.9938 29.024 19.5391C28.54 19.0844 28.298 18.3658 28.298 17.3831V4.6671H31.004V16.8551C31.004 17.1631 31.0773 17.3831 31.224 17.5151C31.3707 17.6324 31.5613 17.6911 31.796 17.6911C31.9133 17.6911 32.038 17.6838 32.17 17.6691C32.302 17.6398 32.4413 17.6031 32.588 17.5591V19.8911C32.28 20.0084 31.972 20.0891 31.664 20.1331C31.3707 20.1918 31.1067 20.2211 30.872 20.2211Z" fill="#1A1A1A"/>
<path d="M33.783 20.0011V9.1551H36.511V20.0011H33.783ZM33.695 7.4831V4.6671H36.621V7.4831H33.695Z" fill="#1A1A1A"/>
<path d="M44.3676 20.2211C43.825 20.2211 43.297 20.1184 42.7836 19.9131C42.285 19.6931 41.845 19.3338 41.4636 18.8351C41.0823 18.3218 40.7963 17.6398 40.6056 16.7891L41.2656 17.0971V20.0011H38.5376V4.6671H41.2656V12.0811L40.6936 12.2571C40.8256 11.5091 41.0676 10.8931 41.4196 10.4091C41.7863 9.91043 42.2263 9.54377 42.7396 9.3091C43.253 9.05976 43.7956 8.9351 44.3676 8.9351C45.2183 8.9351 45.9956 9.16243 46.6996 9.6171C47.4036 10.0571 47.961 10.6951 48.3716 11.5311C48.7823 12.3671 48.9876 13.3791 48.9876 14.5671C48.9876 15.6378 48.8043 16.6058 48.4376 17.4711C48.071 18.3218 47.5356 18.9964 46.8316 19.4951C46.1423 19.9791 45.321 20.2211 44.3676 20.2211ZM43.6196 17.7131C44.1623 17.7131 44.6243 17.5884 45.0056 17.3391C45.4016 17.0751 45.7096 16.7084 45.9296 16.2391C46.1496 15.7698 46.2596 15.2124 46.2596 14.5671C46.2596 13.9218 46.1496 13.3718 45.9296 12.9171C45.7096 12.4478 45.4016 12.0884 45.0056 11.8391C44.6243 11.5751 44.1623 11.4431 43.6196 11.4431C43.0916 11.4431 42.6296 11.5751 42.2336 11.8391C41.8523 12.0884 41.5516 12.4478 41.3316 12.9171C41.1263 13.3864 41.0236 13.9364 41.0236 14.5671C41.0236 15.1978 41.1263 15.7478 41.3316 16.2171C41.5516 16.6864 41.8523 17.0531 42.2336 17.3171C42.6296 17.5811 43.0916 17.7131 43.6196 17.7131Z" fill="#1A1A1A"/>
<path d="M50.5104 20.0011V9.1551H53.2604V12.1031L52.8424 12.1471C52.8864 11.5164 53.0771 10.9591 53.4144 10.4751C53.7518 9.9911 54.1624 9.6171 54.6464 9.3531C55.1451 9.07443 55.6511 8.9351 56.1644 8.9351C56.5311 8.9351 56.8758 8.98643 57.1984 9.0891C57.5358 9.1771 57.8804 9.3311 58.2324 9.5511L56.9124 12.0151C56.7511 11.9271 56.5458 11.8464 56.2964 11.7731C56.0471 11.6998 55.7978 11.6631 55.5484 11.6631C55.2551 11.6631 54.9691 11.7144 54.6904 11.8171C54.4264 11.9198 54.1844 12.0811 53.9644 12.3011C53.7591 12.5211 53.5904 12.8144 53.4584 13.1811C53.3998 13.3864 53.3484 13.6504 53.3044 13.9731C53.2751 14.2811 53.2604 14.7358 53.2604 15.3371V20.0011H50.5104Z" fill="#1A1A1A"/>
<path d="M63.4775 20.2211C62.5389 20.2211 61.7322 20.0671 61.0575 19.7591C60.3829 19.4511 59.8255 19.0404 59.3855 18.5271C58.9602 17.9991 58.6449 17.4051 58.4395 16.7451C58.2342 16.0704 58.1315 15.3664 58.1315 14.6331C58.1315 13.9291 58.2342 13.2398 58.4395 12.5651C58.6449 11.8904 58.9529 11.2818 59.3635 10.7391C59.7742 10.1964 60.3022 9.76376 60.9475 9.4411C61.6075 9.10376 62.3922 8.9351 63.3015 8.9351C64.1522 8.9351 64.8929 9.08177 65.5235 9.3751C66.1542 9.65376 66.6749 10.0498 67.0855 10.5631C67.4962 11.0618 67.8042 11.6484 68.0095 12.3231C68.2295 12.9978 68.3395 13.7164 68.3395 14.4791C68.3395 14.5818 68.3322 14.7284 68.3176 14.9191C68.3176 15.0951 68.3029 15.2858 68.2735 15.4911H60.8595C60.9329 16.2684 61.2189 16.8551 61.7175 17.2511C62.2309 17.6471 62.8689 17.8451 63.6315 17.8451C64.1889 17.8451 64.7315 17.7498 65.2595 17.5591C65.7875 17.3538 66.2569 17.0678 66.6675 16.7011L68.0315 18.5491C67.5182 18.9451 67.0342 19.2678 66.5796 19.5171C66.1249 19.7664 65.6482 19.9424 65.1496 20.0451C64.6656 20.1624 64.1082 20.2211 63.4775 20.2211ZM65.6335 14.1271C65.6629 14.0098 65.6849 13.8924 65.6995 13.7751C65.7289 13.6578 65.7435 13.5478 65.7435 13.4451C65.7435 13.1371 65.6849 12.8511 65.5676 12.5871C65.4502 12.3084 65.2889 12.0664 65.0835 11.8611C64.8782 11.6558 64.6289 11.5018 64.3355 11.3991C64.0569 11.2818 63.7342 11.2231 63.3675 11.2231C62.8249 11.2231 62.3702 11.3331 62.0035 11.5531C61.6369 11.7731 61.3582 12.0591 61.1675 12.4111C60.9916 12.7484 60.8815 13.1004 60.8375 13.4671H66.5575L65.6335 14.1271Z" fill="#1A1A1A"/>
<path d="M73.9939 20.2211C73.0406 20.2211 72.2192 19.9791 71.5299 19.4951C70.8406 18.9964 70.3052 18.3218 69.9239 17.4711C69.5572 16.6058 69.3739 15.6378 69.3739 14.5671C69.3739 13.3791 69.5792 12.3671 69.9899 11.5311C70.4152 10.6951 70.9799 10.0571 71.6839 9.6171C72.3879 9.16243 73.1579 8.9351 73.9939 8.9351C74.5806 8.9351 75.1232 9.05976 75.6219 9.3091C76.1352 9.54377 76.5752 9.9031 76.9419 10.3871C77.3086 10.8711 77.5506 11.4871 77.6679 12.2351L77.1179 12.0811V4.6671H79.8239V20.0011H77.1179V17.0971L77.7559 16.7891C77.5799 17.6398 77.2939 18.3218 76.8979 18.8351C76.5166 19.3338 76.0692 19.6931 75.5559 19.9131C75.0572 20.1184 74.5366 20.2211 73.9939 20.2211ZM74.7419 17.7131C75.2846 17.7131 75.7466 17.5811 76.1279 17.3171C76.5239 17.0531 76.8246 16.6864 77.0299 16.2171C77.2499 15.7478 77.3599 15.1978 77.3599 14.5671C77.3599 13.9364 77.2499 13.3864 77.0299 12.9171C76.8246 12.4478 76.5239 12.0884 76.1279 11.8391C75.7466 11.5751 75.2846 11.4431 74.7419 11.4431C74.2139 11.4431 73.7519 11.5751 73.3559 11.8391C72.9599 12.0884 72.6519 12.4478 72.4319 12.9171C72.2266 13.3718 72.1239 13.9218 72.1239 14.5671C72.1239 15.2124 72.2266 15.7698 72.4319 16.2391C72.6519 16.7084 72.9599 17.0751 73.3559 17.3391C73.7519 17.5884 74.2139 17.7131 74.7419 17.7131Z" fill="#1A1A1A"/>
<path d="M86.6927 20.2211C85.754 20.2211 84.9474 20.0671 84.2727 19.7591C83.598 19.4511 83.0407 19.0404 82.6007 18.5271C82.1754 17.9991 81.86 17.4051 81.6547 16.7451C81.4494 16.0704 81.3467 15.3664 81.3467 14.6331C81.3467 13.9291 81.4494 13.2398 81.6547 12.5651C81.86 11.8904 82.168 11.2818 82.5787 10.7391C82.9894 10.1964 83.5174 9.76376 84.1627 9.4411C84.8227 9.10376 85.6074 8.9351 86.5167 8.9351C87.3674 8.9351 88.108 9.08177 88.7387 9.3751C89.3694 9.65376 89.89 10.0498 90.3007 10.5631C90.7114 11.0618 91.0194 11.6484 91.2247 12.3231C91.4447 12.9978 91.5547 13.7164 91.5547 14.4791C91.5547 14.5818 91.5474 14.7284 91.5327 14.9191C91.5327 15.0951 91.518 15.2858 91.4887 15.4911H84.0747C84.148 16.2684 84.434 16.8551 84.9327 17.2511C85.446 17.6471 86.084 17.8451 86.8467 17.8451C87.404 17.8451 87.9467 17.7498 88.4747 17.5591C89.0027 17.3538 89.472 17.0678 89.8827 16.7011L91.2467 18.5491C90.7334 18.9451 90.2494 19.2678 89.7947 19.5171C89.34 19.7664 88.8634 19.9424 88.3647 20.0451C87.8807 20.1624 87.3234 20.2211 86.6927 20.2211ZM88.8487 14.1271C88.878 14.0098 88.9 13.8924 88.9147 13.7751C88.944 13.6578 88.9587 13.5478 88.9587 13.4451C88.9587 13.1371 88.9 12.8511 88.7827 12.5871C88.6654 12.3084 88.504 12.0664 88.2987 11.8611C88.0934 11.6558 87.844 11.5018 87.5507 11.3991C87.272 11.2818 86.9494 11.2231 86.5827 11.2231C86.04 11.2231 85.5854 11.3331 85.2187 11.5531C84.852 11.7731 84.5734 12.0591 84.3827 12.4111C84.2067 12.7484 84.0967 13.1004 84.0527 13.4671H89.7727L88.8487 14.1271Z" fill="#1A1A1A"/>
<path d="M96.857 20.2211C96.0504 20.2211 95.3464 20.1038 94.745 19.8691C94.1437 19.6344 93.6304 19.3411 93.205 18.9891C92.7944 18.6371 92.4644 18.2998 92.215 17.9771L94.085 16.3491C94.3344 16.7598 94.6864 17.1411 95.141 17.4931C95.6104 17.8304 96.1897 17.9991 96.879 17.9991C97.4217 17.9991 97.8397 17.8964 98.133 17.6911C98.441 17.4711 98.595 17.1998 98.595 16.8771C98.595 16.6131 98.4997 16.4004 98.309 16.2391C98.1184 16.0631 97.8617 15.9238 97.539 15.8211C97.2164 15.7038 96.857 15.5938 96.461 15.4911C96.0504 15.3738 95.625 15.2418 95.185 15.0951C94.745 14.9484 94.3417 14.7578 93.975 14.5231C93.6084 14.2738 93.3077 13.9584 93.073 13.5771C92.853 13.1958 92.743 12.7191 92.743 12.1471C92.743 11.1938 93.117 10.4238 93.865 9.8371C94.613 9.23576 95.603 8.9351 96.835 8.9351C97.7004 8.9351 98.485 9.1111 99.189 9.4631C99.893 9.80043 100.45 10.2918 100.861 10.9371L99.167 12.2791C98.903 11.8538 98.551 11.5384 98.111 11.3331C97.6857 11.1131 97.231 11.0031 96.747 11.0031C96.3217 11.0031 95.9697 11.0838 95.691 11.2451C95.427 11.4064 95.295 11.6264 95.295 11.9051C95.295 12.0958 95.3537 12.2571 95.471 12.3891C95.603 12.5211 95.8084 12.6384 96.087 12.7411C96.3804 12.8291 96.7617 12.9318 97.231 13.0491C97.671 13.1518 98.1257 13.2764 98.595 13.4231C99.0644 13.5698 99.5044 13.7678 99.915 14.0171C100.326 14.2664 100.656 14.5964 100.905 15.0071C101.154 15.4178 101.279 15.9384 101.279 16.5691C101.279 17.2878 101.096 17.9258 100.729 18.4831C100.362 19.0258 99.849 19.4511 99.189 19.7591C98.529 20.0671 97.7517 20.2211 96.857 20.2211Z" fill="#1A1A1A"/>
<path d="M110.16 20.0011L107.014 15.0511L105.32 16.9431V13.5331L109.478 9.1551H112.954L109.016 13.2031L113.416 20.0011H110.16ZM102.812 20.0011V4.6671H105.562V20.0011H102.812Z" fill="#1A1A1A"/>
<path d="M18.713 7.12908L18.467 7.69508C18.4286 7.78725 18.3637 7.86598 18.2806 7.92135C18.1975 7.97673 18.0999 8.00628 18 8.00628C17.9001 8.00628 17.8025 7.97673 17.7194 7.92135C17.6363 7.86598 17.5714 7.78725 17.533 7.69508L17.287 7.12908C16.8545 6.1278 16.0624 5.325 15.067 4.87908L14.308 4.54008C14.2159 4.49772 14.1379 4.42985 14.0832 4.34451C14.0286 4.25917 13.9995 4.15994 13.9995 4.05858C13.9995 3.95722 14.0286 3.85799 14.0832 3.77265C14.1379 3.68731 14.2159 3.61944 14.308 3.57708L15.025 3.25808C16.0454 2.79946 16.8511 1.96696 17.276 0.932081L17.529 0.321081C17.5662 0.226435 17.631 0.145179 17.715 0.0879061C17.799 0.0306331 17.8983 0 18 0C18.1017 0 18.201 0.0306331 18.285 0.0879061C18.369 0.145179 18.4338 0.226435 18.471 0.321081L18.724 0.931081C19.1485 1.96616 19.9538 2.79901 20.974 3.25808L21.692 3.57808C21.7838 3.62056 21.8615 3.68842 21.916 3.77365C21.9705 3.85889 21.9994 3.95793 21.9994 4.05908C21.9994 4.16023 21.9705 4.25928 21.916 4.34451C21.8615 4.42974 21.7838 4.4976 21.692 4.54008L20.932 4.87808C19.9368 5.32445 19.1451 6.12761 18.713 7.12908ZM18 10.0011C18.6787 10.0016 19.3526 9.88699 19.993 9.66208C19.9977 9.77542 20 9.88841 20 10.0011C20 12.1228 19.1571 14.1576 17.6569 15.6579C16.1566 17.1582 14.1217 18.0011 12 18.0011V21.5011C7 19.5011 0 16.5011 0 10.0011C0 7.87935 0.842855 5.84452 2.34315 4.34423C3.84344 2.84394 5.87827 2.00108 8 2.00108H12C12.1133 2.00108 12.2263 2.00341 12.339 2.00808C12.0203 2.913 11.9233 3.88115 12.056 4.83132C12.1888 5.78149 12.5475 6.68597 13.102 7.4689C13.6565 8.25182 14.3906 8.89036 15.2429 9.33095C16.0951 9.77155 17.0406 10.0013 18 10.0011Z" fill="#1A1A1A"/>
<path d="M18.713 7.13018L18.467 7.69618C18.4286 7.78835 18.3637 7.86707 18.2806 7.92245C18.1975 7.97783 18.0999 8.00738 18 8.00738C17.9001 8.00738 17.8025 7.97783 17.7194 7.92245C17.6363 7.86707 17.5714 7.78835 17.533 7.69618L17.287 7.13018C16.8545 6.1289 16.0624 5.3261 15.067 4.88018L14.308 4.54118C14.2159 4.49882 14.1379 4.43095 14.0832 4.34561C14.0286 4.26027 13.9995 4.16104 13.9995 4.05968C13.9995 3.95832 14.0286 3.85909 14.0832 3.77375C14.1379 3.68841 14.2159 3.62054 14.308 3.57818L15.025 3.25918C16.0454 2.80056 16.8511 1.96806 17.276 0.93318L17.529 0.32218C17.5662 0.227534 17.631 0.146278 17.715 0.0890048C17.799 0.0317318 17.8983 0.00109863 18 0.00109863C18.1017 0.00109863 18.201 0.0317318 18.285 0.0890048C18.369 0.146278 18.4338 0.227534 18.471 0.32218L18.724 0.93218C19.1485 1.96726 19.9538 2.80011 20.974 3.25918L21.692 3.57918C21.7838 3.62166 21.8615 3.68952 21.916 3.77475C21.9705 3.85999 21.9994 3.95903 21.9994 4.06018C21.9994 4.16133 21.9705 4.26037 21.916 4.34561C21.8615 4.43084 21.7838 4.4987 21.692 4.54118L20.932 4.87918C19.9368 5.32555 19.1451 6.12871 18.713 7.13018Z" fill="#FFAE2C"/>
</svg>
