<svg width="325" height="89" viewBox="0 0 325 89" fill="none" xmlns="http://www.w3.org/2000/svg">
<path d="M84.2 70V25.2H93.16V61.936H109.864V70H84.2ZM128.508 70.832C125.095 70.832 122.044 70.0427 119.356 68.464C116.668 66.8853 114.556 64.7947 113.02 62.192C111.527 59.5467 110.78 56.624 110.78 53.424C110.78 50.224 111.527 47.3013 113.02 44.656C114.556 42.0107 116.668 39.8987 119.356 38.32C122.044 36.7413 125.095 35.952 128.508 35.952C131.964 35.952 135.015 36.7413 137.66 38.32C140.348 39.8987 142.439 42.0107 143.932 44.656C145.468 47.3013 146.236 50.224 146.236 53.424C146.236 56.624 145.468 59.5467 143.932 62.192C142.439 64.7947 140.348 66.8853 137.66 68.464C135.015 70.0427 131.964 70.832 128.508 70.832ZM128.508 62.96C130.343 62.96 131.943 62.5333 133.308 61.68C134.673 60.784 135.719 59.6107 136.444 58.16C137.212 56.7093 137.596 55.1307 137.596 53.424C137.596 51.6747 137.212 50.0747 136.444 48.624C135.719 47.1733 134.673 46.0213 133.308 45.168C131.943 44.272 130.343 43.824 128.508 43.824C126.673 43.824 125.073 44.272 123.708 45.168C122.343 46.0213 121.276 47.1733 120.508 48.624C119.783 50.0747 119.42 51.6747 119.42 53.424C119.42 55.1307 119.783 56.7093 120.508 58.16C121.276 59.6107 122.343 60.784 123.708 61.68C125.073 62.5333 126.673 62.96 128.508 62.96ZM165.94 83.632C162.569 83.632 159.561 83.1627 156.916 82.224C154.313 81.328 152.009 79.7067 150.004 77.36L155.38 71.024C156.958 72.816 158.601 74.032 160.308 74.672C162.014 75.312 163.913 75.632 166.003 75.632C167.54 75.632 168.969 75.248 170.292 74.48C171.614 73.712 172.66 72.624 173.428 71.216C174.238 69.8507 174.644 68.2933 174.644 66.544V65.072C173.748 66.608 172.51 67.8453 170.932 68.784C169.396 69.7227 167.284 70.192 164.596 70.192C161.566 70.192 158.814 69.424 156.34 67.888C153.908 66.352 151.988 64.304 150.58 61.744C149.172 59.1413 148.468 56.24 148.468 53.04C148.468 49.84 149.172 46.9387 150.58 44.336C151.988 41.7333 153.908 39.6853 156.34 38.192C158.814 36.656 161.566 35.888 164.596 35.888C167.369 35.888 169.524 36.3787 171.06 37.36C172.638 38.3413 173.876 39.6427 174.772 41.264V36.72H183.284V67.056C183.284 70.4693 182.537 73.4133 181.044 75.888C179.593 78.3627 177.566 80.2613 174.964 81.584C172.361 82.9493 169.353 83.632 165.94 83.632ZM166.003 62.32C168.862 62.32 171.081 61.424 172.66 59.632C174.238 57.84 175.028 55.6427 175.028 53.04C175.028 50.4373 174.238 48.24 172.66 46.448C171.081 44.656 168.862 43.76 166.003 43.76C163.188 43.76 160.99 44.656 159.412 46.448C157.876 48.24 157.108 50.4373 157.108 53.04C157.108 54.704 157.449 56.24 158.132 57.648C158.857 59.056 159.881 60.1867 161.204 61.04C162.526 61.8933 164.126 62.32 166.003 62.32ZM204.245 70.832C201.855 70.832 199.615 70.384 197.525 69.488C195.477 68.592 193.663 67.3547 192.085 65.776C190.506 64.1547 189.269 62.2987 188.373 60.208C187.519 58.0747 187.093 55.792 187.093 53.36C187.093 50.1173 187.839 47.1947 189.333 44.592C190.869 41.9467 192.959 39.8347 195.605 38.256C198.293 36.6773 201.322 35.888 204.693 35.888C207.722 35.8453 210.431 36.3787 212.821 37.488C215.21 38.5973 217.109 40.1333 218.517 42.096L211.861 47.536C211.093 46.384 210.09 45.4667 208.853 44.784C207.658 44.1013 206.314 43.76 204.821 43.76C202.986 43.76 201.386 44.208 200.021 45.104C198.655 45.9573 197.589 47.1093 196.821 48.56C196.095 50.0107 195.733 51.6107 195.733 53.36C195.733 55.0667 196.117 56.6667 196.885 58.16C197.695 59.6107 198.783 60.784 200.149 61.68C201.557 62.5333 203.178 62.96 205.013 62.96C206.677 62.96 208.085 62.5973 209.237 61.872C210.389 61.104 211.391 60.144 212.245 58.992L218.517 64.432C216.938 66.4373 214.975 68.016 212.629 69.168C210.325 70.2773 207.53 70.832 204.245 70.832ZM221.935 70V23.28H230.575V41.328C232.367 37.744 235.716 35.952 240.623 35.952C243.012 35.952 245.167 36.5067 247.087 37.616C249.007 38.7253 250.522 40.304 251.631 42.352C252.74 44.4 253.295 46.832 253.295 49.648V70H244.655V51.76C244.655 48.8587 243.994 46.768 242.671 45.488C241.348 44.1653 239.62 43.504 237.487 43.504C235.652 43.504 234.031 44.1653 232.623 45.488C231.258 46.768 230.575 48.8587 230.575 51.76V70H221.935ZM274.059 70.832C270.645 70.832 267.637 70.0427 265.035 68.464C262.432 66.8853 260.405 64.7947 258.955 62.192C257.547 59.5467 256.843 56.624 256.843 53.424C256.843 50.224 257.589 47.3013 259.083 44.656C260.576 41.968 262.603 39.8347 265.163 38.256C267.765 36.6773 270.731 35.888 274.059 35.888C277.387 35.888 280.309 36.6773 282.827 38.256C285.387 39.8347 287.371 41.968 288.779 44.656C290.229 47.3013 290.955 50.224 290.955 53.424C290.955 53.8933 290.933 54.384 290.891 54.896C290.848 55.408 290.784 55.9413 290.699 56.496H265.803C266.272 58.4587 267.211 60.0587 268.619 61.296C270.069 62.5333 271.883 63.152 274.059 63.152C275.936 63.152 277.557 62.7253 278.923 61.872C280.331 61.0187 281.419 59.952 282.187 58.672L288.907 63.728C287.584 65.8187 285.6 67.5253 282.955 68.848C280.309 70.1707 277.344 70.832 274.059 70.832ZM273.931 43.312C271.883 43.312 270.133 43.9307 268.683 45.168C267.232 46.4053 266.272 48.0267 265.803 50.032H282.251C281.781 48.1973 280.8 46.6187 279.307 45.296C277.856 43.9733 276.064 43.312 273.931 43.312ZM295.93 70V44.08H291.258V36.72H295.93V34.48C295.93 31.1093 296.932 28.4 298.938 26.352C300.943 24.304 303.631 23.28 307.002 23.28H310.586V30.64H308.346C305.828 30.64 304.57 31.9627 304.57 34.608V36.72H311.354V44.08H304.57V70H295.93Z" fill="#3A3B3E"/>
<rect x="43" y="70" width="8" height="21" transform="rotate(-90 43 70)" fill="#2563EB"/>
<rect x="22" y="54" width="8" height="42" transform="rotate(-90 22 54)" fill="#2563EB"/>
<rect x="28" y="38" width="8" height="36" transform="rotate(-90 28 38)" fill="#2563EB"/>
<rect x="9" y="22" width="8" height="55" transform="rotate(-90 9 22)" fill="#2563EB"/>
</svg>
