<?xml version="1.0" encoding="UTF-8"?>
<svg version="1.1" xmlns="http://www.w3.org/2000/svg" width="262" height="147">
<path d="M0 0 C34.98 0 69.96 0 106 0 C106 37.62 106 75.24 106 114 C71.02 114 36.04 114 0 114 C0 76.38 0 38.76 0 0 Z M7 7 C7 16.24 7 25.48 7 35 C25.48 35 43.96 35 63 35 C63 27.74 63 20.48 63 13 C65.31 13 67.62 13 70 13 C70 20.26 70 27.52 70 35 C71.98 35 73.96 35 76 35 C76 27.74 76 20.48 76 13 C78.31 13 80.62 13 83 13 C83 20.26 83 27.52 83 35 C88.28 35 93.56 35 99 35 C99 25.76 99 16.52 99 7 C68.64 7 38.28 7 7 7 Z M7 42 C7 51.57 7 61.14 7 71 C10.63 71 14.26 71 18 71 C18 63.41 18 55.82 18 48 C20.31 48 22.62 48 25 48 C25 55.59 25 63.18 25 71 C26.98 71 28.96 71 31 71 C31 63.41 31 55.82 31 48 C33.31 48 35.62 48 38 48 C38 55.59 38 63.18 38 71 C41.63 71 45.26 71 49 71 C48.72285156 69.83082031 48.44570312 68.66164063 48.16015625 67.45703125 C47.79422599 65.90886477 47.42834307 64.36068709 47.0625 62.8125 C46.88009766 62.04357422 46.69769531 61.27464844 46.50976562 60.48242188 C45.60879887 56.66559908 44.73362003 52.85343574 44 49 C47.465 48.505 47.465 48.505 51 48 C51.0825 49.010625 51.165 50.02125 51.25 51.0625 C52.07270384 57.85287645 54.18074946 64.42722386 56 71 C64.58 71 73.16 71 82 71 C82 63.41 82 55.82 82 48 C84.31 48 86.62 48 89 48 C89 55.59 89 63.18 89 71 C92.3 71 95.6 71 99 71 C99 61.43 99 51.86 99 42 C68.64 42 38.28 42 7 42 Z M7 78 C7 87.57 7 97.14 7 107 C10.63 107 14.26 107 18 107 C18 99.41 18 91.82 18 84 C20.31 84 22.62 84 25 84 C25 91.59 25 99.18 25 107 C27.97 107 30.94 107 34 107 C32.75679176 99.45955574 32.75679176 99.45955574 30.875 92.0625 C30 89 30 89 30 85 C31.98 84.67 33.96 84.34 36 84 C36.10957031 84.58265625 36.21914063 85.1653125 36.33203125 85.765625 C37.63394432 97.1688166 37.63394432 97.1688166 42 107 C44.8843382 107.08865208 47.74462158 107.11521296 50.62890625 107.09765625 C51.49313705 107.0962413 52.35736786 107.09482635 53.24778748 107.09336853 C56.01939292 107.08775239 58.7909188 107.07519719 61.5625 107.0625 C63.4368478 107.05748708 65.31119685 107.05292381 67.18554688 107.04882812 C71.79042021 107.03862681 76.3951206 107.01905467 81 107 C81 99.41 81 91.82 81 84 C83.31 84 85.62 84 88 84 C88 91.59 88 99.18 88 107 C91.63 107 95.26 107 99 107 C99 97.43 99 87.86 99 78 C68.64 78 38.28 78 7 78 Z " fill="#B5541D" transform="translate(25,12)"/>
<path d="M0 0 C1.29550781 -0.03867187 1.29550781 -0.03867187 2.6171875 -0.078125 C5.64550591 0.31810358 6.97746558 1.09754004 9.125 3.25 C9.5 6.8125 9.5 6.8125 9.125 10.25 C7.125 12.25 7.125 12.25 4 12.375 C3.05125 12.33375 2.1025 12.2925 1.125 12.25 C1.785 9.61 2.445 6.97 3.125 4.25 C1.475 4.58 -0.175 4.91 -1.875 5.25 C-1.84338142 8.57075016 -1.84338142 8.57075016 -0.875 12.25 C1.11408813 13.92967442 3.11534404 15.59498921 5.125 17.25 C6.445 20.22 7.765 23.19 9.125 26.25 C10.775 18.66 12.425 11.07 14.125 3.25 C18.58 2.755 18.58 2.755 23.125 2.25 C22.795 5.55 22.465 8.85 22.125 12.25 C23.0325 12.188125 23.94 12.12625 24.875 12.0625 C28.125 12.25 28.125 12.25 30.5 13.25 C32.55682743 15.78147991 32.55325365 17.71260735 32.3984375 20.91015625 C31.91119062 25.07959739 31.06340739 29.16122495 30.125 33.25 C30.785 32.92 31.445 32.59 32.125 32.25 C32.89304651 29.87425597 32.89304651 29.87425597 33.5 27.0625 C34.98283433 21.34617364 36.74520244 17.23316463 41.375 13.375 C45.22428713 11.80029163 47.97427878 11.90977695 52.125 12.25 C54.125 14.25 54.125 14.25 54.5625 17.5 C54.00858522 22.24784098 52.54747167 23.97963819 49.125 27.25 C47.46359237 27.92966676 45.79799959 28.59938905 44.125 29.25 C43.23806697 31.29105639 43.23806697 31.29105639 43.125 33.25 C48.86839677 31.96890757 48.86839677 31.96890757 53.125 28.25 C53.9737736 25.78729736 53.9737736 25.78729736 54.4765625 22.99609375 C54.68796875 21.97708984 54.899375 20.95808594 55.1171875 19.90820312 C55.32601562 18.84537109 55.53484375 17.78253906 55.75 16.6875 C56.17754329 14.58159479 56.60712902 12.47610289 57.0390625 10.37109375 C57.2242041 9.4370874 57.4093457 8.50308105 57.60009766 7.54077148 C58.125 5.25 58.125 5.25 59.125 3.25 C61.19140625 2.8359375 61.19140625 2.8359375 63.6875 2.625 C64.51378906 2.55023438 65.34007812 2.47546875 66.19140625 2.3984375 C67.14853516 2.32496094 67.14853516 2.32496094 68.125 2.25 C66.5439413 12.67250537 64.34459007 22.94937811 62.125 33.25 C65.62930423 30.22770044 66.75673016 28.04528783 67.65234375 23.53125 C67.88759766 22.43425781 68.12285156 21.33726563 68.36523438 20.20703125 C68.82992604 17.90309776 69.29086722 15.59840463 69.74804688 13.29296875 C70.10286133 11.64748047 70.10286133 11.64748047 70.46484375 9.96875 C70.76442993 8.46731445 70.76442993 8.46731445 71.07006836 6.93554688 C72.41782336 3.50455751 74.04641503 2.21763108 77.125 0.25 C81.15879647 -0.31614687 83.18258578 -0.40244061 86.5625 1.9375 C88.38453249 4.63410809 88.47930394 6.06126451 88.125 9.25 C86.805 9.25 85.485 9.25 84.125 9.25 C84.125 8.26 84.125 7.27 84.125 6.25 C83.135 6.25 82.145 6.25 81.125 6.25 C80.795 7.9 80.465 9.55 80.125 11.25 C81.115 11.58 82.105 11.91 83.125 12.25 C82.795 13.57 82.465 14.89 82.125 16.25 C80.805 16.25 79.485 16.25 78.125 16.25 C77.99738281 17.53519531 77.86976563 18.82039063 77.73828125 20.14453125 C77.18059847 25.13437598 76.31801647 30.02032731 75.3125 34.9375 C75.15974609 35.75283203 75.00699219 36.56816406 74.84960938 37.40820312 C73.79711383 42.55419914 72.42456311 46.13364916 69.125 50.25 C66.03326248 51.79586876 63.53070448 51.54359521 60.125 51.25 C57.625 49.625 57.625 49.625 56.125 47.25 C56.4375 41.9375 56.4375 41.9375 58.125 40.25 C56.145 38.93 54.165 37.61 52.125 36.25 C51.3 36.745 50.475 37.24 49.625 37.75 C44.81689246 39.81061752 40.63121252 40.25248501 35.625 38.25 C34.8825 37.755 34.8825 37.755 34.125 37.25 C33.135 37.91 32.145 38.57 31.125 39.25 C25.10512647 39.78748871 25.10512647 39.78748871 22.1875 38.1875 C19.30323575 32.9279593 21.47240744 25.04175901 22.125 19.25 C18.99668572 25.6555959 17.59854716 32.30029175 16.125 39.25 C13.155 39.25 10.185 39.25 7.125 39.25 C7.125 37.27 7.125 35.29 7.125 33.25 C6.403125 34.03375 5.68125 34.8175 4.9375 35.625 C0.55789725 39.71262923 -3.08855054 40.65537518 -8.9453125 40.51171875 C-12.79799306 39.9891892 -15.20861738 37.91638262 -17.875 35.25 C-18.58825625 30.95387512 -18.65267567 27.36096525 -16.125 23.75 C-13.85323371 22.23548914 -12.59072466 21.41458937 -9.875 21.25 C-7.125 22.1875 -7.125 22.1875 -4.875 23.25 C-4.875 24.57 -4.875 25.89 -4.875 27.25 C-6.525 27.91 -8.175 28.57 -9.875 29.25 C-9.545 30.57 -9.215 31.89 -8.875 33.25 C-7.20888095 33.292721 -5.54117115 33.29063832 -3.875 33.25 C-2.55531899 32.12406506 -2.55531899 32.12406506 -2.375 29.25 C-2.39770618 23.75510488 -6.4912441 20.20026707 -9.875 16.25 C-12.37531654 12.49952518 -12.41103554 10.69143734 -11.875 6.25 C-8.14146351 1.73045583 -5.75750222 0.10250746 0 0 Z M47.125 16.25 C45.35304126 18.53643812 45.35304126 18.53643812 44.125 21.25 C44.455 22.24 44.785 23.23 45.125 24.25 C48.02432357 21.85490662 48.62668276 19.93754757 49.125 16.25 C48.465 16.25 47.805 16.25 47.125 16.25 Z M63.125 41.25 C62.465 42.57 61.805 43.89 61.125 45.25 C61.785 45.25 62.445 45.25 63.125 45.25 C63.455 43.93 63.785 42.61 64.125 41.25 C63.795 41.25 63.465 41.25 63.125 41.25 Z " fill="#000000" transform="translate(159.875,55.75)"/>
<path d="M0 0 C1.12019531 -0.00128906 2.24039063 -0.00257812 3.39453125 -0.00390625 C4.57402344 -0.00003906 5.75351562 0.00382812 6.96875 0.0078125 C8.73798828 0.00201172 8.73798828 0.00201172 10.54296875 -0.00390625 C12.22326172 -0.00197266 12.22326172 -0.00197266 13.9375 0 C14.97326172 0.00112793 16.00902344 0.00225586 17.07617188 0.00341797 C19.46875 0.1328125 19.46875 0.1328125 20.46875 1.1328125 C20.46875 3.4428125 20.46875 5.7528125 20.46875 8.1328125 C11.55875 8.1328125 2.64875 8.1328125 -6.53125 8.1328125 C-6.53125 0.00711244 -6.53125 0.00711244 0 0 Z " fill="#B75520" transform="translate(47.53125,33.8671875)"/>
<path d="M0 0 C8.91 0 17.82 0 27 0 C27 2.31 27 4.62 27 7 C18.09 7 9.18 7 0 7 C0 4.69 0 2.38 0 0 Z " fill="#B5541D" transform="translate(71,106)"/>
<path d="M0 0 C3.31248187 -0.02888146 6.62493167 -0.04675799 9.9375 -0.0625 C10.88302734 -0.07087891 11.82855469 -0.07925781 12.80273438 -0.08789062 C14.15141602 -0.09272461 14.15141602 -0.09272461 15.52734375 -0.09765625 C16.77632446 -0.10551147 16.77632446 -0.10551147 18.05053711 -0.11352539 C20 0 20 0 21 1 C21.125 4 21.125 4 21 7 C20 8 20 8 18.05053711 8.11352539 C17.2178833 8.10828857 16.38522949 8.10305176 15.52734375 8.09765625 C14.62822266 8.09443359 13.72910156 8.09121094 12.80273438 8.08789062 C11.85720703 8.07951172 10.91167969 8.07113281 9.9375 8.0625 C8.98810547 8.05798828 8.03871094 8.05347656 7.06054688 8.04882812 C4.70696935 8.0370011 2.35351523 8.02052025 0 8 C0 5.36 0 2.72 0 0 Z " fill="#B6561E" transform="translate(98,131)"/>
<path d="M0 0 C0.83265381 0.00523682 1.66530762 0.01047363 2.52319336 0.01586914 C3.42231445 0.0190918 4.32143555 0.02231445 5.24780273 0.02563477 C6.66609375 0.03820312 6.66609375 0.03820312 8.11303711 0.05102539 C9.06243164 0.05553711 10.01182617 0.06004883 10.98999023 0.06469727 C13.34356776 0.07652429 15.69702188 0.09300514 18.05053711 0.11352539 C18.09295434 2.44647314 18.09146648 4.78055106 18.05053711 7.11352539 C16.4944696 8.6695929 14.9909634 8.24323308 12.83178711 8.24633789 C11.55754883 8.24827148 11.55754883 8.24827148 10.25756836 8.25024414 C8.91758789 8.24444336 8.91758789 8.24444336 7.55053711 8.23852539 C6.6572168 8.24239258 5.76389648 8.24625977 4.84350586 8.25024414 C3.99401367 8.24895508 3.14452148 8.24766602 2.26928711 8.24633789 C1.48489258 8.24520996 0.70049805 8.24408203 -0.10766602 8.24291992 C-1.94946289 8.11352539 -1.94946289 8.11352539 -2.94946289 7.11352539 C-3.07446289 4.11352539 -3.07446289 4.11352539 -2.94946289 1.11352539 C-1.94946289 0.11352539 -1.94946289 0.11352539 0 0 Z " fill="#B6561E" transform="translate(40.949462890625,130.886474609375)"/>
</svg>
