<svg xmlns="http://www.w3.org/2000/svg" width="180" height="40" viewBox="0 0 180 40" shape-rendering="geometricPrecision">
    <defs>
        <linearGradient id="bgGradient" x1="0%" y1="0%" x2="100%" y2="100%">
            <stop offset="0%" stop-color="#25D366"/>
            <stop offset="100%" stop-color="#128C7E"/>
        </linearGradient>
    </defs>
    <!-- Background rounded rectangle -->
    <rect width="40" height="40" rx="10" ry="10" fill="url(#bgGradient)"/>
    <!-- Chat bubble icon centered -->
    <g transform="translate(8, 8)">
        <path d="M21 11.5a8.38 8.38 0 0 1-.9 3.8 8.5 8.5 0 0 1-7.6 4.7 8.38 8.38 0 0 1-3.8-.9L3 21l1.9-5.7a8.38 8.38 0 0 1-.9-3.8 8.5 8.5 0 0 1 4.7-7.6 8.38 8.38 0 0 1 3.8-.9h.5a8.48 8.48 0 0 1 8 8v.5z" fill="none" stroke="#0a0f0d" stroke-width="2.5" stroke-linecap="round" stroke-linejoin="round"/>
    </g>
    <!-- Whatomate text -->
    <text x="50" y="27" font-family="system-ui, -apple-system, 'Segoe UI', Roboto, Arial, sans-serif" font-size="20" font-weight="700" fill="#0a0f0d" style="letter-spacing: -0.5px;">Whatomate</text>
</svg>
